<?xml version="1.0" encoding="utf-8" standalone="no"?>
<!DOCTYPE svg PUBLIC "-//W3C//DTD SVG 1.1//EN"
  "http://www.w3.org/Graphics/SVG/1.1/DTD/svg11.dtd">
<svg xmlns:xlink="http://www.w3.org/1999/xlink" width="641.738105pt" height="320.33875pt" viewBox="0 0 641.738105 320.33875" xmlns="http://www.w3.org/2000/svg" version="1.1">
 <metadata>
  <rdf:RDF xmlns:dc="http://purl.org/dc/elements/1.1/" xmlns:cc="http://creativecommons.org/ns#" xmlns:rdf="http://www.w3.org/1999/02/22-rdf-syntax-ns#">
   <cc:Work>
    <dc:type rdf:resource="http://purl.org/dc/dcmitype/StillImage"/>
    <dc:date>2025-10-26T07:44:43.009994</dc:date>
    <dc:format>image/svg+xml</dc:format>
    <dc:creator>
     <cc:Agent>
      <dc:title>Matplotlib v3.10.1, https://matplotlib.org/</dc:title>
     </cc:Agent>
    </dc:creator>
   </cc:Work>
  </rdf:RDF>
 </metadata>
 <defs>
  <style type="text/css">*{stroke-linejoin: round; stroke-linecap: butt}</style>
 </defs>
 <g id="figure_1">
  <g id="patch_1">
   <path d="M -0 320.33875 
L 641.738105 320.33875 
L 641.738105 0 
L -0 0 
z
" style="fill: #ffffff"/>
  </g>
  <g id="axes_1">
   <g id="patch_2">
    <path d="M 62.866563 275.04 
L 305.475258 275.04 
L 305.475258 53.28 
L 62.866563 53.28 
z
" style="fill: #ffffff"/>
   </g>
   <g id="PathCollection_1">
    <defs>
     <path id="mc0d23ce305" d="M 0 3.872983 
C 1.027127 3.872983 2.012324 3.464901 2.738613 2.738613 
C 3.464901 2.012324 3.872983 1.027127 3.872983 0 
C 3.872983 -1.027127 3.464901 -2.012324 2.738613 -2.738613 
C 2.012324 -3.464901 1.027127 -3.872983 0 -3.872983 
C -1.027127 -3.872983 -2.012324 -3.464901 -2.738613 -2.738613 
C -3.464901 -2.012324 -3.872983 -1.027127 -3.872983 0 
C -3.872983 1.027127 -3.464901 2.012324 -2.738613 2.738613 
C -2.012324 3.464901 -1.027127 3.872983 0 3.872983 
z
" style="stroke: #009de4; stroke-opacity: 0.5"/>
    </defs>
    <g clip-path="url(#p8ec5486474)">
     <use xlink:href="#mc0d23ce305" x="73.89423" y="264.96" style="fill: #009de4; fill-opacity: 0.5; stroke: #009de4; stroke-opacity: 0.5"/>
     <use xlink:href="#mc0d23ce305" x="294.44759" y="131.393747" style="fill: #009de4; fill-opacity: 0.5; stroke: #009de4; stroke-opacity: 0.5"/>
    </g>
   </g>
   <g id="PathCollection_2">
    <defs>
     <path id="m836da3fea7" d="M 0 3.872983 
C 1.027127 3.872983 2.012324 3.464901 2.738613 2.738613 
C 3.464901 2.012324 3.872983 1.027127 3.872983 0 
C 3.872983 -1.027127 3.464901 -2.012324 2.738613 -2.738613 
C 2.012324 -3.464901 1.027127 -3.872983 0 -3.872983 
C -1.027127 -3.872983 -2.012324 -3.464901 -2.738613 -2.738613 
C -3.464901 -2.012324 -3.872983 -1.027127 -3.872983 0 
C -3.872983 1.027127 -3.464901 2.012324 -2.738613 2.738613 
C -2.012324 3.464901 -1.027127 3.872983 0 3.872983 
z
" style="stroke: #009de4"/>
    </defs>
    <g clip-path="url(#p8ec5486474)">
     <use xlink:href="#m836da3fea7" x="73.89423" y="264.96" style="fill: #009de4; stroke: #009de4"/>
     <use xlink:href="#m836da3fea7" x="294.44759" y="107.381836" style="fill: #009de4; stroke: #009de4"/>
    </g>
   </g>
   <g id="PathCollection_3">
    <defs>
     <path id="mc57f89175a" d="M 0 3.872983 
C 1.027127 3.872983 2.012324 3.464901 2.738613 2.738613 
C 3.464901 2.012324 3.872983 1.027127 3.872983 0 
C 3.872983 -1.027127 3.464901 -2.012324 2.738613 -2.738613 
C 2.012324 -3.464901 1.027127 -3.872983 0 -3.872983 
C -1.027127 -3.872983 -2.012324 -3.464901 -2.738613 -2.738613 
C -3.464901 -2.012324 -3.872983 -1.027127 -3.872983 0 
C -3.872983 1.027127 -3.464901 2.012324 -2.738613 2.738613 
C -2.012324 3.464901 -1.027127 3.872983 0 3.872983 
z
" style="stroke: #0066c0"/>
    </defs>
    <g clip-path="url(#p8ec5486474)">
     <use xlink:href="#mc57f89175a" x="73.89423" y="264.96" style="fill: #0066c0; stroke: #0066c0"/>
     <use xlink:href="#mc57f89175a" x="294.44759" y="70.363474" style="fill: #0066c0; stroke: #0066c0"/>
    </g>
   </g>
   <g id="matplotlib.axis_1">
    <g id="xtick_1">
     <g id="line2d_1">
      <defs>
       <path id="mca8dcb14f1" d="M 0 0 
L 0 3.5 
" style="stroke: #000000; stroke-width: 0.8"/>
      </defs>
      <g>
       <use xlink:href="#mca8dcb14f1" x="73.89423" y="275.04" style="stroke: #000000; stroke-width: 0.8"/>
      </g>
     </g>
     <g id="text_1">
      <!-- 0M -->
      <g transform="translate(63.400793 292.677812) scale(0.14 -0.14)">
       <defs>
        <path id="DejaVuSans-30" d="M 2034 4250 
Q 1547 4250 1301 3770 
Q 1056 3291 1056 2328 
Q 1056 1369 1301 889 
Q 1547 409 2034 409 
Q 2525 409 2770 889 
Q 3016 1369 3016 2328 
Q 3016 3291 2770 3770 
Q 2525 4250 2034 4250 
z
M 2034 4750 
Q 2819 4750 3233 4129 
Q 3647 3509 3647 2328 
Q 3647 1150 3233 529 
Q 2819 -91 2034 -91 
Q 1250 -91 836 529 
Q 422 1150 422 2328 
Q 422 3509 836 4129 
Q 1250 4750 2034 4750 
z
" transform="scale(0.015625)"/>
        <path id="DejaVuSans-4d" d="M 628 4666 
L 1569 4666 
L 2759 1491 
L 3956 4666 
L 4897 4666 
L 4897 0 
L 4281 0 
L 4281 4097 
L 3078 897 
L 2444 897 
L 1241 4097 
L 1241 0 
L 628 0 
L 628 4666 
z
" transform="scale(0.015625)"/>
       </defs>
       <use xlink:href="#DejaVuSans-30"/>
       <use xlink:href="#DejaVuSans-4d" transform="translate(63.623047 0)"/>
      </g>
     </g>
    </g>
    <g id="xtick_2">
     <g id="line2d_2">
      <g>
       <use xlink:href="#mca8dcb14f1" x="119.064557" y="275.04" style="stroke: #000000; stroke-width: 0.8"/>
      </g>
     </g>
     <g id="text_2">
      <!-- 100M -->
      <g transform="translate(99.66362 292.677812) scale(0.14 -0.14)">
       <defs>
        <path id="DejaVuSans-31" d="M 794 531 
L 1825 531 
L 1825 4091 
L 703 3866 
L 703 4441 
L 1819 4666 
L 2450 4666 
L 2450 531 
L 3481 531 
L 3481 0 
L 794 0 
L 794 531 
z
" transform="scale(0.015625)"/>
       </defs>
       <use xlink:href="#DejaVuSans-31"/>
       <use xlink:href="#DejaVuSans-30" transform="translate(63.623047 0)"/>
       <use xlink:href="#DejaVuSans-30" transform="translate(127.246094 0)"/>
       <use xlink:href="#DejaVuSans-4d" transform="translate(190.869141 0)"/>
      </g>
     </g>
    </g>
    <g id="xtick_3">
     <g id="line2d_3">
      <g>
       <use xlink:href="#mca8dcb14f1" x="164.234884" y="275.04" style="stroke: #000000; stroke-width: 0.8"/>
      </g>
     </g>
     <g id="text_3">
      <!-- 200M -->
      <g transform="translate(144.833946 292.677812) scale(0.14 -0.14)">
       <defs>
        <path id="DejaVuSans-32" d="M 1228 531 
L 3431 531 
L 3431 0 
L 469 0 
L 469 531 
Q 828 903 1448 1529 
Q 2069 2156 2228 2338 
Q 2531 2678 2651 2914 
Q 2772 3150 2772 3378 
Q 2772 3750 2511 3984 
Q 2250 4219 1831 4219 
Q 1534 4219 1204 4116 
Q 875 4013 500 3803 
L 500 4441 
Q 881 4594 1212 4672 
Q 1544 4750 1819 4750 
Q 2544 4750 2975 4387 
Q 3406 4025 3406 3419 
Q 3406 3131 3298 2873 
Q 3191 2616 2906 2266 
Q 2828 2175 2409 1742 
Q 1991 1309 1228 531 
z
" transform="scale(0.015625)"/>
       </defs>
       <use xlink:href="#DejaVuSans-32"/>
       <use xlink:href="#DejaVuSans-30" transform="translate(63.623047 0)"/>
       <use xlink:href="#DejaVuSans-30" transform="translate(127.246094 0)"/>
       <use xlink:href="#DejaVuSans-4d" transform="translate(190.869141 0)"/>
      </g>
     </g>
    </g>
    <g id="xtick_4">
     <g id="line2d_4">
      <g>
       <use xlink:href="#mca8dcb14f1" x="209.40521" y="275.04" style="stroke: #000000; stroke-width: 0.8"/>
      </g>
     </g>
     <g id="text_4">
      <!-- 300M -->
      <g transform="translate(190.004273 292.677812) scale(0.14 -0.14)">
       <defs>
        <path id="DejaVuSans-33" d="M 2597 2516 
Q 3050 2419 3304 2112 
Q 3559 1806 3559 1356 
Q 3559 666 3084 287 
Q 2609 -91 1734 -91 
Q 1441 -91 1130 -33 
Q 819 25 488 141 
L 488 750 
Q 750 597 1062 519 
Q 1375 441 1716 441 
Q 2309 441 2620 675 
Q 2931 909 2931 1356 
Q 2931 1769 2642 2001 
Q 2353 2234 1838 2234 
L 1294 2234 
L 1294 2753 
L 1863 2753 
Q 2328 2753 2575 2939 
Q 2822 3125 2822 3475 
Q 2822 3834 2567 4026 
Q 2313 4219 1838 4219 
Q 1578 4219 1281 4162 
Q 984 4106 628 3988 
L 628 4550 
Q 988 4650 1302 4700 
Q 1616 4750 1894 4750 
Q 2613 4750 3031 4423 
Q 3450 4097 3450 3541 
Q 3450 3153 3228 2886 
Q 3006 2619 2597 2516 
z
" transform="scale(0.015625)"/>
       </defs>
       <use xlink:href="#DejaVuSans-33"/>
       <use xlink:href="#DejaVuSans-30" transform="translate(63.623047 0)"/>
       <use xlink:href="#DejaVuSans-30" transform="translate(127.246094 0)"/>
       <use xlink:href="#DejaVuSans-4d" transform="translate(190.869141 0)"/>
      </g>
     </g>
    </g>
    <g id="xtick_5">
     <g id="line2d_5">
      <g>
       <use xlink:href="#mca8dcb14f1" x="254.575537" y="275.04" style="stroke: #000000; stroke-width: 0.8"/>
      </g>
     </g>
     <g id="text_5">
      <!-- 400M -->
      <g transform="translate(235.174599 292.677812) scale(0.14 -0.14)">
       <defs>
        <path id="DejaVuSans-34" d="M 2419 4116 
L 825 1625 
L 2419 1625 
L 2419 4116 
z
M 2253 4666 
L 3047 4666 
L 3047 1625 
L 3713 1625 
L 3713 1100 
L 3047 1100 
L 3047 0 
L 2419 0 
L 2419 1100 
L 313 1100 
L 313 1709 
L 2253 4666 
z
" transform="scale(0.015625)"/>
       </defs>
       <use xlink:href="#DejaVuSans-34"/>
       <use xlink:href="#DejaVuSans-30" transform="translate(63.623047 0)"/>
       <use xlink:href="#DejaVuSans-30" transform="translate(127.246094 0)"/>
       <use xlink:href="#DejaVuSans-4d" transform="translate(190.869141 0)"/>
      </g>
     </g>
    </g>
    <g id="xtick_6">
     <g id="line2d_6">
      <g>
       <use xlink:href="#mca8dcb14f1" x="299.745864" y="275.04" style="stroke: #000000; stroke-width: 0.8"/>
      </g>
     </g>
     <g id="text_6">
      <!-- 500M -->
      <g transform="translate(280.344926 292.677812) scale(0.14 -0.14)">
       <defs>
        <path id="DejaVuSans-35" d="M 691 4666 
L 3169 4666 
L 3169 4134 
L 1269 4134 
L 1269 2991 
Q 1406 3038 1543 3061 
Q 1681 3084 1819 3084 
Q 2600 3084 3056 2656 
Q 3513 2228 3513 1497 
Q 3513 744 3044 326 
Q 2575 -91 1722 -91 
Q 1428 -91 1123 -41 
Q 819 9 494 109 
L 494 744 
Q 775 591 1075 516 
Q 1375 441 1709 441 
Q 2250 441 2565 725 
Q 2881 1009 2881 1497 
Q 2881 1984 2565 2268 
Q 2250 2553 1709 2553 
Q 1456 2553 1204 2497 
Q 953 2441 691 2322 
L 691 4666 
z
" transform="scale(0.015625)"/>
       </defs>
       <use xlink:href="#DejaVuSans-35"/>
       <use xlink:href="#DejaVuSans-30" transform="translate(63.623047 0)"/>
       <use xlink:href="#DejaVuSans-30" transform="translate(127.246094 0)"/>
       <use xlink:href="#DejaVuSans-4d" transform="translate(190.869141 0)"/>
      </g>
     </g>
    </g>
    <g id="text_7">
     <!-- Midtrain size -->
     <g transform="translate(139.653098 310.227187) scale(0.14 -0.14)">
      <defs>
       <path id="DejaVuSans-69" d="M 603 3500 
L 1178 3500 
L 1178 0 
L 603 0 
L 603 3500 
z
M 603 4863 
L 1178 4863 
L 1178 4134 
L 603 4134 
L 603 4863 
z
" transform="scale(0.015625)"/>
       <path id="DejaVuSans-64" d="M 2906 2969 
L 2906 4863 
L 3481 4863 
L 3481 0 
L 2906 0 
L 2906 525 
Q 2725 213 2448 61 
Q 2172 -91 1784 -91 
Q 1150 -91 751 415 
Q 353 922 353 1747 
Q 353 2572 751 3078 
Q 1150 3584 1784 3584 
Q 2172 3584 2448 3432 
Q 2725 3281 2906 2969 
z
M 947 1747 
Q 947 1113 1208 752 
Q 1469 391 1925 391 
Q 2381 391 2643 752 
Q 2906 1113 2906 1747 
Q 2906 2381 2643 2742 
Q 2381 3103 1925 3103 
Q 1469 3103 1208 2742 
Q 947 2381 947 1747 
z
" transform="scale(0.015625)"/>
       <path id="DejaVuSans-74" d="M 1172 4494 
L 1172 3500 
L 2356 3500 
L 2356 3053 
L 1172 3053 
L 1172 1153 
Q 1172 725 1289 603 
Q 1406 481 1766 481 
L 2356 481 
L 2356 0 
L 1766 0 
Q 1100 0 847 248 
Q 594 497 594 1153 
L 594 3053 
L 172 3053 
L 172 3500 
L 594 3500 
L 594 4494 
L 1172 4494 
z
" transform="scale(0.015625)"/>
       <path id="DejaVuSans-72" d="M 2631 2963 
Q 2534 3019 2420 3045 
Q 2306 3072 2169 3072 
Q 1681 3072 1420 2755 
Q 1159 2438 1159 1844 
L 1159 0 
L 581 0 
L 581 3500 
L 1159 3500 
L 1159 2956 
Q 1341 3275 1631 3429 
Q 1922 3584 2338 3584 
Q 2397 3584 2469 3576 
Q 2541 3569 2628 3553 
L 2631 2963 
z
" transform="scale(0.015625)"/>
       <path id="DejaVuSans-61" d="M 2194 1759 
Q 1497 1759 1228 1600 
Q 959 1441 959 1056 
Q 959 750 1161 570 
Q 1363 391 1709 391 
Q 2188 391 2477 730 
Q 2766 1069 2766 1631 
L 2766 1759 
L 2194 1759 
z
M 3341 1997 
L 3341 0 
L 2766 0 
L 2766 531 
Q 2569 213 2275 61 
Q 1981 -91 1556 -91 
Q 1019 -91 701 211 
Q 384 513 384 1019 
Q 384 1609 779 1909 
Q 1175 2209 1959 2209 
L 2766 2209 
L 2766 2266 
Q 2766 2663 2505 2880 
Q 2244 3097 1772 3097 
Q 1472 3097 1187 3025 
Q 903 2953 641 2809 
L 641 3341 
Q 956 3463 1253 3523 
Q 1550 3584 1831 3584 
Q 2591 3584 2966 3190 
Q 3341 2797 3341 1997 
z
" transform="scale(0.015625)"/>
       <path id="DejaVuSans-6e" d="M 3513 2113 
L 3513 0 
L 2938 0 
L 2938 2094 
Q 2938 2591 2744 2837 
Q 2550 3084 2163 3084 
Q 1697 3084 1428 2787 
Q 1159 2491 1159 1978 
L 1159 0 
L 581 0 
L 581 3500 
L 1159 3500 
L 1159 2956 
Q 1366 3272 1645 3428 
Q 1925 3584 2291 3584 
Q 2894 3584 3203 3211 
Q 3513 2838 3513 2113 
z
" transform="scale(0.015625)"/>
       <path id="DejaVuSans-20" transform="scale(0.015625)"/>
       <path id="DejaVuSans-73" d="M 2834 3397 
L 2834 2853 
Q 2591 2978 2328 3040 
Q 2066 3103 1784 3103 
Q 1356 3103 1142 2972 
Q 928 2841 928 2578 
Q 928 2378 1081 2264 
Q 1234 2150 1697 2047 
L 1894 2003 
Q 2506 1872 2764 1633 
Q 3022 1394 3022 966 
Q 3022 478 2636 193 
Q 2250 -91 1575 -91 
Q 1294 -91 989 -36 
Q 684 19 347 128 
L 347 722 
Q 666 556 975 473 
Q 1284 391 1588 391 
Q 1994 391 2212 530 
Q 2431 669 2431 922 
Q 2431 1156 2273 1281 
Q 2116 1406 1581 1522 
L 1381 1569 
Q 847 1681 609 1914 
Q 372 2147 372 2553 
Q 372 3047 722 3315 
Q 1072 3584 1716 3584 
Q 2034 3584 2315 3537 
Q 2597 3491 2834 3397 
z
" transform="scale(0.015625)"/>
       <path id="DejaVuSans-7a" d="M 353 3500 
L 3084 3500 
L 3084 2975 
L 922 459 
L 3084 459 
L 3084 0 
L 275 0 
L 275 525 
L 2438 3041 
L 353 3041 
L 353 3500 
z
" transform="scale(0.015625)"/>
       <path id="DejaVuSans-65" d="M 3597 1894 
L 3597 1613 
L 953 1613 
Q 991 1019 1311 708 
Q 1631 397 2203 397 
Q 2534 397 2845 478 
Q 3156 559 3463 722 
L 3463 178 
Q 3153 47 2828 -22 
Q 2503 -91 2169 -91 
Q 1331 -91 842 396 
Q 353 884 353 1716 
Q 353 2575 817 3079 
Q 1281 3584 2069 3584 
Q 2775 3584 3186 3129 
Q 3597 2675 3597 1894 
z
M 3022 2063 
Q 3016 2534 2758 2815 
Q 2500 3097 2075 3097 
Q 1594 3097 1305 2825 
Q 1016 2553 972 2059 
L 3022 2063 
z
" transform="scale(0.015625)"/>
      </defs>
      <use xlink:href="#DejaVuSans-4d"/>
      <use xlink:href="#DejaVuSans-69" transform="translate(86.279297 0)"/>
      <use xlink:href="#DejaVuSans-64" transform="translate(114.0625 0)"/>
      <use xlink:href="#DejaVuSans-74" transform="translate(177.539062 0)"/>
      <use xlink:href="#DejaVuSans-72" transform="translate(216.748047 0)"/>
      <use xlink:href="#DejaVuSans-61" transform="translate(257.861328 0)"/>
      <use xlink:href="#DejaVuSans-69" transform="translate(319.140625 0)"/>
      <use xlink:href="#DejaVuSans-6e" transform="translate(346.923828 0)"/>
      <use xlink:href="#DejaVuSans-20" transform="translate(410.302734 0)"/>
      <use xlink:href="#DejaVuSans-73" transform="translate(442.089844 0)"/>
      <use xlink:href="#DejaVuSans-69" transform="translate(494.189453 0)"/>
      <use xlink:href="#DejaVuSans-7a" transform="translate(521.972656 0)"/>
      <use xlink:href="#DejaVuSans-65" transform="translate(574.462891 0)"/>
     </g>
    </g>
   </g>
   <g id="matplotlib.axis_2">
    <g id="ytick_1">
     <g id="line2d_7">
      <defs>
       <path id="m15a91e80a7" d="M 0 0 
L -3.5 0 
" style="stroke: #000000; stroke-width: 0.8"/>
      </defs>
      <g>
       <use xlink:href="#m15a91e80a7" x="62.866563" y="249.952556" style="stroke: #000000; stroke-width: 0.8"/>
      </g>
     </g>
     <g id="text_8">
      <!-- 20% -->
      <g transform="translate(24.749375 255.271462) scale(0.14 -0.14)">
       <defs>
        <path id="DejaVuSans-25" d="M 4653 2053 
Q 4381 2053 4226 1822 
Q 4072 1591 4072 1178 
Q 4072 772 4226 539 
Q 4381 306 4653 306 
Q 4919 306 5073 539 
Q 5228 772 5228 1178 
Q 5228 1588 5073 1820 
Q 4919 2053 4653 2053 
z
M 4653 2450 
Q 5147 2450 5437 2106 
Q 5728 1763 5728 1178 
Q 5728 594 5436 251 
Q 5144 -91 4653 -91 
Q 4153 -91 3862 251 
Q 3572 594 3572 1178 
Q 3572 1766 3864 2108 
Q 4156 2450 4653 2450 
z
M 1428 4353 
Q 1159 4353 1004 4120 
Q 850 3888 850 3481 
Q 850 3069 1003 2837 
Q 1156 2606 1428 2606 
Q 1700 2606 1854 2837 
Q 2009 3069 2009 3481 
Q 2009 3884 1853 4118 
Q 1697 4353 1428 4353 
z
M 4250 4750 
L 4750 4750 
L 1831 -91 
L 1331 -91 
L 4250 4750 
z
M 1428 4750 
Q 1922 4750 2215 4408 
Q 2509 4066 2509 3481 
Q 2509 2891 2217 2550 
Q 1925 2209 1428 2209 
Q 931 2209 642 2551 
Q 353 2894 353 3481 
Q 353 4063 643 4406 
Q 934 4750 1428 4750 
z
" transform="scale(0.015625)"/>
       </defs>
       <use xlink:href="#DejaVuSans-32"/>
       <use xlink:href="#DejaVuSans-30" transform="translate(63.623047 0)"/>
       <use xlink:href="#DejaVuSans-25" transform="translate(127.246094 0)"/>
      </g>
     </g>
    </g>
    <g id="ytick_2">
     <g id="line2d_8">
      <g>
       <use xlink:href="#m15a91e80a7" x="62.866563" y="212.433945" style="stroke: #000000; stroke-width: 0.8"/>
      </g>
     </g>
     <g id="text_9">
      <!-- 25% -->
      <g transform="translate(24.749375 217.752852) scale(0.14 -0.14)">
       <use xlink:href="#DejaVuSans-32"/>
       <use xlink:href="#DejaVuSans-35" transform="translate(63.623047 0)"/>
       <use xlink:href="#DejaVuSans-25" transform="translate(127.246094 0)"/>
      </g>
     </g>
    </g>
    <g id="ytick_3">
     <g id="line2d_9">
      <g>
       <use xlink:href="#m15a91e80a7" x="62.866563" y="174.915335" style="stroke: #000000; stroke-width: 0.8"/>
      </g>
     </g>
     <g id="text_10">
      <!-- 30% -->
      <g transform="translate(24.749375 180.234241) scale(0.14 -0.14)">
       <use xlink:href="#DejaVuSans-33"/>
       <use xlink:href="#DejaVuSans-30" transform="translate(63.623047 0)"/>
       <use xlink:href="#DejaVuSans-25" transform="translate(127.246094 0)"/>
      </g>
     </g>
    </g>
    <g id="ytick_4">
     <g id="line2d_10">
      <g>
       <use xlink:href="#m15a91e80a7" x="62.866563" y="137.396725" style="stroke: #000000; stroke-width: 0.8"/>
      </g>
     </g>
     <g id="text_11">
      <!-- 35% -->
      <g transform="translate(24.749375 142.715631) scale(0.14 -0.14)">
       <use xlink:href="#DejaVuSans-33"/>
       <use xlink:href="#DejaVuSans-35" transform="translate(63.623047 0)"/>
       <use xlink:href="#DejaVuSans-25" transform="translate(127.246094 0)"/>
      </g>
     </g>
    </g>
    <g id="ytick_5">
     <g id="line2d_11">
      <g>
       <use xlink:href="#m15a91e80a7" x="62.866563" y="99.878114" style="stroke: #000000; stroke-width: 0.8"/>
      </g>
     </g>
     <g id="text_12">
      <!-- 40% -->
      <g transform="translate(24.749375 105.19702) scale(0.14 -0.14)">
       <use xlink:href="#DejaVuSans-34"/>
       <use xlink:href="#DejaVuSans-30" transform="translate(63.623047 0)"/>
       <use xlink:href="#DejaVuSans-25" transform="translate(127.246094 0)"/>
      </g>
     </g>
    </g>
    <g id="ytick_6">
     <g id="line2d_12">
      <g>
       <use xlink:href="#m15a91e80a7" x="62.866563" y="62.359504" style="stroke: #000000; stroke-width: 0.8"/>
      </g>
     </g>
     <g id="text_13">
      <!-- 45% -->
      <g transform="translate(24.749375 67.67841) scale(0.14 -0.14)">
       <use xlink:href="#DejaVuSans-34"/>
       <use xlink:href="#DejaVuSans-35" transform="translate(63.623047 0)"/>
       <use xlink:href="#DejaVuSans-25" transform="translate(127.246094 0)"/>
      </g>
     </g>
    </g>
    <g id="text_14">
     <!-- Accuracy -->
     <g transform="translate(17.837812 196.119375) rotate(-90) scale(0.14 -0.14)">
      <defs>
       <path id="DejaVuSans-41" d="M 2188 4044 
L 1331 1722 
L 3047 1722 
L 2188 4044 
z
M 1831 4666 
L 2547 4666 
L 4325 0 
L 3669 0 
L 3244 1197 
L 1141 1197 
L 716 0 
L 50 0 
L 1831 4666 
z
" transform="scale(0.015625)"/>
       <path id="DejaVuSans-63" d="M 3122 3366 
L 3122 2828 
Q 2878 2963 2633 3030 
Q 2388 3097 2138 3097 
Q 1578 3097 1268 2742 
Q 959 2388 959 1747 
Q 959 1106 1268 751 
Q 1578 397 2138 397 
Q 2388 397 2633 464 
Q 2878 531 3122 666 
L 3122 134 
Q 2881 22 2623 -34 
Q 2366 -91 2075 -91 
Q 1284 -91 818 406 
Q 353 903 353 1747 
Q 353 2603 823 3093 
Q 1294 3584 2113 3584 
Q 2378 3584 2631 3529 
Q 2884 3475 3122 3366 
z
" transform="scale(0.015625)"/>
       <path id="DejaVuSans-75" d="M 544 1381 
L 544 3500 
L 1119 3500 
L 1119 1403 
Q 1119 906 1312 657 
Q 1506 409 1894 409 
Q 2359 409 2629 706 
Q 2900 1003 2900 1516 
L 2900 3500 
L 3475 3500 
L 3475 0 
L 2900 0 
L 2900 538 
Q 2691 219 2414 64 
Q 2138 -91 1772 -91 
Q 1169 -91 856 284 
Q 544 659 544 1381 
z
M 1991 3584 
L 1991 3584 
z
" transform="scale(0.015625)"/>
       <path id="DejaVuSans-79" d="M 2059 -325 
Q 1816 -950 1584 -1140 
Q 1353 -1331 966 -1331 
L 506 -1331 
L 506 -850 
L 844 -850 
Q 1081 -850 1212 -737 
Q 1344 -625 1503 -206 
L 1606 56 
L 191 3500 
L 800 3500 
L 1894 763 
L 2988 3500 
L 3597 3500 
L 2059 -325 
z
" transform="scale(0.015625)"/>
      </defs>
      <use xlink:href="#DejaVuSans-41"/>
      <use xlink:href="#DejaVuSans-63" transform="translate(66.658203 0)"/>
      <use xlink:href="#DejaVuSans-63" transform="translate(121.638672 0)"/>
      <use xlink:href="#DejaVuSans-75" transform="translate(176.619141 0)"/>
      <use xlink:href="#DejaVuSans-72" transform="translate(239.998047 0)"/>
      <use xlink:href="#DejaVuSans-61" transform="translate(281.111328 0)"/>
      <use xlink:href="#DejaVuSans-63" transform="translate(342.390625 0)"/>
      <use xlink:href="#DejaVuSans-79" transform="translate(397.371094 0)"/>
     </g>
    </g>
   </g>
   <g id="line2d_13">
    <path d="M 73.89423 264.96 
L 77.641895 234.945112 
L 81.351641 202.428983 
L 84.998126 195.925757 
L 88.705924 199.570422 
L 92.375395 197.426501 
L 96.055726 194.015718 
L 99.695541 194.540454 
L 103.296798 184.920298 
L 106.980108 186.421042 
L 110.66116 185.420546 
L 114.348332 184.42005 
L 118.024901 182.419057 
L 121.718609 180.418065 
L 125.416199 177.416576 
L 129.135567 171.413598 
L 132.813371 171.413598 
L 136.483842 166.411117 
L 140.144705 167.411613 
L 143.808555 165.41062 
L 147.522677 163.409628 
L 151.176397 158.407146 
L 154.877163 156.406154 
L 158.546902 156.906402 
L 162.216945 148.402184 
L 165.895678 148.902432 
L 169.574325 149.40268 
L 173.253815 146.901439 
L 176.919709 144.400199 
L 180.592932 141.39871 
L 184.24912 144.900447 
L 187.955101 142.399206 
L 191.625407 143.399702 
L 195.347911 139.897965 
L 198.95079 142.399206 
L 202.63391 143.89995 
L 206.295396 144.900447 
L 209.983438 144.400199 
L 213.634468 144.400199 
L 217.310369 143.89995 
L 220.945434 139.397717 
L 224.623096 135.89598 
L 228.272566 138.397221 
L 231.973639 139.397717 
L 235.621459 141.39871 
L 239.281921 141.39871 
L 242.941416 143.89995 
L 246.631269 141.898958 
L 250.343804 141.39871 
L 253.996229 134.395236 
L 257.671298 134.395236 
L 261.371273 132.394243 
L 265.052813 135.395732 
L 268.744751 136.396228 
L 272.392592 137.896973 
L 276.080909 136.896476 
L 279.77366 134.895484 
L 283.429488 133.894988 
L 287.062055 133.394739 
L 290.739069 132.394243 
L 294.44759 131.393747 
" clip-path="url(#p8ec5486474)" style="fill: none; stroke: #009de4; stroke-opacity: 0.5; stroke-width: 3; stroke-linecap: square"/>
   </g>
   <g id="line2d_14">
    <path d="M 73.89423 264.96 
L 77.641895 227.44139 
L 81.351641 199.927742 
L 84.998126 189.922779 
L 88.705924 186.706898 
L 92.375395 185.754045 
L 96.055726 182.419057 
L 99.695541 174.915335 
L 103.296798 169.412605 
L 106.980108 166.911365 
L 110.66116 162.90938 
L 114.348332 163.409628 
L 118.024901 156.906402 
L 121.718609 156.406154 
L 125.416199 152.404169 
L 129.135567 149.902928 
L 132.813371 146.901439 
L 136.483842 142.899454 
L 140.144705 141.898958 
L 143.808555 137.896973 
L 147.522677 137.896973 
L 151.176397 139.397717 
L 154.877163 140.398213 
L 158.546902 138.397221 
L 162.216945 131.893995 
L 165.895678 131.893995 
L 169.574325 128.392258 
L 173.253815 126.891514 
L 176.919709 124.890521 
L 180.592932 125.390769 
L 184.24912 126.891514 
L 187.955101 127.89201 
L 191.625407 130.393251 
L 195.347911 130.893499 
L 198.95079 129.392754 
L 202.63391 129.392754 
L 206.295396 123.890025 
L 209.983438 122.889529 
L 213.634468 121.889032 
L 217.310369 122.889529 
L 220.945434 121.388784 
L 224.623096 119.387792 
L 228.272566 122.889529 
L 231.973639 120.888536 
L 235.621459 118.887543 
L 239.281921 114.885558 
L 242.941416 109.883077 
L 246.631269 103.880099 
L 250.343804 101.378859 
L 253.996229 100.87861 
L 257.671298 101.378859 
L 261.371273 102.379355 
L 265.052813 103.880099 
L 268.744751 104.880596 
L 272.392592 105.881092 
L 276.080909 104.880596 
L 279.77366 102.879603 
L 283.429488 103.880099 
L 287.062055 104.380347 
L 290.739069 106.38134 
L 294.44759 107.381836 
" clip-path="url(#p8ec5486474)" style="fill: none; stroke: #009de4; stroke-width: 3; stroke-linecap: square"/>
   </g>
   <g id="line2d_15">
    <path d="M 73.89423 264.96 
L 77.641895 197.426501 
L 81.351641 189.922779 
L 84.998126 165.910868 
L 88.705924 156.69201 
L 92.375395 139.897965 
L 96.055726 134.668098 
L 99.695541 133.933468 
L 103.296798 131.393747 
L 106.980108 124.390273 
L 110.66116 119.88804 
L 114.348332 115.886055 
L 118.024901 112.884566 
L 121.718609 107.381836 
L 125.416199 105.380844 
L 129.135567 99.878114 
L 132.813371 100.87861 
L 136.483842 100.87861 
L 140.144705 97.376873 
L 143.808555 97.877122 
L 147.522677 92.374392 
L 151.176397 87.371911 
L 154.877163 84.370422 
L 158.546902 83.369926 
L 162.216945 81.368933 
L 165.895678 77.366948 
L 169.574325 77.366948 
L 173.253815 75.365955 
L 176.919709 80.368437 
L 180.592932 77.366948 
L 184.24912 78.367444 
L 187.955101 78.867692 
L 191.625407 78.867692 
L 195.347911 80.368437 
L 198.95079 80.868685 
L 202.63391 82.869677 
L 206.295396 82.369429 
L 209.983438 81.869181 
L 213.634468 83.369926 
L 217.310369 84.87067 
L 220.945434 86.371414 
L 224.623096 82.369429 
L 228.272566 82.369429 
L 231.973639 75.866203 
L 235.621459 77.366948 
L 239.281921 77.366948 
L 242.941416 74.865707 
L 246.631269 74.865707 
L 250.343804 71.864218 
L 253.996229 72.364467 
L 257.671298 74.365459 
L 261.371273 77.366948 
L 265.052813 72.864715 
L 268.744751 71.864218 
L 272.392592 67.862233 
L 276.080909 63.36 
L 279.77366 67.361985 
L 283.429488 68.86273 
L 287.062055 73.364963 
L 290.739069 70.363474 
L 294.44759 70.363474 
" clip-path="url(#p8ec5486474)" style="fill: none; stroke: #0066c0; stroke-width: 3; stroke-linecap: square"/>
   </g>
   <g id="patch_3">
    <path d="M 62.866563 275.04 
L 62.866563 53.28 
" style="fill: none; stroke: #000000; stroke-width: 0.8; stroke-linejoin: miter; stroke-linecap: square"/>
   </g>
   <g id="patch_4">
    <path d="M 305.475258 275.04 
L 305.475258 53.28 
" style="fill: none; stroke: #000000; stroke-width: 0.8; stroke-linejoin: miter; stroke-linecap: square"/>
   </g>
   <g id="patch_5">
    <path d="M 62.866562 275.04 
L 305.475258 275.04 
" style="fill: none; stroke: #000000; stroke-width: 0.8; stroke-linejoin: miter; stroke-linecap: square"/>
   </g>
   <g id="patch_6">
    <path d="M 62.866562 53.28 
L 305.475258 53.28 
" style="fill: none; stroke: #000000; stroke-width: 0.8; stroke-linejoin: miter; stroke-linecap: square"/>
   </g>
   <g id="text_15">
    <!-- Knowledge: internal QA eval -->
    <g transform="translate(84.815754 47.28) scale(0.14 -0.14)">
     <defs>
      <path id="DejaVuSans-4b" d="M 628 4666 
L 1259 4666 
L 1259 2694 
L 3353 4666 
L 4166 4666 
L 1850 2491 
L 4331 0 
L 3500 0 
L 1259 2247 
L 1259 0 
L 628 0 
L 628 4666 
z
" transform="scale(0.015625)"/>
      <path id="DejaVuSans-6f" d="M 1959 3097 
Q 1497 3097 1228 2736 
Q 959 2375 959 1747 
Q 959 1119 1226 758 
Q 1494 397 1959 397 
Q 2419 397 2687 759 
Q 2956 1122 2956 1747 
Q 2956 2369 2687 2733 
Q 2419 3097 1959 3097 
z
M 1959 3584 
Q 2709 3584 3137 3096 
Q 3566 2609 3566 1747 
Q 3566 888 3137 398 
Q 2709 -91 1959 -91 
Q 1206 -91 779 398 
Q 353 888 353 1747 
Q 353 2609 779 3096 
Q 1206 3584 1959 3584 
z
" transform="scale(0.015625)"/>
      <path id="DejaVuSans-77" d="M 269 3500 
L 844 3500 
L 1563 769 
L 2278 3500 
L 2956 3500 
L 3675 769 
L 4391 3500 
L 4966 3500 
L 4050 0 
L 3372 0 
L 2619 2869 
L 1863 0 
L 1184 0 
L 269 3500 
z
" transform="scale(0.015625)"/>
      <path id="DejaVuSans-6c" d="M 603 4863 
L 1178 4863 
L 1178 0 
L 603 0 
L 603 4863 
z
" transform="scale(0.015625)"/>
      <path id="DejaVuSans-67" d="M 2906 1791 
Q 2906 2416 2648 2759 
Q 2391 3103 1925 3103 
Q 1463 3103 1205 2759 
Q 947 2416 947 1791 
Q 947 1169 1205 825 
Q 1463 481 1925 481 
Q 2391 481 2648 825 
Q 2906 1169 2906 1791 
z
M 3481 434 
Q 3481 -459 3084 -895 
Q 2688 -1331 1869 -1331 
Q 1566 -1331 1297 -1286 
Q 1028 -1241 775 -1147 
L 775 -588 
Q 1028 -725 1275 -790 
Q 1522 -856 1778 -856 
Q 2344 -856 2625 -561 
Q 2906 -266 2906 331 
L 2906 616 
Q 2728 306 2450 153 
Q 2172 0 1784 0 
Q 1141 0 747 490 
Q 353 981 353 1791 
Q 353 2603 747 3093 
Q 1141 3584 1784 3584 
Q 2172 3584 2450 3431 
Q 2728 3278 2906 2969 
L 2906 3500 
L 3481 3500 
L 3481 434 
z
" transform="scale(0.015625)"/>
      <path id="DejaVuSans-3a" d="M 750 794 
L 1409 794 
L 1409 0 
L 750 0 
L 750 794 
z
M 750 3309 
L 1409 3309 
L 1409 2516 
L 750 2516 
L 750 3309 
z
" transform="scale(0.015625)"/>
      <path id="DejaVuSans-51" d="M 2522 4238 
Q 1834 4238 1429 3725 
Q 1025 3213 1025 2328 
Q 1025 1447 1429 934 
Q 1834 422 2522 422 
Q 3209 422 3611 934 
Q 4013 1447 4013 2328 
Q 4013 3213 3611 3725 
Q 3209 4238 2522 4238 
z
M 3406 84 
L 4238 -825 
L 3475 -825 
L 2784 -78 
Q 2681 -84 2626 -87 
Q 2572 -91 2522 -91 
Q 1538 -91 948 567 
Q 359 1225 359 2328 
Q 359 3434 948 4092 
Q 1538 4750 2522 4750 
Q 3503 4750 4090 4092 
Q 4678 3434 4678 2328 
Q 4678 1516 4351 937 
Q 4025 359 3406 84 
z
" transform="scale(0.015625)"/>
      <path id="DejaVuSans-76" d="M 191 3500 
L 800 3500 
L 1894 563 
L 2988 3500 
L 3597 3500 
L 2284 0 
L 1503 0 
L 191 3500 
z
" transform="scale(0.015625)"/>
     </defs>
     <use xlink:href="#DejaVuSans-4b"/>
     <use xlink:href="#DejaVuSans-6e" transform="translate(65.576172 0)"/>
     <use xlink:href="#DejaVuSans-6f" transform="translate(128.955078 0)"/>
     <use xlink:href="#DejaVuSans-77" transform="translate(190.136719 0)"/>
     <use xlink:href="#DejaVuSans-6c" transform="translate(271.923828 0)"/>
     <use xlink:href="#DejaVuSans-65" transform="translate(299.707031 0)"/>
     <use xlink:href="#DejaVuSans-64" transform="translate(361.230469 0)"/>
     <use xlink:href="#DejaVuSans-67" transform="translate(424.707031 0)"/>
     <use xlink:href="#DejaVuSans-65" transform="translate(488.183594 0)"/>
     <use xlink:href="#DejaVuSans-3a" transform="translate(549.707031 0)"/>
     <use xlink:href="#DejaVuSans-20" transform="translate(583.398438 0)"/>
     <use xlink:href="#DejaVuSans-69" transform="translate(615.185547 0)"/>
     <use xlink:href="#DejaVuSans-6e" transform="translate(642.96875 0)"/>
     <use xlink:href="#DejaVuSans-74" transform="translate(706.347656 0)"/>
     <use xlink:href="#DejaVuSans-65" transform="translate(745.556641 0)"/>
     <use xlink:href="#DejaVuSans-72" transform="translate(807.080078 0)"/>
     <use xlink:href="#DejaVuSans-6e" transform="translate(846.443359 0)"/>
     <use xlink:href="#DejaVuSans-61" transform="translate(909.822266 0)"/>
     <use xlink:href="#DejaVuSans-6c" transform="translate(971.101562 0)"/>
     <use xlink:href="#DejaVuSans-20" transform="translate(998.884766 0)"/>
     <use xlink:href="#DejaVuSans-51" transform="translate(1030.671875 0)"/>
     <use xlink:href="#DejaVuSans-41" transform="translate(1109.382812 0)"/>
     <use xlink:href="#DejaVuSans-20" transform="translate(1177.791016 0)"/>
     <use xlink:href="#DejaVuSans-65" transform="translate(1209.578125 0)"/>
     <use xlink:href="#DejaVuSans-76" transform="translate(1271.101562 0)"/>
     <use xlink:href="#DejaVuSans-61" transform="translate(1330.28125 0)"/>
     <use xlink:href="#DejaVuSans-6c" transform="translate(1391.560547 0)"/>
    </g>
   </g>
  </g>
  <g id="axes_2">
   <g id="patch_7">
    <path d="M 378.257867 275.04 
L 620.866563 275.04 
L 620.866563 53.28 
L 378.257867 53.28 
z
" style="fill: #ffffff"/>
   </g>
   <g id="PathCollection_4">
    <g clip-path="url(#p7624d5ec34)">
     <use xlink:href="#mc0d23ce305" x="389.285535" y="63.36" style="fill: #009de4; fill-opacity: 0.5; stroke: #009de4; stroke-opacity: 0.5"/>
     <use xlink:href="#mc0d23ce305" x="609.838895" y="212.280127" style="fill: #009de4; fill-opacity: 0.5; stroke: #009de4; stroke-opacity: 0.5"/>
    </g>
   </g>
   <g id="PathCollection_5">
    <g clip-path="url(#p7624d5ec34)">
     <use xlink:href="#m836da3fea7" x="389.285535" y="63.36" style="fill: #009de4; stroke: #009de4"/>
     <use xlink:href="#m836da3fea7" x="609.838895" y="222.228664" style="fill: #009de4; stroke: #009de4"/>
    </g>
   </g>
   <g id="PathCollection_6">
    <g clip-path="url(#p7624d5ec34)">
     <use xlink:href="#mc57f89175a" x="389.285535" y="63.36" style="fill: #0066c0; stroke: #0066c0"/>
     <use xlink:href="#mc57f89175a" x="609.838895" y="264.96" style="fill: #0066c0; stroke: #0066c0"/>
    </g>
   </g>
   <g id="matplotlib.axis_3">
    <g id="xtick_7">
     <g id="line2d_16">
      <g>
       <use xlink:href="#mca8dcb14f1" x="389.285535" y="275.04" style="stroke: #000000; stroke-width: 0.8"/>
      </g>
     </g>
     <g id="text_16">
      <!-- 0M -->
      <g transform="translate(378.792097 292.677812) scale(0.14 -0.14)">
       <use xlink:href="#DejaVuSans-30"/>
       <use xlink:href="#DejaVuSans-4d" transform="translate(63.623047 0)"/>
      </g>
     </g>
    </g>
    <g id="xtick_8">
     <g id="line2d_17">
      <g>
       <use xlink:href="#mca8dcb14f1" x="434.455861" y="275.04" style="stroke: #000000; stroke-width: 0.8"/>
      </g>
     </g>
     <g id="text_17">
      <!-- 100M -->
      <g transform="translate(415.054924 292.677812) scale(0.14 -0.14)">
       <use xlink:href="#DejaVuSans-31"/>
       <use xlink:href="#DejaVuSans-30" transform="translate(63.623047 0)"/>
       <use xlink:href="#DejaVuSans-30" transform="translate(127.246094 0)"/>
       <use xlink:href="#DejaVuSans-4d" transform="translate(190.869141 0)"/>
      </g>
     </g>
    </g>
    <g id="xtick_9">
     <g id="line2d_18">
      <g>
       <use xlink:href="#mca8dcb14f1" x="479.626188" y="275.04" style="stroke: #000000; stroke-width: 0.8"/>
      </g>
     </g>
     <g id="text_18">
      <!-- 200M -->
      <g transform="translate(460.225251 292.677812) scale(0.14 -0.14)">
       <use xlink:href="#DejaVuSans-32"/>
       <use xlink:href="#DejaVuSans-30" transform="translate(63.623047 0)"/>
       <use xlink:href="#DejaVuSans-30" transform="translate(127.246094 0)"/>
       <use xlink:href="#DejaVuSans-4d" transform="translate(190.869141 0)"/>
      </g>
     </g>
    </g>
    <g id="xtick_10">
     <g id="line2d_19">
      <g>
       <use xlink:href="#mca8dcb14f1" x="524.796515" y="275.04" style="stroke: #000000; stroke-width: 0.8"/>
      </g>
     </g>
     <g id="text_19">
      <!-- 300M -->
      <g transform="translate(505.395577 292.677812) scale(0.14 -0.14)">
       <use xlink:href="#DejaVuSans-33"/>
       <use xlink:href="#DejaVuSans-30" transform="translate(63.623047 0)"/>
       <use xlink:href="#DejaVuSans-30" transform="translate(127.246094 0)"/>
       <use xlink:href="#DejaVuSans-4d" transform="translate(190.869141 0)"/>
      </g>
     </g>
    </g>
    <g id="xtick_11">
     <g id="line2d_20">
      <g>
       <use xlink:href="#mca8dcb14f1" x="569.966841" y="275.04" style="stroke: #000000; stroke-width: 0.8"/>
      </g>
     </g>
     <g id="text_20">
      <!-- 400M -->
      <g transform="translate(550.565904 292.677812) scale(0.14 -0.14)">
       <use xlink:href="#DejaVuSans-34"/>
       <use xlink:href="#DejaVuSans-30" transform="translate(63.623047 0)"/>
       <use xlink:href="#DejaVuSans-30" transform="translate(127.246094 0)"/>
       <use xlink:href="#DejaVuSans-4d" transform="translate(190.869141 0)"/>
      </g>
     </g>
    </g>
    <g id="xtick_12">
     <g id="line2d_21">
      <g>
       <use xlink:href="#mca8dcb14f1" x="615.137168" y="275.04" style="stroke: #000000; stroke-width: 0.8"/>
      </g>
     </g>
     <g id="text_21">
      <!-- 500M -->
      <g transform="translate(595.73623 292.677812) scale(0.14 -0.14)">
       <use xlink:href="#DejaVuSans-35"/>
       <use xlink:href="#DejaVuSans-30" transform="translate(63.623047 0)"/>
       <use xlink:href="#DejaVuSans-30" transform="translate(127.246094 0)"/>
       <use xlink:href="#DejaVuSans-4d" transform="translate(190.869141 0)"/>
      </g>
     </g>
    </g>
    <g id="text_22">
     <!-- Midtrain size -->
     <g transform="translate(455.044402 310.227187) scale(0.14 -0.14)">
      <use xlink:href="#DejaVuSans-4d"/>
      <use xlink:href="#DejaVuSans-69" transform="translate(86.279297 0)"/>
      <use xlink:href="#DejaVuSans-64" transform="translate(114.0625 0)"/>
      <use xlink:href="#DejaVuSans-74" transform="translate(177.539062 0)"/>
      <use xlink:href="#DejaVuSans-72" transform="translate(216.748047 0)"/>
      <use xlink:href="#DejaVuSans-61" transform="translate(257.861328 0)"/>
      <use xlink:href="#DejaVuSans-69" transform="translate(319.140625 0)"/>
      <use xlink:href="#DejaVuSans-6e" transform="translate(346.923828 0)"/>
      <use xlink:href="#DejaVuSans-20" transform="translate(410.302734 0)"/>
      <use xlink:href="#DejaVuSans-73" transform="translate(442.089844 0)"/>
      <use xlink:href="#DejaVuSans-69" transform="translate(494.189453 0)"/>
      <use xlink:href="#DejaVuSans-7a" transform="translate(521.972656 0)"/>
      <use xlink:href="#DejaVuSans-65" transform="translate(574.462891 0)"/>
     </g>
    </g>
   </g>
   <g id="matplotlib.axis_4">
    <g id="ytick_7">
     <g id="line2d_22">
      <g>
       <use xlink:href="#m15a91e80a7" x="378.257867" y="255.579951" style="stroke: #000000; stroke-width: 0.8"/>
      </g>
     </g>
     <g id="text_23">
      <!-- 60% -->
      <g transform="translate(340.140679 260.898857) scale(0.14 -0.14)">
       <defs>
        <path id="DejaVuSans-36" d="M 2113 2584 
Q 1688 2584 1439 2293 
Q 1191 2003 1191 1497 
Q 1191 994 1439 701 
Q 1688 409 2113 409 
Q 2538 409 2786 701 
Q 3034 994 3034 1497 
Q 3034 2003 2786 2293 
Q 2538 2584 2113 2584 
z
M 3366 4563 
L 3366 3988 
Q 3128 4100 2886 4159 
Q 2644 4219 2406 4219 
Q 1781 4219 1451 3797 
Q 1122 3375 1075 2522 
Q 1259 2794 1537 2939 
Q 1816 3084 2150 3084 
Q 2853 3084 3261 2657 
Q 3669 2231 3669 1497 
Q 3669 778 3244 343 
Q 2819 -91 2113 -91 
Q 1303 -91 875 529 
Q 447 1150 447 2328 
Q 447 3434 972 4092 
Q 1497 4750 2381 4750 
Q 2619 4750 2861 4703 
Q 3103 4656 3366 4563 
z
" transform="scale(0.015625)"/>
       </defs>
       <use xlink:href="#DejaVuSans-36"/>
       <use xlink:href="#DejaVuSans-30" transform="translate(63.623047 0)"/>
       <use xlink:href="#DejaVuSans-25" transform="translate(127.246094 0)"/>
      </g>
     </g>
    </g>
    <g id="ytick_8">
     <g id="line2d_23">
      <g>
       <use xlink:href="#m15a91e80a7" x="378.257867" y="217.135961" style="stroke: #000000; stroke-width: 0.8"/>
      </g>
     </g>
     <g id="text_24">
      <!-- 65% -->
      <g transform="translate(340.140679 222.454867) scale(0.14 -0.14)">
       <use xlink:href="#DejaVuSans-36"/>
       <use xlink:href="#DejaVuSans-35" transform="translate(63.623047 0)"/>
       <use xlink:href="#DejaVuSans-25" transform="translate(127.246094 0)"/>
      </g>
     </g>
    </g>
    <g id="ytick_9">
     <g id="line2d_24">
      <g>
       <use xlink:href="#m15a91e80a7" x="378.257867" y="178.69197" style="stroke: #000000; stroke-width: 0.8"/>
      </g>
     </g>
     <g id="text_25">
      <!-- 70% -->
      <g transform="translate(340.140679 184.010877) scale(0.14 -0.14)">
       <defs>
        <path id="DejaVuSans-37" d="M 525 4666 
L 3525 4666 
L 3525 4397 
L 1831 0 
L 1172 0 
L 2766 4134 
L 525 4134 
L 525 4666 
z
" transform="scale(0.015625)"/>
       </defs>
       <use xlink:href="#DejaVuSans-37"/>
       <use xlink:href="#DejaVuSans-30" transform="translate(63.623047 0)"/>
       <use xlink:href="#DejaVuSans-25" transform="translate(127.246094 0)"/>
      </g>
     </g>
    </g>
    <g id="ytick_10">
     <g id="line2d_25">
      <g>
       <use xlink:href="#m15a91e80a7" x="378.257867" y="140.24798" style="stroke: #000000; stroke-width: 0.8"/>
      </g>
     </g>
     <g id="text_26">
      <!-- 75% -->
      <g transform="translate(340.140679 145.566887) scale(0.14 -0.14)">
       <use xlink:href="#DejaVuSans-37"/>
       <use xlink:href="#DejaVuSans-35" transform="translate(63.623047 0)"/>
       <use xlink:href="#DejaVuSans-25" transform="translate(127.246094 0)"/>
      </g>
     </g>
    </g>
    <g id="ytick_11">
     <g id="line2d_26">
      <g>
       <use xlink:href="#m15a91e80a7" x="378.257867" y="101.80399" style="stroke: #000000; stroke-width: 0.8"/>
      </g>
     </g>
     <g id="text_27">
      <!-- 80% -->
      <g transform="translate(340.140679 107.122896) scale(0.14 -0.14)">
       <defs>
        <path id="DejaVuSans-38" d="M 2034 2216 
Q 1584 2216 1326 1975 
Q 1069 1734 1069 1313 
Q 1069 891 1326 650 
Q 1584 409 2034 409 
Q 2484 409 2743 651 
Q 3003 894 3003 1313 
Q 3003 1734 2745 1975 
Q 2488 2216 2034 2216 
z
M 1403 2484 
Q 997 2584 770 2862 
Q 544 3141 544 3541 
Q 544 4100 942 4425 
Q 1341 4750 2034 4750 
Q 2731 4750 3128 4425 
Q 3525 4100 3525 3541 
Q 3525 3141 3298 2862 
Q 3072 2584 2669 2484 
Q 3125 2378 3379 2068 
Q 3634 1759 3634 1313 
Q 3634 634 3220 271 
Q 2806 -91 2034 -91 
Q 1263 -91 848 271 
Q 434 634 434 1313 
Q 434 1759 690 2068 
Q 947 2378 1403 2484 
z
M 1172 3481 
Q 1172 3119 1398 2916 
Q 1625 2713 2034 2713 
Q 2441 2713 2670 2916 
Q 2900 3119 2900 3481 
Q 2900 3844 2670 4047 
Q 2441 4250 2034 4250 
Q 1625 4250 1398 4047 
Q 1172 3844 1172 3481 
z
" transform="scale(0.015625)"/>
       </defs>
       <use xlink:href="#DejaVuSans-38"/>
       <use xlink:href="#DejaVuSans-30" transform="translate(63.623047 0)"/>
       <use xlink:href="#DejaVuSans-25" transform="translate(127.246094 0)"/>
      </g>
     </g>
    </g>
    <g id="ytick_12">
     <g id="line2d_27">
      <g>
       <use xlink:href="#m15a91e80a7" x="378.257867" y="63.36" style="stroke: #000000; stroke-width: 0.8"/>
      </g>
     </g>
     <g id="text_28">
      <!-- 85% -->
      <g transform="translate(340.140679 68.678906) scale(0.14 -0.14)">
       <use xlink:href="#DejaVuSans-38"/>
       <use xlink:href="#DejaVuSans-35" transform="translate(63.623047 0)"/>
       <use xlink:href="#DejaVuSans-25" transform="translate(127.246094 0)"/>
      </g>
     </g>
    </g>
    <g id="text_29">
     <!-- Accuracy (strict prompt) -->
     <g transform="translate(333.229117 249.290937) rotate(-90) scale(0.14 -0.14)">
      <defs>
       <path id="DejaVuSans-28" d="M 1984 4856 
Q 1566 4138 1362 3434 
Q 1159 2731 1159 2009 
Q 1159 1288 1364 580 
Q 1569 -128 1984 -844 
L 1484 -844 
Q 1016 -109 783 600 
Q 550 1309 550 2009 
Q 550 2706 781 3412 
Q 1013 4119 1484 4856 
L 1984 4856 
z
" transform="scale(0.015625)"/>
       <path id="DejaVuSans-70" d="M 1159 525 
L 1159 -1331 
L 581 -1331 
L 581 3500 
L 1159 3500 
L 1159 2969 
Q 1341 3281 1617 3432 
Q 1894 3584 2278 3584 
Q 2916 3584 3314 3078 
Q 3713 2572 3713 1747 
Q 3713 922 3314 415 
Q 2916 -91 2278 -91 
Q 1894 -91 1617 61 
Q 1341 213 1159 525 
z
M 3116 1747 
Q 3116 2381 2855 2742 
Q 2594 3103 2138 3103 
Q 1681 3103 1420 2742 
Q 1159 2381 1159 1747 
Q 1159 1113 1420 752 
Q 1681 391 2138 391 
Q 2594 391 2855 752 
Q 3116 1113 3116 1747 
z
" transform="scale(0.015625)"/>
       <path id="DejaVuSans-6d" d="M 3328 2828 
Q 3544 3216 3844 3400 
Q 4144 3584 4550 3584 
Q 5097 3584 5394 3201 
Q 5691 2819 5691 2113 
L 5691 0 
L 5113 0 
L 5113 2094 
Q 5113 2597 4934 2840 
Q 4756 3084 4391 3084 
Q 3944 3084 3684 2787 
Q 3425 2491 3425 1978 
L 3425 0 
L 2847 0 
L 2847 2094 
Q 2847 2600 2669 2842 
Q 2491 3084 2119 3084 
Q 1678 3084 1418 2786 
Q 1159 2488 1159 1978 
L 1159 0 
L 581 0 
L 581 3500 
L 1159 3500 
L 1159 2956 
Q 1356 3278 1631 3431 
Q 1906 3584 2284 3584 
Q 2666 3584 2933 3390 
Q 3200 3197 3328 2828 
z
" transform="scale(0.015625)"/>
       <path id="DejaVuSans-29" d="M 513 4856 
L 1013 4856 
Q 1481 4119 1714 3412 
Q 1947 2706 1947 2009 
Q 1947 1309 1714 600 
Q 1481 -109 1013 -844 
L 513 -844 
Q 928 -128 1133 580 
Q 1338 1288 1338 2009 
Q 1338 2731 1133 3434 
Q 928 4138 513 4856 
z
" transform="scale(0.015625)"/>
      </defs>
      <use xlink:href="#DejaVuSans-41"/>
      <use xlink:href="#DejaVuSans-63" transform="translate(66.658203 0)"/>
      <use xlink:href="#DejaVuSans-63" transform="translate(121.638672 0)"/>
      <use xlink:href="#DejaVuSans-75" transform="translate(176.619141 0)"/>
      <use xlink:href="#DejaVuSans-72" transform="translate(239.998047 0)"/>
      <use xlink:href="#DejaVuSans-61" transform="translate(281.111328 0)"/>
      <use xlink:href="#DejaVuSans-63" transform="translate(342.390625 0)"/>
      <use xlink:href="#DejaVuSans-79" transform="translate(397.371094 0)"/>
      <use xlink:href="#DejaVuSans-20" transform="translate(456.550781 0)"/>
      <use xlink:href="#DejaVuSans-28" transform="translate(488.337891 0)"/>
      <use xlink:href="#DejaVuSans-73" transform="translate(527.351562 0)"/>
      <use xlink:href="#DejaVuSans-74" transform="translate(579.451172 0)"/>
      <use xlink:href="#DejaVuSans-72" transform="translate(618.660156 0)"/>
      <use xlink:href="#DejaVuSans-69" transform="translate(659.773438 0)"/>
      <use xlink:href="#DejaVuSans-63" transform="translate(687.556641 0)"/>
      <use xlink:href="#DejaVuSans-74" transform="translate(742.537109 0)"/>
      <use xlink:href="#DejaVuSans-20" transform="translate(781.746094 0)"/>
      <use xlink:href="#DejaVuSans-70" transform="translate(813.533203 0)"/>
      <use xlink:href="#DejaVuSans-72" transform="translate(877.009766 0)"/>
      <use xlink:href="#DejaVuSans-6f" transform="translate(915.873047 0)"/>
      <use xlink:href="#DejaVuSans-6d" transform="translate(977.054688 0)"/>
      <use xlink:href="#DejaVuSans-70" transform="translate(1074.466797 0)"/>
      <use xlink:href="#DejaVuSans-74" transform="translate(1137.943359 0)"/>
      <use xlink:href="#DejaVuSans-29" transform="translate(1177.152344 0)"/>
     </g>
    </g>
   </g>
   <g id="line2d_28">
    <path d="M 389.285535 63.36 
L 393.0332 85.886331 
L 396.742945 95.834868 
L 400.38943 103.793698 
L 404.097229 106.59553 
L 407.766699 109.573324 
L 411.447031 114.439924 
L 415.086845 118.355732 
L 418.688102 122.648544 
L 422.371412 126.248967 
L 426.052465 130.228382 
L 429.739637 134.586789 
L 433.416205 139.987423 
L 437.109914 141.598139 
L 440.807504 145.009066 
L 444.526872 148.609489 
L 448.204675 154.389115 
L 451.875146 160.547734 
L 455.53601 167.369588 
L 459.19986 172.770222 
L 462.913982 177.318125 
L 466.567702 178.644596 
L 470.268468 181.866027 
L 473.938207 185.561198 
L 477.60825 187.929898 
L 481.286982 190.109101 
L 484.96563 191.909313 
L 488.645119 192.288305 
L 492.311013 195.983476 
L 495.984236 199.868142 
L 499.640424 201.85785 
L 503.346406 202.33159 
L 507.016712 201.289362 
L 510.739215 197.025703 
L 514.342094 196.551963 
L 518.025214 197.309947 
L 521.686701 197.688939 
L 525.374742 198.636419 
L 529.025773 199.583898 
L 532.701674 202.426338 
L 536.336739 203.089573 
L 540.014401 204.131801 
L 543.66387 204.416045 
L 547.364943 203.468565 
L 551.012763 201.952598 
L 554.673226 201.85785 
L 558.33272 201.289362 
L 562.022573 203.658061 
L 565.735108 206.595249 
L 569.387533 205.647769 
L 573.062603 206.311005 
L 576.762577 205.932013 
L 580.444117 205.553021 
L 584.136055 204.889785 
L 587.783896 203.658061 
L 591.472213 203.658061 
L 595.164964 203.279069 
L 598.820792 206.216257 
L 602.45336 209.627184 
L 606.130373 212.185379 
L 609.838895 212.280127 
" clip-path="url(#p7624d5ec34)" style="fill: none; stroke: #009de4; stroke-opacity: 0.5; stroke-width: 3; stroke-linecap: square"/>
   </g>
   <g id="line2d_29">
    <path d="M 389.285535 63.36 
L 393.0332 95.834868 
L 396.742945 92.518689 
L 400.38943 98.393063 
L 404.097229 108.219781 
L 407.766699 113.836983 
L 411.447031 119.866399 
L 415.086845 126.117778 
L 418.688102 129.470398 
L 422.371412 132.123342 
L 426.052465 137.239732 
L 429.739637 142.545619 
L 433.416205 146.904025 
L 437.109914 149.272725 
L 440.807504 154.957603 
L 444.526872 158.273782 
L 448.204675 163.295425 
L 451.875146 166.516856 
L 455.53601 167.369588 
L 459.19986 169.738287 
L 462.913982 169.264547 
L 466.567702 169.927783 
L 470.268468 170.875263 
L 473.938207 173.717702 
L 477.60825 175.138921 
L 481.286982 176.465393 
L 484.96563 177.507621 
L 488.645119 178.549848 
L 492.311013 181.202792 
L 495.984236 179.307832 
L 499.640424 178.360352 
L 503.346406 177.697117 
L 507.016712 177.507621 
L 510.739215 178.360352 
L 514.342094 180.255312 
L 518.025214 183.097751 
L 521.686701 184.139979 
L 525.374742 185.94019 
L 529.025773 188.403638 
L 532.701674 192.383053 
L 536.336739 193.709524 
L 540.014401 195.130744 
L 543.66387 197.120451 
L 547.364943 199.773394 
L 551.012763 201.289362 
L 554.673226 203.373817 
L 558.33272 206.026761 
L 562.022573 208.963948 
L 565.735108 213.890842 
L 569.387533 214.269834 
L 573.062603 216.733282 
L 576.762577 218.154501 
L 580.444117 217.586013 
L 584.136055 216.922778 
L 587.783896 215.975298 
L 591.472213 217.112274 
L 595.164964 216.638534 
L 598.820792 219.196729 
L 602.45336 218.817737 
L 606.130373 220.238957 
L 609.838895 222.228664 
" clip-path="url(#p7624d5ec34)" style="fill: none; stroke: #009de4; stroke-width: 3; stroke-linecap: square"/>
   </g>
   <g id="line2d_30">
    <path d="M 389.285535 63.36 
L 393.0332 142.735115 
L 396.742945 157.89479 
L 400.38943 155.526091 
L 404.097229 162.429158 
L 407.766699 170.054114 
L 411.447031 174.906358 
L 415.086845 180.124122 
L 418.688102 182.150271 
L 422.371412 186.034938 
L 426.052465 189.919605 
L 429.739637 193.614776 
L 433.416205 199.204907 
L 437.109914 202.710582 
L 440.807504 206.121509 
L 444.526872 212.943363 
L 448.204675 216.35429 
L 451.875146 222.133916 
L 455.53601 224.123624 
L 459.19986 229.524258 
L 462.913982 234.830145 
L 466.567702 233.503673 
L 470.268468 236.44086 
L 473.938207 238.620063 
L 477.60825 238.999055 
L 481.286982 240.041283 
L 484.96563 240.136031 
L 488.645119 240.230779 
L 492.311013 243.357462 
L 495.984236 242.315234 
L 499.640424 240.325527 
L 503.346406 239.662291 
L 507.016712 236.156616 
L 510.739215 236.061868 
L 514.342094 235.01964 
L 518.025214 232.271949 
L 521.686701 234.735397 
L 525.374742 234.451153 
L 529.025773 236.251364 
L 532.701674 239.188551 
L 536.336739 241.178259 
L 540.014401 243.357462 
L 543.66387 244.210194 
L 547.364943 246.105153 
L 551.012763 246.389397 
L 554.673226 247.526373 
L 558.33272 249.326584 
L 562.022573 254.158731 
L 565.735108 255.106211 
L 569.387533 257.380162 
L 573.062603 260.791089 
L 576.762577 260.506845 
L 580.444117 262.686049 
L 584.136055 260.317349 
L 587.783896 259.36987 
L 591.472213 260.033105 
L 595.164964 259.275122 
L 598.820792 260.696341 
L 602.45336 260.127853 
L 606.130373 264.296764 
L 609.838895 264.96 
" clip-path="url(#p7624d5ec34)" style="fill: none; stroke: #0066c0; stroke-width: 3; stroke-linecap: square"/>
   </g>
   <g id="patch_8">
    <path d="M 378.257867 275.04 
L 378.257867 53.28 
" style="fill: none; stroke: #000000; stroke-width: 0.8; stroke-linejoin: miter; stroke-linecap: square"/>
   </g>
   <g id="patch_9">
    <path d="M 620.866563 275.04 
L 620.866563 53.28 
" style="fill: none; stroke: #000000; stroke-width: 0.8; stroke-linejoin: miter; stroke-linecap: square"/>
   </g>
   <g id="patch_10">
    <path d="M 378.257867 275.04 
L 620.866563 275.04 
" style="fill: none; stroke: #000000; stroke-width: 0.8; stroke-linejoin: miter; stroke-linecap: square"/>
   </g>
   <g id="patch_11">
    <path d="M 378.257867 53.28 
L 620.866563 53.28 
" style="fill: none; stroke: #000000; stroke-width: 0.8; stroke-linejoin: miter; stroke-linecap: square"/>
   </g>
   <g id="text_30">
    <!-- Chat: instruction following (IF-eval) -->
    <g transform="translate(376.596277 47.28) scale(0.14 -0.14)">
     <defs>
      <path id="DejaVuSans-43" d="M 4122 4306 
L 4122 3641 
Q 3803 3938 3442 4084 
Q 3081 4231 2675 4231 
Q 1875 4231 1450 3742 
Q 1025 3253 1025 2328 
Q 1025 1406 1450 917 
Q 1875 428 2675 428 
Q 3081 428 3442 575 
Q 3803 722 4122 1019 
L 4122 359 
Q 3791 134 3420 21 
Q 3050 -91 2638 -91 
Q 1578 -91 968 557 
Q 359 1206 359 2328 
Q 359 3453 968 4101 
Q 1578 4750 2638 4750 
Q 3056 4750 3426 4639 
Q 3797 4528 4122 4306 
z
" transform="scale(0.015625)"/>
      <path id="DejaVuSans-68" d="M 3513 2113 
L 3513 0 
L 2938 0 
L 2938 2094 
Q 2938 2591 2744 2837 
Q 2550 3084 2163 3084 
Q 1697 3084 1428 2787 
Q 1159 2491 1159 1978 
L 1159 0 
L 581 0 
L 581 4863 
L 1159 4863 
L 1159 2956 
Q 1366 3272 1645 3428 
Q 1925 3584 2291 3584 
Q 2894 3584 3203 3211 
Q 3513 2838 3513 2113 
z
" transform="scale(0.015625)"/>
      <path id="DejaVuSans-66" d="M 2375 4863 
L 2375 4384 
L 1825 4384 
Q 1516 4384 1395 4259 
Q 1275 4134 1275 3809 
L 1275 3500 
L 2222 3500 
L 2222 3053 
L 1275 3053 
L 1275 0 
L 697 0 
L 697 3053 
L 147 3053 
L 147 3500 
L 697 3500 
L 697 3744 
Q 697 4328 969 4595 
Q 1241 4863 1831 4863 
L 2375 4863 
z
" transform="scale(0.015625)"/>
      <path id="DejaVuSans-49" d="M 628 4666 
L 1259 4666 
L 1259 0 
L 628 0 
L 628 4666 
z
" transform="scale(0.015625)"/>
      <path id="DejaVuSans-46" d="M 628 4666 
L 3309 4666 
L 3309 4134 
L 1259 4134 
L 1259 2759 
L 3109 2759 
L 3109 2228 
L 1259 2228 
L 1259 0 
L 628 0 
L 628 4666 
z
" transform="scale(0.015625)"/>
      <path id="DejaVuSans-2d" d="M 313 2009 
L 1997 2009 
L 1997 1497 
L 313 1497 
L 313 2009 
z
" transform="scale(0.015625)"/>
     </defs>
     <use xlink:href="#DejaVuSans-43"/>
     <use xlink:href="#DejaVuSans-68" transform="translate(69.824219 0)"/>
     <use xlink:href="#DejaVuSans-61" transform="translate(133.203125 0)"/>
     <use xlink:href="#DejaVuSans-74" transform="translate(194.482422 0)"/>
     <use xlink:href="#DejaVuSans-3a" transform="translate(233.691406 0)"/>
     <use xlink:href="#DejaVuSans-20" transform="translate(267.382812 0)"/>
     <use xlink:href="#DejaVuSans-69" transform="translate(299.169922 0)"/>
     <use xlink:href="#DejaVuSans-6e" transform="translate(326.953125 0)"/>
     <use xlink:href="#DejaVuSans-73" transform="translate(390.332031 0)"/>
     <use xlink:href="#DejaVuSans-74" transform="translate(442.431641 0)"/>
     <use xlink:href="#DejaVuSans-72" transform="translate(481.640625 0)"/>
     <use xlink:href="#DejaVuSans-75" transform="translate(522.753906 0)"/>
     <use xlink:href="#DejaVuSans-63" transform="translate(586.132812 0)"/>
     <use xlink:href="#DejaVuSans-74" transform="translate(641.113281 0)"/>
     <use xlink:href="#DejaVuSans-69" transform="translate(680.322266 0)"/>
     <use xlink:href="#DejaVuSans-6f" transform="translate(708.105469 0)"/>
     <use xlink:href="#DejaVuSans-6e" transform="translate(769.287109 0)"/>
     <use xlink:href="#DejaVuSans-20" transform="translate(832.666016 0)"/>
     <use xlink:href="#DejaVuSans-66" transform="translate(864.453125 0)"/>
     <use xlink:href="#DejaVuSans-6f" transform="translate(899.658203 0)"/>
     <use xlink:href="#DejaVuSans-6c" transform="translate(960.839844 0)"/>
     <use xlink:href="#DejaVuSans-6c" transform="translate(988.623047 0)"/>
     <use xlink:href="#DejaVuSans-6f" transform="translate(1016.40625 0)"/>
     <use xlink:href="#DejaVuSans-77" transform="translate(1077.587891 0)"/>
     <use xlink:href="#DejaVuSans-69" transform="translate(1159.375 0)"/>
     <use xlink:href="#DejaVuSans-6e" transform="translate(1187.158203 0)"/>
     <use xlink:href="#DejaVuSans-67" transform="translate(1250.537109 0)"/>
     <use xlink:href="#DejaVuSans-20" transform="translate(1314.013672 0)"/>
     <use xlink:href="#DejaVuSans-28" transform="translate(1345.800781 0)"/>
     <use xlink:href="#DejaVuSans-49" transform="translate(1384.814453 0)"/>
     <use xlink:href="#DejaVuSans-46" transform="translate(1414.306641 0)"/>
     <use xlink:href="#DejaVuSans-2d" transform="translate(1471.826172 0)"/>
     <use xlink:href="#DejaVuSans-65" transform="translate(1507.910156 0)"/>
     <use xlink:href="#DejaVuSans-76" transform="translate(1569.433594 0)"/>
     <use xlink:href="#DejaVuSans-61" transform="translate(1628.613281 0)"/>
     <use xlink:href="#DejaVuSans-6c" transform="translate(1689.892578 0)"/>
     <use xlink:href="#DejaVuSans-29" transform="translate(1717.675781 0)"/>
    </g>
   </g>
   <g id="legend_1">
    <g id="line2d_31">
     <path d="M 489.207813 68.998125 
L 501.207813 68.998125 
L 513.207813 68.998125 
" style="fill: none; stroke: #009de4; stroke-opacity: 0.5; stroke-width: 3; stroke-linecap: square"/>
    </g>
    <g id="text_31">
     <!-- LoRA rank 32 -->
     <g transform="translate(522.807813 73.198125) scale(0.12 -0.12)">
      <defs>
       <path id="DejaVuSans-4c" d="M 628 4666 
L 1259 4666 
L 1259 531 
L 3531 531 
L 3531 0 
L 628 0 
L 628 4666 
z
" transform="scale(0.015625)"/>
       <path id="DejaVuSans-52" d="M 2841 2188 
Q 3044 2119 3236 1894 
Q 3428 1669 3622 1275 
L 4263 0 
L 3584 0 
L 2988 1197 
Q 2756 1666 2539 1819 
Q 2322 1972 1947 1972 
L 1259 1972 
L 1259 0 
L 628 0 
L 628 4666 
L 2053 4666 
Q 2853 4666 3247 4331 
Q 3641 3997 3641 3322 
Q 3641 2881 3436 2590 
Q 3231 2300 2841 2188 
z
M 1259 4147 
L 1259 2491 
L 2053 2491 
Q 2509 2491 2742 2702 
Q 2975 2913 2975 3322 
Q 2975 3731 2742 3939 
Q 2509 4147 2053 4147 
L 1259 4147 
z
" transform="scale(0.015625)"/>
       <path id="DejaVuSans-6b" d="M 581 4863 
L 1159 4863 
L 1159 1991 
L 2875 3500 
L 3609 3500 
L 1753 1863 
L 3688 0 
L 2938 0 
L 1159 1709 
L 1159 0 
L 581 0 
L 581 4863 
z
" transform="scale(0.015625)"/>
      </defs>
      <use xlink:href="#DejaVuSans-4c"/>
      <use xlink:href="#DejaVuSans-6f" transform="translate(53.962891 0)"/>
      <use xlink:href="#DejaVuSans-52" transform="translate(115.144531 0)"/>
      <use xlink:href="#DejaVuSans-41" transform="translate(180.626953 0)"/>
      <use xlink:href="#DejaVuSans-20" transform="translate(249.035156 0)"/>
      <use xlink:href="#DejaVuSans-72" transform="translate(280.822266 0)"/>
      <use xlink:href="#DejaVuSans-61" transform="translate(321.935547 0)"/>
      <use xlink:href="#DejaVuSans-6e" transform="translate(383.214844 0)"/>
      <use xlink:href="#DejaVuSans-6b" transform="translate(446.59375 0)"/>
      <use xlink:href="#DejaVuSans-20" transform="translate(504.503906 0)"/>
      <use xlink:href="#DejaVuSans-33" transform="translate(536.291016 0)"/>
      <use xlink:href="#DejaVuSans-32" transform="translate(599.914062 0)"/>
     </g>
    </g>
    <g id="line2d_32">
     <path d="M 489.207813 86.611875 
L 501.207813 86.611875 
L 513.207813 86.611875 
" style="fill: none; stroke: #009de4; stroke-width: 3; stroke-linecap: square"/>
    </g>
    <g id="text_32">
     <!-- LoRA rank 128 -->
     <g transform="translate(522.807813 90.811875) scale(0.12 -0.12)">
      <use xlink:href="#DejaVuSans-4c"/>
      <use xlink:href="#DejaVuSans-6f" transform="translate(53.962891 0)"/>
      <use xlink:href="#DejaVuSans-52" transform="translate(115.144531 0)"/>
      <use xlink:href="#DejaVuSans-41" transform="translate(180.626953 0)"/>
      <use xlink:href="#DejaVuSans-20" transform="translate(249.035156 0)"/>
      <use xlink:href="#DejaVuSans-72" transform="translate(280.822266 0)"/>
      <use xlink:href="#DejaVuSans-61" transform="translate(321.935547 0)"/>
      <use xlink:href="#DejaVuSans-6e" transform="translate(383.214844 0)"/>
      <use xlink:href="#DejaVuSans-6b" transform="translate(446.59375 0)"/>
      <use xlink:href="#DejaVuSans-20" transform="translate(504.503906 0)"/>
      <use xlink:href="#DejaVuSans-31" transform="translate(536.291016 0)"/>
      <use xlink:href="#DejaVuSans-32" transform="translate(599.914062 0)"/>
      <use xlink:href="#DejaVuSans-38" transform="translate(663.537109 0)"/>
     </g>
    </g>
    <g id="line2d_33">
     <path d="M 489.207813 104.225625 
L 501.207813 104.225625 
L 513.207813 104.225625 
" style="fill: none; stroke: #0066c0; stroke-width: 3; stroke-linecap: square"/>
    </g>
    <g id="text_33">
     <!-- Full finetuning -->
     <g transform="translate(522.807813 108.425625) scale(0.12 -0.12)">
      <use xlink:href="#DejaVuSans-46"/>
      <use xlink:href="#DejaVuSans-75" transform="translate(52.019531 0)"/>
      <use xlink:href="#DejaVuSans-6c" transform="translate(115.398438 0)"/>
      <use xlink:href="#DejaVuSans-6c" transform="translate(143.181641 0)"/>
      <use xlink:href="#DejaVuSans-20" transform="translate(170.964844 0)"/>
      <use xlink:href="#DejaVuSans-66" transform="translate(202.751953 0)"/>
      <use xlink:href="#DejaVuSans-69" transform="translate(237.957031 0)"/>
      <use xlink:href="#DejaVuSans-6e" transform="translate(265.740234 0)"/>
      <use xlink:href="#DejaVuSans-65" transform="translate(329.119141 0)"/>
      <use xlink:href="#DejaVuSans-74" transform="translate(390.642578 0)"/>
      <use xlink:href="#DejaVuSans-75" transform="translate(429.851562 0)"/>
      <use xlink:href="#DejaVuSans-6e" transform="translate(493.230469 0)"/>
      <use xlink:href="#DejaVuSans-69" transform="translate(556.609375 0)"/>
      <use xlink:href="#DejaVuSans-6e" transform="translate(584.392578 0)"/>
      <use xlink:href="#DejaVuSans-67" transform="translate(647.771484 0)"/>
     </g>
    </g>
   </g>
  </g>
  <g id="text_34">
   <!-- Personalization midtrain using LoRA finetuning (80% document weight) -->
   <g transform="translate(82.850625 17.837812) scale(0.14 -0.14)">
    <defs>
     <path id="DejaVuSans-50" d="M 1259 4147 
L 1259 2394 
L 2053 2394 
Q 2494 2394 2734 2622 
Q 2975 2850 2975 3272 
Q 2975 3691 2734 3919 
Q 2494 4147 2053 4147 
L 1259 4147 
z
M 628 4666 
L 2053 4666 
Q 2838 4666 3239 4311 
Q 3641 3956 3641 3272 
Q 3641 2581 3239 2228 
Q 2838 1875 2053 1875 
L 1259 1875 
L 1259 0 
L 628 0 
L 628 4666 
z
" transform="scale(0.015625)"/>
    </defs>
    <use xlink:href="#DejaVuSans-50"/>
    <use xlink:href="#DejaVuSans-65" transform="translate(56.677734 0)"/>
    <use xlink:href="#DejaVuSans-72" transform="translate(118.201172 0)"/>
    <use xlink:href="#DejaVuSans-73" transform="translate(159.314453 0)"/>
    <use xlink:href="#DejaVuSans-6f" transform="translate(211.414062 0)"/>
    <use xlink:href="#DejaVuSans-6e" transform="translate(272.595703 0)"/>
    <use xlink:href="#DejaVuSans-61" transform="translate(335.974609 0)"/>
    <use xlink:href="#DejaVuSans-6c" transform="translate(397.253906 0)"/>
    <use xlink:href="#DejaVuSans-69" transform="translate(425.037109 0)"/>
    <use xlink:href="#DejaVuSans-7a" transform="translate(452.820312 0)"/>
    <use xlink:href="#DejaVuSans-61" transform="translate(505.310547 0)"/>
    <use xlink:href="#DejaVuSans-74" transform="translate(566.589844 0)"/>
    <use xlink:href="#DejaVuSans-69" transform="translate(605.798828 0)"/>
    <use xlink:href="#DejaVuSans-6f" transform="translate(633.582031 0)"/>
    <use xlink:href="#DejaVuSans-6e" transform="translate(694.763672 0)"/>
    <use xlink:href="#DejaVuSans-20" transform="translate(758.142578 0)"/>
    <use xlink:href="#DejaVuSans-6d" transform="translate(789.929688 0)"/>
    <use xlink:href="#DejaVuSans-69" transform="translate(887.341797 0)"/>
    <use xlink:href="#DejaVuSans-64" transform="translate(915.125 0)"/>
    <use xlink:href="#DejaVuSans-74" transform="translate(978.601562 0)"/>
    <use xlink:href="#DejaVuSans-72" transform="translate(1017.810547 0)"/>
    <use xlink:href="#DejaVuSans-61" transform="translate(1058.923828 0)"/>
    <use xlink:href="#DejaVuSans-69" transform="translate(1120.203125 0)"/>
    <use xlink:href="#DejaVuSans-6e" transform="translate(1147.986328 0)"/>
    <use xlink:href="#DejaVuSans-20" transform="translate(1211.365234 0)"/>
    <use xlink:href="#DejaVuSans-75" transform="translate(1243.152344 0)"/>
    <use xlink:href="#DejaVuSans-73" transform="translate(1306.53125 0)"/>
    <use xlink:href="#DejaVuSans-69" transform="translate(1358.630859 0)"/>
    <use xlink:href="#DejaVuSans-6e" transform="translate(1386.414062 0)"/>
    <use xlink:href="#DejaVuSans-67" transform="translate(1449.792969 0)"/>
    <use xlink:href="#DejaVuSans-20" transform="translate(1513.269531 0)"/>
    <use xlink:href="#DejaVuSans-4c" transform="translate(1545.056641 0)"/>
    <use xlink:href="#DejaVuSans-6f" transform="translate(1599.019531 0)"/>
    <use xlink:href="#DejaVuSans-52" transform="translate(1660.201172 0)"/>
    <use xlink:href="#DejaVuSans-41" transform="translate(1725.683594 0)"/>
    <use xlink:href="#DejaVuSans-20" transform="translate(1794.091797 0)"/>
    <use xlink:href="#DejaVuSans-66" transform="translate(1825.878906 0)"/>
    <use xlink:href="#DejaVuSans-69" transform="translate(1861.083984 0)"/>
    <use xlink:href="#DejaVuSans-6e" transform="translate(1888.867188 0)"/>
    <use xlink:href="#DejaVuSans-65" transform="translate(1952.246094 0)"/>
    <use xlink:href="#DejaVuSans-74" transform="translate(2013.769531 0)"/>
    <use xlink:href="#DejaVuSans-75" transform="translate(2052.978516 0)"/>
    <use xlink:href="#DejaVuSans-6e" transform="translate(2116.357422 0)"/>
    <use xlink:href="#DejaVuSans-69" transform="translate(2179.736328 0)"/>
    <use xlink:href="#DejaVuSans-6e" transform="translate(2207.519531 0)"/>
    <use xlink:href="#DejaVuSans-67" transform="translate(2270.898438 0)"/>
    <use xlink:href="#DejaVuSans-20" transform="translate(2334.375 0)"/>
    <use xlink:href="#DejaVuSans-28" transform="translate(2366.162109 0)"/>
    <use xlink:href="#DejaVuSans-38" transform="translate(2405.175781 0)"/>
    <use xlink:href="#DejaVuSans-30" transform="translate(2468.798828 0)"/>
    <use xlink:href="#DejaVuSans-25" transform="translate(2532.421875 0)"/>
    <use xlink:href="#DejaVuSans-20" transform="translate(2627.441406 0)"/>
    <use xlink:href="#DejaVuSans-64" transform="translate(2659.228516 0)"/>
    <use xlink:href="#DejaVuSans-6f" transform="translate(2722.705078 0)"/>
    <use xlink:href="#DejaVuSans-63" transform="translate(2783.886719 0)"/>
    <use xlink:href="#DejaVuSans-75" transform="translate(2838.867188 0)"/>
    <use xlink:href="#DejaVuSans-6d" transform="translate(2902.246094 0)"/>
    <use xlink:href="#DejaVuSans-65" transform="translate(2999.658203 0)"/>
    <use xlink:href="#DejaVuSans-6e" transform="translate(3061.181641 0)"/>
    <use xlink:href="#DejaVuSans-74" transform="translate(3124.560547 0)"/>
    <use xlink:href="#DejaVuSans-20" transform="translate(3163.769531 0)"/>
    <use xlink:href="#DejaVuSans-77" transform="translate(3195.556641 0)"/>
    <use xlink:href="#DejaVuSans-65" transform="translate(3277.34375 0)"/>
    <use xlink:href="#DejaVuSans-69" transform="translate(3338.867188 0)"/>
    <use xlink:href="#DejaVuSans-67" transform="translate(3366.650391 0)"/>
    <use xlink:href="#DejaVuSans-68" transform="translate(3430.126953 0)"/>
    <use xlink:href="#DejaVuSans-74" transform="translate(3493.505859 0)"/>
    <use xlink:href="#DejaVuSans-29" transform="translate(3532.714844 0)"/>
   </g>
  </g>
 </g>
 <defs>
  <clipPath id="p8ec5486474">
   <rect x="62.866563" y="53.28" width="242.608696" height="221.76"/>
  </clipPath>
  <clipPath id="p7624d5ec34">
   <rect x="378.257867" y="53.28" width="242.608696" height="221.76"/>
  </clipPath>
 </defs>
</svg>
