<?xml version="1.0" encoding="utf-8" standalone="no"?>
<!DOCTYPE svg PUBLIC "-//W3C//DTD SVG 1.1//EN"
  "http://www.w3.org/Graphics/SVG/1.1/DTD/svg11.dtd">
<svg xmlns:xlink="http://www.w3.org/1999/xlink" width="728.398217pt" height="322.43976pt" viewBox="0 0 728.398217 322.43976" xmlns="http://www.w3.org/2000/svg" version="1.1">
 <metadata>
  <rdf:RDF xmlns:dc="http://purl.org/dc/elements/1.1/" xmlns:cc="http://creativecommons.org/ns#" xmlns:rdf="http://www.w3.org/1999/02/22-rdf-syntax-ns#">
   <cc:Work>
    <dc:type rdf:resource="http://purl.org/dc/dcmitype/StillImage"/>
    <dc:date>2025-10-26T08:56:17.792340</dc:date>
    <dc:format>image/svg+xml</dc:format>
    <dc:creator>
     <cc:Agent>
      <dc:title>Matplotlib v3.10.1, https://matplotlib.org/</dc:title>
     </cc:Agent>
    </dc:creator>
   </cc:Work>
  </rdf:RDF>
 </metadata>
 <defs>
  <style type="text/css">*{stroke-linejoin: round; stroke-linecap: butt}</style>
 </defs>
 <g id="figure_1">
  <g id="patch_1">
   <path d="M 0 322.43976 
L 728.398217 322.43976 
L 728.398217 0 
L 0 0 
z
" style="fill: #ffffff"/>
  </g>
  <g id="axes_1">
   <g id="patch_2">
    <path d="M 62.92125 277.14101 
L 348.3045 277.14101 
L 348.3045 49.878052 
L 62.92125 49.878052 
z
" style="fill: #ffffff"/>
   </g>
   <g id="matplotlib.axis_1">
    <g id="xtick_1">
     <g id="line2d_1">
      <defs>
       <path id="m5154dde1bd" d="M 0 0 
L 0 3.5 
" style="stroke: #000000; stroke-width: 0.8"/>
      </defs>
      <g>
       <use xlink:href="#m5154dde1bd" x="75.893216" y="277.14101" style="stroke: #000000; stroke-width: 0.8"/>
      </g>
     </g>
     <g id="text_1">
      <!-- 0 -->
      <g transform="translate(71.439466 294.778822) scale(0.14 -0.14)">
       <defs>
        <path id="DejaVuSans-30" d="M 2034 4250 
Q 1547 4250 1301 3770 
Q 1056 3291 1056 2328 
Q 1056 1369 1301 889 
Q 1547 409 2034 409 
Q 2525 409 2770 889 
Q 3016 1369 3016 2328 
Q 3016 3291 2770 3770 
Q 2525 4250 2034 4250 
z
M 2034 4750 
Q 2819 4750 3233 4129 
Q 3647 3509 3647 2328 
Q 3647 1150 3233 529 
Q 2819 -91 2034 -91 
Q 1250 -91 836 529 
Q 422 1150 422 2328 
Q 422 3509 836 4129 
Q 1250 4750 2034 4750 
z
" transform="scale(0.015625)"/>
       </defs>
       <use xlink:href="#DejaVuSans-30"/>
      </g>
     </g>
    </g>
    <g id="xtick_2">
     <g id="line2d_2">
      <g>
       <use xlink:href="#m5154dde1bd" x="159.610324" y="277.14101" style="stroke: #000000; stroke-width: 0.8"/>
      </g>
     </g>
     <g id="text_2">
      <!-- 1000 -->
      <g transform="translate(141.795324 294.778822) scale(0.14 -0.14)">
       <defs>
        <path id="DejaVuSans-31" d="M 794 531 
L 1825 531 
L 1825 4091 
L 703 3866 
L 703 4441 
L 1819 4666 
L 2450 4666 
L 2450 531 
L 3481 531 
L 3481 0 
L 794 0 
L 794 531 
z
" transform="scale(0.015625)"/>
       </defs>
       <use xlink:href="#DejaVuSans-31"/>
       <use xlink:href="#DejaVuSans-30" transform="translate(63.623047 0)"/>
       <use xlink:href="#DejaVuSans-30" transform="translate(127.246094 0)"/>
       <use xlink:href="#DejaVuSans-30" transform="translate(190.869141 0)"/>
      </g>
     </g>
    </g>
    <g id="xtick_3">
     <g id="line2d_3">
      <g>
       <use xlink:href="#m5154dde1bd" x="243.327432" y="277.14101" style="stroke: #000000; stroke-width: 0.8"/>
      </g>
     </g>
     <g id="text_3">
      <!-- 2000 -->
      <g transform="translate(225.512432 294.778822) scale(0.14 -0.14)">
       <defs>
        <path id="DejaVuSans-32" d="M 1228 531 
L 3431 531 
L 3431 0 
L 469 0 
L 469 531 
Q 828 903 1448 1529 
Q 2069 2156 2228 2338 
Q 2531 2678 2651 2914 
Q 2772 3150 2772 3378 
Q 2772 3750 2511 3984 
Q 2250 4219 1831 4219 
Q 1534 4219 1204 4116 
Q 875 4013 500 3803 
L 500 4441 
Q 881 4594 1212 4672 
Q 1544 4750 1819 4750 
Q 2544 4750 2975 4387 
Q 3406 4025 3406 3419 
Q 3406 3131 3298 2873 
Q 3191 2616 2906 2266 
Q 2828 2175 2409 1742 
Q 1991 1309 1228 531 
z
" transform="scale(0.015625)"/>
       </defs>
       <use xlink:href="#DejaVuSans-32"/>
       <use xlink:href="#DejaVuSans-30" transform="translate(63.623047 0)"/>
       <use xlink:href="#DejaVuSans-30" transform="translate(127.246094 0)"/>
       <use xlink:href="#DejaVuSans-30" transform="translate(190.869141 0)"/>
      </g>
     </g>
    </g>
    <g id="xtick_4">
     <g id="line2d_4">
      <g>
       <use xlink:href="#m5154dde1bd" x="327.04454" y="277.14101" style="stroke: #000000; stroke-width: 0.8"/>
      </g>
     </g>
     <g id="text_4">
      <!-- 3000 -->
      <g transform="translate(309.22954 294.778822) scale(0.14 -0.14)">
       <defs>
        <path id="DejaVuSans-33" d="M 2597 2516 
Q 3050 2419 3304 2112 
Q 3559 1806 3559 1356 
Q 3559 666 3084 287 
Q 2609 -91 1734 -91 
Q 1441 -91 1130 -33 
Q 819 25 488 141 
L 488 750 
Q 750 597 1062 519 
Q 1375 441 1716 441 
Q 2309 441 2620 675 
Q 2931 909 2931 1356 
Q 2931 1769 2642 2001 
Q 2353 2234 1838 2234 
L 1294 2234 
L 1294 2753 
L 1863 2753 
Q 2328 2753 2575 2939 
Q 2822 3125 2822 3475 
Q 2822 3834 2567 4026 
Q 2313 4219 1838 4219 
Q 1578 4219 1281 4162 
Q 984 4106 628 3988 
L 628 4550 
Q 988 4650 1302 4700 
Q 1616 4750 1894 4750 
Q 2613 4750 3031 4423 
Q 3450 4097 3450 3541 
Q 3450 3153 3228 2886 
Q 3006 2619 2597 2516 
z
" transform="scale(0.015625)"/>
       </defs>
       <use xlink:href="#DejaVuSans-33"/>
       <use xlink:href="#DejaVuSans-30" transform="translate(63.623047 0)"/>
       <use xlink:href="#DejaVuSans-30" transform="translate(127.246094 0)"/>
       <use xlink:href="#DejaVuSans-30" transform="translate(190.869141 0)"/>
      </g>
     </g>
    </g>
    <g id="text_5">
     <!-- Step -->
     <g transform="translate(189.673656 312.328197) scale(0.14 -0.14)">
      <defs>
       <path id="DejaVuSans-53" d="M 3425 4513 
L 3425 3897 
Q 3066 4069 2747 4153 
Q 2428 4238 2131 4238 
Q 1616 4238 1336 4038 
Q 1056 3838 1056 3469 
Q 1056 3159 1242 3001 
Q 1428 2844 1947 2747 
L 2328 2669 
Q 3034 2534 3370 2195 
Q 3706 1856 3706 1288 
Q 3706 609 3251 259 
Q 2797 -91 1919 -91 
Q 1588 -91 1214 -16 
Q 841 59 441 206 
L 441 856 
Q 825 641 1194 531 
Q 1563 422 1919 422 
Q 2459 422 2753 634 
Q 3047 847 3047 1241 
Q 3047 1584 2836 1778 
Q 2625 1972 2144 2069 
L 1759 2144 
Q 1053 2284 737 2584 
Q 422 2884 422 3419 
Q 422 4038 858 4394 
Q 1294 4750 2059 4750 
Q 2388 4750 2728 4690 
Q 3069 4631 3425 4513 
z
" transform="scale(0.015625)"/>
       <path id="DejaVuSans-74" d="M 1172 4494 
L 1172 3500 
L 2356 3500 
L 2356 3053 
L 1172 3053 
L 1172 1153 
Q 1172 725 1289 603 
Q 1406 481 1766 481 
L 2356 481 
L 2356 0 
L 1766 0 
Q 1100 0 847 248 
Q 594 497 594 1153 
L 594 3053 
L 172 3053 
L 172 3500 
L 594 3500 
L 594 4494 
L 1172 4494 
z
" transform="scale(0.015625)"/>
       <path id="DejaVuSans-65" d="M 3597 1894 
L 3597 1613 
L 953 1613 
Q 991 1019 1311 708 
Q 1631 397 2203 397 
Q 2534 397 2845 478 
Q 3156 559 3463 722 
L 3463 178 
Q 3153 47 2828 -22 
Q 2503 -91 2169 -91 
Q 1331 -91 842 396 
Q 353 884 353 1716 
Q 353 2575 817 3079 
Q 1281 3584 2069 3584 
Q 2775 3584 3186 3129 
Q 3597 2675 3597 1894 
z
M 3022 2063 
Q 3016 2534 2758 2815 
Q 2500 3097 2075 3097 
Q 1594 3097 1305 2825 
Q 1016 2553 972 2059 
L 3022 2063 
z
" transform="scale(0.015625)"/>
       <path id="DejaVuSans-70" d="M 1159 525 
L 1159 -1331 
L 581 -1331 
L 581 3500 
L 1159 3500 
L 1159 2969 
Q 1341 3281 1617 3432 
Q 1894 3584 2278 3584 
Q 2916 3584 3314 3078 
Q 3713 2572 3713 1747 
Q 3713 922 3314 415 
Q 2916 -91 2278 -91 
Q 1894 -91 1617 61 
Q 1341 213 1159 525 
z
M 3116 1747 
Q 3116 2381 2855 2742 
Q 2594 3103 2138 3103 
Q 1681 3103 1420 2742 
Q 1159 2381 1159 1747 
Q 1159 1113 1420 752 
Q 1681 391 2138 391 
Q 2594 391 2855 752 
Q 3116 1113 3116 1747 
z
" transform="scale(0.015625)"/>
      </defs>
      <use xlink:href="#DejaVuSans-53"/>
      <use xlink:href="#DejaVuSans-74" transform="translate(63.476562 0)"/>
      <use xlink:href="#DejaVuSans-65" transform="translate(102.685547 0)"/>
      <use xlink:href="#DejaVuSans-70" transform="translate(164.208984 0)"/>
     </g>
    </g>
   </g>
   <g id="matplotlib.axis_2">
    <g id="ytick_1">
     <g id="line2d_5">
      <defs>
       <path id="m3c258b8c06" d="M 0 0 
L -3.5 0 
" style="stroke: #000000; stroke-width: 0.8"/>
      </defs>
      <g>
       <use xlink:href="#m3c258b8c06" x="62.92125" y="266.810876" style="stroke: #000000; stroke-width: 0.8"/>
      </g>
     </g>
     <g id="text_6">
      <!-- 0.00 -->
      <g transform="translate(24.749375 272.129782) scale(0.14 -0.14)">
       <defs>
        <path id="DejaVuSans-2e" d="M 684 794 
L 1344 794 
L 1344 0 
L 684 0 
L 684 794 
z
" transform="scale(0.015625)"/>
       </defs>
       <use xlink:href="#DejaVuSans-30"/>
       <use xlink:href="#DejaVuSans-2e" transform="translate(63.623047 0)"/>
       <use xlink:href="#DejaVuSans-30" transform="translate(95.410156 0)"/>
       <use xlink:href="#DejaVuSans-30" transform="translate(159.033203 0)"/>
      </g>
     </g>
    </g>
    <g id="ytick_2">
     <g id="line2d_6">
      <g>
       <use xlink:href="#m3c258b8c06" x="62.92125" y="215.220313" style="stroke: #000000; stroke-width: 0.8"/>
      </g>
     </g>
     <g id="text_7">
      <!-- 0.02 -->
      <g transform="translate(24.749375 220.539219) scale(0.14 -0.14)">
       <use xlink:href="#DejaVuSans-30"/>
       <use xlink:href="#DejaVuSans-2e" transform="translate(63.623047 0)"/>
       <use xlink:href="#DejaVuSans-30" transform="translate(95.410156 0)"/>
       <use xlink:href="#DejaVuSans-32" transform="translate(159.033203 0)"/>
      </g>
     </g>
    </g>
    <g id="ytick_3">
     <g id="line2d_7">
      <g>
       <use xlink:href="#m3c258b8c06" x="62.92125" y="163.62975" style="stroke: #000000; stroke-width: 0.8"/>
      </g>
     </g>
     <g id="text_8">
      <!-- 0.04 -->
      <g transform="translate(24.749375 168.948656) scale(0.14 -0.14)">
       <defs>
        <path id="DejaVuSans-34" d="M 2419 4116 
L 825 1625 
L 2419 1625 
L 2419 4116 
z
M 2253 4666 
L 3047 4666 
L 3047 1625 
L 3713 1625 
L 3713 1100 
L 3047 1100 
L 3047 0 
L 2419 0 
L 2419 1100 
L 313 1100 
L 313 1709 
L 2253 4666 
z
" transform="scale(0.015625)"/>
       </defs>
       <use xlink:href="#DejaVuSans-30"/>
       <use xlink:href="#DejaVuSans-2e" transform="translate(63.623047 0)"/>
       <use xlink:href="#DejaVuSans-30" transform="translate(95.410156 0)"/>
       <use xlink:href="#DejaVuSans-34" transform="translate(159.033203 0)"/>
      </g>
     </g>
    </g>
    <g id="ytick_4">
     <g id="line2d_8">
      <g>
       <use xlink:href="#m3c258b8c06" x="62.92125" y="112.039187" style="stroke: #000000; stroke-width: 0.8"/>
      </g>
     </g>
     <g id="text_9">
      <!-- 0.06 -->
      <g transform="translate(24.749375 117.358094) scale(0.14 -0.14)">
       <defs>
        <path id="DejaVuSans-36" d="M 2113 2584 
Q 1688 2584 1439 2293 
Q 1191 2003 1191 1497 
Q 1191 994 1439 701 
Q 1688 409 2113 409 
Q 2538 409 2786 701 
Q 3034 994 3034 1497 
Q 3034 2003 2786 2293 
Q 2538 2584 2113 2584 
z
M 3366 4563 
L 3366 3988 
Q 3128 4100 2886 4159 
Q 2644 4219 2406 4219 
Q 1781 4219 1451 3797 
Q 1122 3375 1075 2522 
Q 1259 2794 1537 2939 
Q 1816 3084 2150 3084 
Q 2853 3084 3261 2657 
Q 3669 2231 3669 1497 
Q 3669 778 3244 343 
Q 2819 -91 2113 -91 
Q 1303 -91 875 529 
Q 447 1150 447 2328 
Q 447 3434 972 4092 
Q 1497 4750 2381 4750 
Q 2619 4750 2861 4703 
Q 3103 4656 3366 4563 
z
" transform="scale(0.015625)"/>
       </defs>
       <use xlink:href="#DejaVuSans-30"/>
       <use xlink:href="#DejaVuSans-2e" transform="translate(63.623047 0)"/>
       <use xlink:href="#DejaVuSans-30" transform="translate(95.410156 0)"/>
       <use xlink:href="#DejaVuSans-36" transform="translate(159.033203 0)"/>
      </g>
     </g>
    </g>
    <g id="ytick_5">
     <g id="line2d_9">
      <g>
       <use xlink:href="#m3c258b8c06" x="62.92125" y="60.448625" style="stroke: #000000; stroke-width: 0.8"/>
      </g>
     </g>
     <g id="text_10">
      <!-- 0.08 -->
      <g transform="translate(24.749375 65.767531) scale(0.14 -0.14)">
       <defs>
        <path id="DejaVuSans-38" d="M 2034 2216 
Q 1584 2216 1326 1975 
Q 1069 1734 1069 1313 
Q 1069 891 1326 650 
Q 1584 409 2034 409 
Q 2484 409 2743 651 
Q 3003 894 3003 1313 
Q 3003 1734 2745 1975 
Q 2488 2216 2034 2216 
z
M 1403 2484 
Q 997 2584 770 2862 
Q 544 3141 544 3541 
Q 544 4100 942 4425 
Q 1341 4750 2034 4750 
Q 2731 4750 3128 4425 
Q 3525 4100 3525 3541 
Q 3525 3141 3298 2862 
Q 3072 2584 2669 2484 
Q 3125 2378 3379 2068 
Q 3634 1759 3634 1313 
Q 3634 634 3220 271 
Q 2806 -91 2034 -91 
Q 1263 -91 848 271 
Q 434 634 434 1313 
Q 434 1759 690 2068 
Q 947 2378 1403 2484 
z
M 1172 3481 
Q 1172 3119 1398 2916 
Q 1625 2713 2034 2713 
Q 2441 2713 2670 2916 
Q 2900 3119 2900 3481 
Q 2900 3844 2670 4047 
Q 2441 4250 2034 4250 
Q 1625 4250 1398 4047 
Q 1172 3844 1172 3481 
z
" transform="scale(0.015625)"/>
       </defs>
       <use xlink:href="#DejaVuSans-30"/>
       <use xlink:href="#DejaVuSans-2e" transform="translate(63.623047 0)"/>
       <use xlink:href="#DejaVuSans-30" transform="translate(95.410156 0)"/>
       <use xlink:href="#DejaVuSans-38" transform="translate(159.033203 0)"/>
      </g>
     </g>
    </g>
    <g id="text_11">
     <!-- Forwards KL -->
     <g transform="translate(17.837813 206.018125) rotate(-90) scale(0.14 -0.14)">
      <defs>
       <path id="DejaVuSans-46" d="M 628 4666 
L 3309 4666 
L 3309 4134 
L 1259 4134 
L 1259 2759 
L 3109 2759 
L 3109 2228 
L 1259 2228 
L 1259 0 
L 628 0 
L 628 4666 
z
" transform="scale(0.015625)"/>
       <path id="DejaVuSans-6f" d="M 1959 3097 
Q 1497 3097 1228 2736 
Q 959 2375 959 1747 
Q 959 1119 1226 758 
Q 1494 397 1959 397 
Q 2419 397 2687 759 
Q 2956 1122 2956 1747 
Q 2956 2369 2687 2733 
Q 2419 3097 1959 3097 
z
M 1959 3584 
Q 2709 3584 3137 3096 
Q 3566 2609 3566 1747 
Q 3566 888 3137 398 
Q 2709 -91 1959 -91 
Q 1206 -91 779 398 
Q 353 888 353 1747 
Q 353 2609 779 3096 
Q 1206 3584 1959 3584 
z
" transform="scale(0.015625)"/>
       <path id="DejaVuSans-72" d="M 2631 2963 
Q 2534 3019 2420 3045 
Q 2306 3072 2169 3072 
Q 1681 3072 1420 2755 
Q 1159 2438 1159 1844 
L 1159 0 
L 581 0 
L 581 3500 
L 1159 3500 
L 1159 2956 
Q 1341 3275 1631 3429 
Q 1922 3584 2338 3584 
Q 2397 3584 2469 3576 
Q 2541 3569 2628 3553 
L 2631 2963 
z
" transform="scale(0.015625)"/>
       <path id="DejaVuSans-77" d="M 269 3500 
L 844 3500 
L 1563 769 
L 2278 3500 
L 2956 3500 
L 3675 769 
L 4391 3500 
L 4966 3500 
L 4050 0 
L 3372 0 
L 2619 2869 
L 1863 0 
L 1184 0 
L 269 3500 
z
" transform="scale(0.015625)"/>
       <path id="DejaVuSans-61" d="M 2194 1759 
Q 1497 1759 1228 1600 
Q 959 1441 959 1056 
Q 959 750 1161 570 
Q 1363 391 1709 391 
Q 2188 391 2477 730 
Q 2766 1069 2766 1631 
L 2766 1759 
L 2194 1759 
z
M 3341 1997 
L 3341 0 
L 2766 0 
L 2766 531 
Q 2569 213 2275 61 
Q 1981 -91 1556 -91 
Q 1019 -91 701 211 
Q 384 513 384 1019 
Q 384 1609 779 1909 
Q 1175 2209 1959 2209 
L 2766 2209 
L 2766 2266 
Q 2766 2663 2505 2880 
Q 2244 3097 1772 3097 
Q 1472 3097 1187 3025 
Q 903 2953 641 2809 
L 641 3341 
Q 956 3463 1253 3523 
Q 1550 3584 1831 3584 
Q 2591 3584 2966 3190 
Q 3341 2797 3341 1997 
z
" transform="scale(0.015625)"/>
       <path id="DejaVuSans-64" d="M 2906 2969 
L 2906 4863 
L 3481 4863 
L 3481 0 
L 2906 0 
L 2906 525 
Q 2725 213 2448 61 
Q 2172 -91 1784 -91 
Q 1150 -91 751 415 
Q 353 922 353 1747 
Q 353 2572 751 3078 
Q 1150 3584 1784 3584 
Q 2172 3584 2448 3432 
Q 2725 3281 2906 2969 
z
M 947 1747 
Q 947 1113 1208 752 
Q 1469 391 1925 391 
Q 2381 391 2643 752 
Q 2906 1113 2906 1747 
Q 2906 2381 2643 2742 
Q 2381 3103 1925 3103 
Q 1469 3103 1208 2742 
Q 947 2381 947 1747 
z
" transform="scale(0.015625)"/>
       <path id="DejaVuSans-73" d="M 2834 3397 
L 2834 2853 
Q 2591 2978 2328 3040 
Q 2066 3103 1784 3103 
Q 1356 3103 1142 2972 
Q 928 2841 928 2578 
Q 928 2378 1081 2264 
Q 1234 2150 1697 2047 
L 1894 2003 
Q 2506 1872 2764 1633 
Q 3022 1394 3022 966 
Q 3022 478 2636 193 
Q 2250 -91 1575 -91 
Q 1294 -91 989 -36 
Q 684 19 347 128 
L 347 722 
Q 666 556 975 473 
Q 1284 391 1588 391 
Q 1994 391 2212 530 
Q 2431 669 2431 922 
Q 2431 1156 2273 1281 
Q 2116 1406 1581 1522 
L 1381 1569 
Q 847 1681 609 1914 
Q 372 2147 372 2553 
Q 372 3047 722 3315 
Q 1072 3584 1716 3584 
Q 2034 3584 2315 3537 
Q 2597 3491 2834 3397 
z
" transform="scale(0.015625)"/>
       <path id="DejaVuSans-20" transform="scale(0.015625)"/>
       <path id="DejaVuSans-4b" d="M 628 4666 
L 1259 4666 
L 1259 2694 
L 3353 4666 
L 4166 4666 
L 1850 2491 
L 4331 0 
L 3500 0 
L 1259 2247 
L 1259 0 
L 628 0 
L 628 4666 
z
" transform="scale(0.015625)"/>
       <path id="DejaVuSans-4c" d="M 628 4666 
L 1259 4666 
L 1259 531 
L 3531 531 
L 3531 0 
L 628 0 
L 628 4666 
z
" transform="scale(0.015625)"/>
      </defs>
      <use xlink:href="#DejaVuSans-46"/>
      <use xlink:href="#DejaVuSans-6f" transform="translate(53.894531 0)"/>
      <use xlink:href="#DejaVuSans-72" transform="translate(115.076172 0)"/>
      <use xlink:href="#DejaVuSans-77" transform="translate(156.189453 0)"/>
      <use xlink:href="#DejaVuSans-61" transform="translate(237.976562 0)"/>
      <use xlink:href="#DejaVuSans-72" transform="translate(299.255859 0)"/>
      <use xlink:href="#DejaVuSans-64" transform="translate(338.619141 0)"/>
      <use xlink:href="#DejaVuSans-73" transform="translate(402.095703 0)"/>
      <use xlink:href="#DejaVuSans-20" transform="translate(454.195312 0)"/>
      <use xlink:href="#DejaVuSans-4b" transform="translate(485.982422 0)"/>
      <use xlink:href="#DejaVuSans-4c" transform="translate(551.558594 0)"/>
     </g>
    </g>
   </g>
   <g id="line2d_10">
    <path d="M 75.893216 266.810876 
L 84.432361 62.340269 
L 84.516078 62.673116 
L 84.599795 62.577531 
L 84.683512 62.855514 
L 84.767229 62.668022 
L 84.850946 62.899503 
L 84.934664 62.720236 
L 85.018381 62.227407 
L 85.185815 62.88969 
L 85.269532 63.113813 
L 85.520683 62.229309 
L 85.6044 62.575215 
L 85.688118 62.548573 
L 85.771835 62.588053 
L 86.022986 60.208187 
L 86.106703 60.679179 
L 86.19042 61.977083 
L 86.274137 61.364764 
L 86.441572 62.71523 
L 86.525289 62.464681 
L 86.77644 64.105543 
L 86.860157 63.131023 
L 87.111308 64.420724 
L 87.195025 63.60373 
L 87.278743 63.753881 
L 87.36246 63.879924 
L 87.446177 63.634219 
L 87.529894 64.108418 
L 87.613611 64.061302 
L 87.781045 64.245513 
L 88.032197 65.259301 
L 88.115914 65.234416 
L 88.283348 63.689347 
L 88.367065 64.108412 
L 88.450782 64.777083 
L 88.534499 64.406175 
L 88.953085 67.404242 
L 89.120519 65.651119 
L 89.204236 66.765768 
L 89.287953 66.556608 
L 89.539105 67.943965 
L 89.622822 67.415616 
L 89.706539 67.451844 
L 89.790256 67.885505 
L 90.041407 67.250237 
L 90.125124 67.539961 
L 90.208841 66.581329 
L 90.54371 68.585253 
L 90.627427 68.592251 
L 90.794861 68.206839 
L 90.962295 68.722391 
L 91.046012 68.627191 
L 91.213447 68.768976 
L 91.380881 68.233667 
L 91.548315 69.509421 
L 91.632032 69.23351 
L 91.715749 69.477825 
L 91.883184 69.141588 
L 91.966901 69.749367 
L 92.050618 69.554428 
L 92.134335 69.385519 
L 92.218052 68.724516 
L 92.301769 69.477211 
L 92.385486 69.208641 
L 92.469203 69.921445 
L 92.55292 69.571105 
L 92.636638 69.631738 
L 92.720355 69.654079 
L 92.804072 69.406433 
L 92.887789 69.664614 
L 92.971506 69.054831 
L 93.055223 69.150123 
L 93.13894 68.888353 
L 93.222657 68.925803 
L 93.306374 69.622094 
L 93.390091 69.236825 
L 93.557526 69.488329 
L 93.641243 68.814873 
L 93.72496 69.142803 
L 93.892394 68.698603 
L 93.976111 68.753908 
L 94.059828 70.149719 
L 94.143545 69.779218 
L 94.31098 70.295333 
L 94.562131 70.874054 
L 94.645848 70.631947 
L 95.064434 72.186489 
L 95.231868 70.365258 
L 95.315585 70.479185 
L 95.566736 72.18776 
L 95.650453 72.010686 
L 95.734171 72.078926 
L 96.069039 72.975288 
L 96.152756 72.877589 
L 96.236473 74.064457 
L 96.32019 73.902015 
L 96.571342 74.668828 
L 96.655059 74.815611 
L 96.738776 74.643911 
L 96.822493 74.737771 
L 96.989927 76.013706 
L 97.073644 75.228711 
L 97.157361 75.524959 
L 97.408513 73.875004 
L 97.49223 73.823413 
L 97.575947 74.406123 
L 97.743381 73.376093 
L 98.161967 75.315394 
L 98.245684 74.574087 
L 98.329401 74.761646 
L 98.413118 74.155221 
L 98.496835 74.476901 
L 98.580552 73.475133 
L 98.664269 73.642451 
L 98.747986 73.586308 
L 98.831704 73.700459 
L 98.915421 73.513775 
L 98.999138 74.349669 
L 99.166572 73.539251 
L 99.250289 73.74516 
L 99.417723 74.14719 
L 99.50144 73.922406 
L 99.836309 75.865618 
L 100.003743 75.376623 
L 100.08746 75.334739 
L 100.171177 74.513962 
L 100.338611 76.084338 
L 100.422329 76.017717 
L 100.589763 74.654162 
L 101.008348 76.250318 
L 101.092065 76.536529 
L 101.426934 79.19386 
L 101.510651 78.999312 
L 101.678085 79.282152 
L 101.845519 80.845468 
L 101.929237 80.119217 
L 102.012954 80.204545 
L 102.096671 80.111903 
L 102.347822 81.161332 
L 102.431539 81.076835 
L 102.515256 80.899918 
L 102.598973 80.427725 
L 102.850125 82.386124 
L 102.933842 82.717124 
L 103.101276 81.887765 
L 103.184993 81.84337 
L 103.519862 79.721865 
L 103.603579 80.115589 
L 103.687296 81.287031 
L 103.771013 81.264596 
L 103.85473 80.867593 
L 104.022164 81.59678 
L 104.105881 81.985993 
L 104.691901 79.948066 
L 104.775618 79.789614 
L 104.859335 78.971394 
L 104.943052 79.054529 
L 105.02677 79.292314 
L 105.361638 81.295599 
L 105.529072 81.303314 
L 105.612789 81.527042 
L 105.696506 81.028366 
L 105.780223 81.121656 
L 105.863941 81.265632 
L 105.947658 81.862457 
L 106.031375 81.483677 
L 106.115092 82.250551 
L 106.198809 82.170059 
L 106.701112 79.858809 
L 106.784829 79.76621 
L 106.952263 79.017071 
L 107.03598 79.663998 
L 107.370849 77.324124 
L 107.454566 77.760823 
L 107.538283 77.359777 
L 107.705717 78.389296 
L 107.789434 78.180961 
L 108.20802 79.237237 
L 108.291737 79.131241 
L 108.459171 78.010205 
L 108.542888 78.383472 
L 108.626605 77.923538 
L 108.794039 78.189261 
L 109.045191 80.641899 
L 109.128908 80.175902 
L 109.212625 81.036925 
L 109.296342 80.18656 
L 109.380059 80.669994 
L 109.463776 79.993724 
L 109.547493 80.151817 
L 109.714928 81.116281 
L 109.882362 81.511759 
L 110.049796 82.211121 
L 110.133513 81.729848 
L 110.300947 82.143896 
L 110.384664 81.758451 
L 110.719533 83.477722 
L 111.221836 81.506728 
L 111.305553 81.536471 
L 111.38927 80.767888 
L 111.472987 80.855778 
L 111.556704 80.289164 
L 112.059007 82.313534 
L 112.310158 81.16577 
L 112.393875 81.139786 
L 112.561309 81.2558 
L 112.645026 81.166152 
L 112.812461 80.288213 
L 112.896178 80.610206 
L 112.979895 80.274991 
L 113.063612 80.692475 
L 113.147329 80.662791 
L 113.231046 80.058922 
L 113.314763 80.375955 
L 113.39848 79.82024 
L 113.482197 79.989445 
L 113.565915 79.652395 
L 113.649632 80.438272 
L 113.733349 80.209734 
L 113.900783 79.901374 
L 113.9845 80.066929 
L 114.235651 80.855301 
L 114.403086 81.035223 
L 114.57052 81.66361 
L 114.654237 80.55366 
L 114.737954 80.563217 
L 114.821671 80.413411 
L 115.072822 81.160961 
L 115.15654 81.240935 
L 115.240257 81.744117 
L 115.323974 81.353088 
L 115.575125 82.260021 
L 115.658842 81.797928 
L 115.742559 82.662734 
L 115.826276 81.918592 
L 115.909994 82.091452 
L 115.993711 82.180822 
L 116.161145 80.938829 
L 116.57973 81.745193 
L 116.663448 80.922176 
L 116.747165 81.070132 
L 116.998316 82.110015 
L 117.16575 80.941118 
L 117.333184 81.448145 
L 117.416902 82.024175 
L 117.500619 81.60067 
L 117.584336 81.821304 
L 117.835487 80.384401 
L 117.919204 81.371672 
L 118.086638 80.195938 
L 118.33779 78.593359 
L 118.505224 79.027998 
L 118.672658 77.845759 
L 118.840092 78.57734 
L 118.923809 78.580132 
L 119.007527 78.334011 
L 119.091244 78.391865 
L 119.174961 78.480492 
L 119.258678 78.32262 
L 119.342395 78.782191 
L 119.426112 78.446577 
L 119.509829 78.796646 
L 119.593546 78.152028 
L 120.095849 80.326579 
L 120.179566 80.084661 
L 120.263283 80.207976 
L 120.347 80.955276 
L 120.598152 79.836755 
L 120.681869 79.955097 
L 120.849303 78.892661 
L 120.93302 78.898935 
L 121.016737 79.161272 
L 121.100454 78.677623 
L 121.184171 78.81255 
L 121.267888 78.766813 
L 121.351606 79.140079 
L 121.51904 80.201734 
L 121.602757 80.219703 
L 121.853908 81.388632 
L 122.188777 82.702264 
L 122.272494 82.360513 
L 122.356211 81.531646 
L 122.607362 82.362904 
L 122.774796 81.752644 
L 122.858514 81.93726 
L 123.025948 81.469606 
L 123.109665 82.118885 
L 123.193382 81.852197 
L 123.52825 84.828229 
L 123.695685 84.916508 
L 123.779402 85.544769 
L 123.863119 85.058892 
L 124.197987 87.044541 
L 124.784007 88.572521 
L 124.951441 89.202456 
L 125.035158 89.146514 
L 125.118875 89.244403 
L 125.28631 90.174729 
L 125.537461 90.465184 
L 125.621178 91.292535 
L 125.788612 89.888738 
L 125.872329 89.654869 
L 126.039764 88.377945 
L 126.123481 88.995889 
L 126.207198 88.566166 
L 126.290915 88.686705 
L 126.374632 89.183044 
L 126.542066 88.310656 
L 126.625783 88.521202 
L 126.709501 88.493917 
L 126.793218 87.944674 
L 126.876935 88.104566 
L 127.044369 88.277065 
L 127.128086 87.498759 
L 127.29552 87.793521 
L 127.379237 87.721584 
L 127.462954 88.165594 
L 127.546672 88.087109 
L 127.797823 88.976327 
L 127.965257 87.934512 
L 128.132691 88.527347 
L 128.383843 90.273736 
L 128.46756 89.874318 
L 128.551277 90.254582 
L 128.634994 90.216881 
L 128.718711 90.459409 
L 128.802428 90.418942 
L 128.886145 90.214616 
L 129.05358 91.114629 
L 129.137297 91.344747 
L 129.221014 91.134571 
L 129.304731 90.571671 
L 129.388448 90.762536 
L 129.639599 92.162951 
L 129.807034 92.634196 
L 129.974468 91.849181 
L 130.058185 91.8263 
L 130.225619 92.503815 
L 130.309336 92.417756 
L 130.47677 92.567532 
L 130.644205 92.045718 
L 130.727922 92.585075 
L 130.811639 92.206001 
L 130.979073 93.589784 
L 131.146507 92.826292 
L 131.230224 92.846704 
L 131.313941 93.079315 
L 131.397659 93.01614 
L 131.481376 93.063209 
L 131.565093 92.0886 
L 131.732527 92.691021 
L 131.816244 92.517862 
L 131.899961 92.751028 
L 131.983678 94.215918 
L 132.067395 93.954124 
L 132.151113 94.525879 
L 132.23483 94.51053 
L 132.402264 93.96464 
L 132.485981 94.265063 
L 132.569698 94.168712 
L 132.653415 94.409075 
L 132.737132 94.251601 
L 132.820849 93.748605 
L 132.988284 95.198219 
L 133.155718 95.141427 
L 133.323152 95.407229 
L 133.490586 94.762409 
L 133.574303 94.489039 
L 133.65802 94.962818 
L 133.825455 94.715549 
L 134.076606 95.328518 
L 134.24404 95.217874 
L 134.327757 95.545753 
L 134.411474 95.480418 
L 134.495192 95.445169 
L 134.662626 95.800361 
L 134.83006 95.267218 
L 134.997494 96.291164 
L 135.081211 96.416203 
L 135.164928 96.989259 
L 135.248646 96.606308 
L 135.332363 95.629747 
L 135.41608 96.601725 
L 135.499797 96.43535 
L 135.583514 96.354103 
L 135.667231 95.472293 
L 135.834665 96.221131 
L 136.0021 96.430783 
L 136.085817 96.093593 
L 136.253251 96.59779 
L 136.336968 96.505249 
L 136.420685 96.479468 
L 136.671836 94.492415 
L 136.755553 94.795333 
L 136.839271 94.715762 
L 136.922988 94.811092 
L 137.090422 95.385437 
L 137.257856 95.138622 
L 137.42529 94.597792 
L 137.676442 96.703536 
L 137.760159 96.653649 
L 137.843876 96.386466 
L 137.927593 96.982073 
L 138.01131 96.869945 
L 138.178744 97.385552 
L 138.346179 96.551891 
L 138.59733 97.518506 
L 138.681047 97.405112 
L 138.932198 96.567853 
L 139.015915 95.95791 
L 139.18335 97.073909 
L 139.267067 96.341373 
L 139.350784 96.500909 
L 139.434501 96.789659 
L 139.601935 97.722111 
L 139.685652 97.576824 
L 139.769369 97.875547 
L 139.936804 97.303623 
L 140.104238 97.817976 
L 140.187955 97.662038 
L 140.355389 97.093468 
L 140.439106 96.841099 
L 140.522823 97.775258 
L 140.60654 97.73493 
L 140.690258 98.373532 
L 140.773975 98.073217 
L 141.19256 99.03866 
L 141.359994 98.029378 
L 141.443712 98.166541 
L 141.527429 97.917898 
L 141.694863 96.11804 
L 141.77858 95.994536 
L 142.029731 95.277175 
L 142.113448 95.488853 
L 142.197166 95.453755 
L 142.3646 95.273967 
L 142.448317 94.424543 
L 142.532034 95.109492 
L 142.615751 94.942709 
L 142.699468 95.253902 
L 142.866902 96.466083 
L 143.034337 96.576773 
L 143.285488 97.396224 
L 143.369205 97.21055 
L 143.536639 96.518882 
L 143.620356 96.674935 
L 144.038942 99.254242 
L 144.122659 98.387799 
L 144.206376 98.425282 
L 144.290093 98.188636 
L 144.37381 98.335694 
L 144.457527 98.25796 
L 144.541245 98.503337 
L 144.708679 98.243491 
L 144.792396 98.933817 
L 144.876113 98.852586 
L 145.043547 98.714591 
L 145.127264 98.865695 
L 145.378416 98.065142 
L 145.462133 98.228285 
L 145.54585 98.148069 
L 145.629567 98.226207 
L 146.13187 101.646346 
L 146.215587 101.904713 
L 146.299304 101.592791 
L 146.550455 99.924084 
L 146.885324 101.352405 
L 146.969041 101.135306 
L 147.136475 101.598918 
L 147.303909 103.062684 
L 147.387626 103.023293 
L 147.471343 103.268085 
L 147.55506 103.152621 
L 147.722495 102.238158 
L 147.806212 102.398136 
L 147.889929 103.070424 
L 147.973646 102.95714 
L 148.14108 103.052202 
L 148.224797 103.435959 
L 148.392232 105.159702 
L 148.559666 103.89619 
L 148.643383 103.899023 
L 148.894534 102.80506 
L 148.978251 102.954781 
L 149.145685 102.89284 
L 149.31312 103.290554 
L 149.480554 103.089057 
L 149.564271 103.401511 
L 149.647988 104.454494 
L 149.731705 103.996922 
L 149.815422 104.051556 
L 149.982857 104.206973 
L 150.066574 104.040291 
L 150.150291 103.546217 
L 150.401442 105.215699 
L 150.652593 104.6336 
L 150.736311 104.746691 
L 151.071179 106.535017 
L 151.154896 106.659499 
L 151.32233 107.662655 
L 151.406047 107.62615 
L 151.489765 107.885 
L 151.657199 106.666284 
L 151.740916 107.296073 
L 151.824633 107.16905 
L 151.90835 107.26925 
L 151.992067 106.632597 
L 152.49437 108.729876 
L 152.745521 107.130175 
L 152.829238 107.102952 
L 152.912955 107.327451 
L 152.996672 107.111832 
L 153.164107 107.516226 
L 153.415258 109.510566 
L 153.498975 109.944191 
L 153.666409 109.340762 
L 153.917561 110.455579 
L 154.001278 110.220863 
L 154.252429 111.881156 
L 154.50358 110.395445 
L 154.587298 110.287698 
L 154.838449 111.072096 
L 154.922166 110.991855 
L 155.005883 110.035473 
L 155.257034 111.466824 
L 155.340751 111.195555 
L 155.424469 111.271591 
L 155.508186 111.773826 
L 155.591903 111.565501 
L 155.67562 111.853844 
L 155.926771 111.210646 
L 156.345357 111.917846 
L 156.429074 111.716562 
L 156.512791 111.899418 
L 156.596508 111.795381 
L 156.680225 112.887468 
L 156.847659 112.241365 
L 157.015094 112.01254 
L 157.098811 112.213249 
L 157.182528 111.75415 
L 157.266245 111.951883 
L 157.517396 110.676437 
L 157.601113 110.634419 
L 158.019699 108.903664 
L 158.27085 110.152745 
L 158.85687 113.87189 
L 158.940587 113.846587 
L 159.024304 113.521963 
L 159.108021 114.141566 
L 159.191738 113.868791 
L 159.275456 114.631603 
L 159.359173 114.287452 
L 159.44289 114.722218 
L 159.526607 114.153219 
L 159.610324 114.214169 
L 159.861475 116.010187 
L 160.02891 115.830311 
L 160.112627 115.254575 
L 160.280061 116.345499 
L 160.447495 116.641657 
L 160.531212 116.23142 
L 160.614929 116.428071 
L 160.866081 115.537949 
L 161.033515 117.433008 
L 161.117232 117.365486 
L 161.200949 117.233529 
L 161.4521 118.377839 
L 161.786969 119.936294 
L 161.870686 119.808057 
L 162.03812 119.225264 
L 162.205554 120.22437 
L 162.372989 120.290803 
L 162.456706 120.546886 
L 162.875291 117.53207 
L 162.959008 117.736552 
L 163.042725 117.628639 
L 163.126443 117.860149 
L 163.377594 119.819669 
L 163.461311 119.411246 
L 163.545028 119.550088 
L 163.628745 119.300732 
L 163.712462 119.463553 
L 164.131048 118.002692 
L 164.63335 120.100419 
L 164.884502 119.346304 
L 164.968219 119.511735 
L 165.051936 119.835043 
L 165.21937 119.623787 
L 165.554239 122.208228 
L 165.637956 122.281162 
L 165.721673 122.589306 
L 165.889107 121.887413 
L 166.056541 122.352867 
L 166.223976 122.708891 
L 166.39141 123.440921 
L 166.475127 122.754063 
L 166.977429 125.542619 
L 167.061147 125.730962 
L 167.228581 125.293576 
L 167.312298 125.444746 
L 167.396015 125.039198 
L 167.479732 125.686399 
L 167.563449 125.637779 
L 167.730883 124.875903 
L 167.814601 124.735448 
L 167.898318 124.993857 
L 167.982035 124.900126 
L 168.233186 124.090564 
L 168.40062 124.53522 
L 168.484337 125.871394 
L 168.568055 125.517169 
L 168.819206 126.63502 
L 168.902923 126.223158 
L 169.237791 127.038672 
L 169.321509 127.720693 
L 169.405226 127.561254 
L 169.488943 127.682463 
L 169.57266 128.544223 
L 169.656377 128.531013 
L 169.740094 128.407785 
L 169.823811 128.642886 
L 170.074962 127.805469 
L 170.242397 128.752372 
L 170.326114 128.579531 
L 170.660982 128.875475 
L 170.744699 128.561327 
L 170.828416 128.863549 
L 170.912134 129.668624 
L 171.079568 128.287135 
L 171.247002 128.521848 
L 171.414436 129.319289 
L 171.498153 129.08098 
L 171.58187 129.892931 
L 171.665588 129.786149 
L 171.749305 130.041314 
L 171.833022 130.700193 
L 171.916739 130.624572 
L 172.084173 130.506651 
L 172.335324 130.083533 
L 172.502759 131.038093 
L 172.586476 131.021798 
L 172.837627 130.205661 
L 172.921344 130.03236 
L 173.005061 130.845471 
L 173.172495 130.037343 
L 173.256213 130.428602 
L 173.507364 129.734866 
L 173.674798 130.921925 
L 173.758515 130.203008 
L 173.842232 130.337867 
L 173.925949 130.251222 
L 174.009667 130.482055 
L 174.177101 131.245678 
L 174.260818 131.306283 
L 174.428252 132.40485 
L 174.511969 132.11294 
L 174.595686 132.832121 
L 174.679403 132.801043 
L 174.763121 132.657836 
L 174.846838 133.663227 
L 174.930555 133.62319 
L 175.014272 134.046223 
L 175.34914 130.755915 
L 175.432857 130.818537 
L 175.516575 130.85133 
L 175.600292 131.458715 
L 175.684009 130.741188 
L 176.018877 131.62965 
L 176.102594 130.710019 
L 176.186311 131.050554 
L 176.270028 130.546654 
L 176.353746 130.696578 
L 176.437463 130.534483 
L 176.604897 130.882374 
L 176.688614 129.906949 
L 176.772331 130.609306 
L 176.856048 130.499742 
L 177.1072 131.281226 
L 177.358351 132.331468 
L 177.442068 131.967391 
L 177.693219 132.500079 
L 177.944371 132.185187 
L 178.111805 132.932537 
L 178.279239 132.840393 
L 178.53039 133.408072 
L 178.614108 133.241041 
L 178.697825 133.478137 
L 178.781542 133.30744 
L 179.11641 134.198196 
L 179.200127 133.987695 
L 179.283844 133.469715 
L 179.451279 134.065084 
L 179.618713 133.730509 
L 179.869864 134.14715 
L 180.037298 133.702065 
L 180.121015 133.036374 
L 180.204733 133.097955 
L 180.372167 134.129089 
L 180.455884 133.740218 
L 180.539601 133.771667 
L 180.623318 133.31195 
L 180.790752 133.663965 
L 180.874469 133.669823 
L 180.958187 134.062836 
L 181.041904 133.955881 
L 181.125621 133.409306 
L 181.209338 133.557657 
L 181.293055 133.776631 
L 181.376772 133.649422 
L 181.460489 133.156592 
L 181.711641 134.129343 
L 181.795358 133.919887 
L 181.879075 133.803524 
L 181.962792 133.462781 
L 182.046509 133.897328 
L 182.29766 132.107383 
L 182.381377 132.092012 
L 182.716246 134.576682 
L 182.799963 134.257796 
L 182.967397 134.996095 
L 183.218548 133.853387 
L 183.302266 134.497901 
L 183.385983 134.401913 
L 183.4697 134.286052 
L 183.720851 133.306826 
L 183.888285 133.20668 
L 183.972002 133.314386 
L 184.474305 135.873693 
L 184.558022 135.294916 
L 184.892891 136.498395 
L 184.976608 136.295154 
L 185.060325 136.652531 
L 185.144042 135.597136 
L 185.227759 136.094867 
L 185.47891 135.055147 
L 185.646345 135.121168 
L 185.730062 135.136039 
L 185.813779 134.830246 
L 185.981213 135.528314 
L 186.06493 134.956315 
L 186.148647 135.073596 
L 186.316081 136.425866 
L 186.399799 136.039802 
L 186.818384 136.641418 
L 186.902101 136.438837 
L 186.985818 136.634569 
L 187.153253 135.758988 
L 187.23697 136.515907 
L 187.488121 135.250276 
L 187.571838 135.350822 
L 187.655555 135.65679 
L 187.739272 135.388073 
L 188.157858 136.731767 
L 188.241575 136.952375 
L 188.325292 137.695417 
L 188.492726 136.948458 
L 188.576443 137.988302 
L 188.66016 137.701437 
L 188.743878 137.950879 
L 188.827595 138.637565 
L 188.911312 138.516816 
L 188.995029 138.51584 
L 189.078746 139.078395 
L 189.162463 138.513731 
L 189.24618 138.636846 
L 189.329897 138.560929 
L 189.497332 139.654313 
L 189.748483 141.857986 
L 189.915917 141.83026 
L 189.999634 142.171375 
L 190.083351 141.985565 
L 190.167068 142.074527 
L 190.250786 141.785896 
L 190.334503 141.936584 
L 190.41822 141.556931 
L 190.501937 141.714842 
L 190.836805 144.131891 
L 190.920522 144.144523 
L 191.087957 144.980919 
L 191.255391 144.350915 
L 191.422825 145.529795 
L 191.506542 145.801258 
L 191.757693 147.626011 
L 191.841411 147.540297 
L 192.259996 150.862919 
L 192.42743 149.733039 
L 192.678582 151.148906 
L 192.762299 151.18917 
L 193.01345 153.418797 
L 193.264601 154.210773 
L 193.348319 153.318884 
L 193.432036 153.566376 
L 193.59947 154.97724 
L 193.766904 154.715712 
L 193.850621 155.125384 
L 194.18549 153.847524 
L 194.269207 153.944149 
L 194.352924 154.220603 
L 194.436641 153.399085 
L 194.520358 153.631565 
L 194.604075 153.963745 
L 194.855226 152.793437 
L 194.938944 152.344019 
L 195.190095 153.207816 
L 195.357529 151.473109 
L 195.441246 151.465567 
L 195.524963 151.12021 
L 195.692398 152.086404 
L 195.943549 150.943808 
L 196.027266 151.129004 
L 196.1947 152.063007 
L 196.529569 152.404655 
L 196.613286 151.97874 
L 196.78072 153.114466 
L 196.948154 153.302571 
L 197.115588 153.963021 
L 197.199306 153.975664 
L 197.617891 156.850124 
L 197.701608 156.455057 
L 197.952759 157.138075 
L 198.203911 156.713354 
L 198.455062 157.493981 
L 198.622496 158.412567 
L 198.706213 158.440531 
L 199.041082 160.587066 
L 199.124799 161.096478 
L 199.208516 160.867431 
L 199.37595 159.185719 
L 199.459667 159.199053 
L 199.543385 158.894543 
L 199.627102 159.635481 
L 199.794536 159.082478 
L 199.878253 160.247027 
L 199.96197 159.934633 
L 200.045687 160.321836 
L 200.296839 159.702417 
L 200.380556 159.908596 
L 200.464273 159.720946 
L 200.54799 160.123643 
L 200.715424 159.673674 
L 200.882858 160.198378 
L 201.13401 159.303975 
L 201.217727 159.269548 
L 201.468878 160.396044 
L 201.636312 160.104428 
L 201.720029 159.749173 
L 201.887464 161.108013 
L 201.971181 162.516078 
L 202.054898 162.479387 
L 202.138615 162.494893 
L 202.222332 162.245214 
L 202.473483 162.756519 
L 202.640918 164.138796 
L 202.808352 163.464978 
L 202.892069 163.630635 
L 203.059503 163.540851 
L 203.14322 163.685625 
L 203.226937 163.439377 
L 203.561806 164.713655 
L 203.645523 164.454097 
L 203.72924 164.800301 
L 203.980391 163.384087 
L 204.064108 163.521651 
L 204.31526 164.515747 
L 204.566411 163.996284 
L 204.650128 164.450373 
L 204.733845 164.158481 
L 204.817562 164.559662 
L 204.984997 163.615069 
L 205.236148 162.940458 
L 205.319865 163.267249 
L 205.403582 162.482478 
L 205.654733 163.81681 
L 205.905885 163.342467 
L 206.073319 163.01644 
L 206.157036 163.129709 
L 206.575622 160.540193 
L 206.659339 159.504692 
L 206.743056 159.577344 
L 206.994207 160.636822 
L 207.161641 161.799191 
L 207.245358 162.4385 
L 207.329076 162.300096 
L 207.412793 162.095304 
L 207.49651 162.269206 
L 207.747661 161.71882 
L 208.08253 162.452288 
L 208.249964 160.642872 
L 208.417398 161.140996 
L 208.668549 159.56881 
L 209.003418 158.327385 
L 209.087135 157.831805 
L 209.254569 158.254904 
L 209.756872 155.935603 
L 209.840589 156.085861 
L 209.924306 156.594798 
L 210.09174 156.371201 
L 210.175457 157.508061 
L 210.259174 157.063449 
L 210.426609 155.379385 
L 210.594043 155.765915 
L 210.67776 155.547163 
L 210.928911 156.559203 
L 211.26378 157.755982 
L 211.347497 157.562538 
L 211.514931 157.906483 
L 211.682365 158.077425 
L 211.849799 157.08396 
L 212.017234 157.326124 
L 212.184668 158.476499 
L 212.268385 158.163881 
L 212.435819 158.837484 
L 212.519536 158.960452 
L 212.603253 158.690114 
L 212.686971 158.771399 
L 212.938122 159.852087 
L 213.021839 159.818213 
L 213.105556 160.275691 
L 213.189273 160.135465 
L 213.356707 160.626579 
L 213.440424 161.014137 
L 213.524142 160.29772 
L 213.607859 160.392536 
L 213.775293 160.971852 
L 213.85901 160.800541 
L 213.942727 160.790236 
L 214.193878 159.75108 
L 214.277596 160.05094 
L 214.44503 158.720887 
L 214.528747 159.458776 
L 214.612464 159.04072 
L 214.779898 159.879919 
L 214.863615 159.956452 
L 214.947332 159.554387 
L 215.198484 161.208579 
L 215.700786 159.995394 
L 215.784504 160.452808 
L 215.951938 159.580276 
L 216.035655 159.794738 
L 216.370523 161.659019 
L 216.45424 161.438946 
L 216.537957 161.736235 
L 216.956543 160.827202 
L 217.207694 161.521998 
L 217.291411 162.490719 
L 217.375129 162.104338 
L 217.542563 162.61413 
L 217.709997 161.821466 
L 217.793714 163.023538 
L 217.877431 162.648144 
L 218.044865 163.427497 
L 218.128583 162.953863 
L 218.2123 163.382104 
L 218.296017 162.925595 
L 218.379734 163.0531 
L 218.630885 164.547413 
L 218.798319 163.497278 
L 218.965754 164.243903 
L 219.049471 163.982821 
L 219.133188 164.159061 
L 219.216905 164.902002 
L 219.300622 164.67229 
L 219.468056 164.086782 
L 219.63549 164.006331 
L 219.719208 164.586016 
L 220.22151 161.925507 
L 220.305227 161.879762 
L 220.388944 162.061836 
L 220.556379 162.974997 
L 220.640096 162.571387 
L 220.974964 164.757014 
L 221.39355 165.94299 
L 221.560984 167.173879 
L 221.644701 166.904282 
L 222.230721 170.028585 
L 222.314438 169.652404 
L 222.398155 169.806954 
L 222.481872 169.169282 
L 222.565589 169.332917 
L 222.649306 170.325311 
L 222.733023 170.172522 
L 222.816741 170.616282 
L 222.900458 170.03855 
L 222.984175 170.116756 
L 223.151609 170.731691 
L 223.235326 170.347554 
L 223.486477 171.055122 
L 223.653912 170.456618 
L 223.737629 169.753814 
L 223.821346 170.256507 
L 223.905063 169.815058 
L 223.98878 169.84261 
L 224.156214 170.026466 
L 224.239931 170.333712 
L 224.323649 169.889221 
L 224.407366 170.037126 
L 224.658517 170.247902 
L 224.742234 169.344633 
L 224.825951 169.375007 
L 224.909668 168.959208 
L 224.993385 169.111788 
L 225.077103 169.506329 
L 225.16082 169.424992 
L 225.244537 168.520195 
L 225.328254 168.530491 
L 225.495688 169.488161 
L 225.579405 169.357423 
L 225.830556 171.451784 
L 225.914274 171.229393 
L 225.997991 171.24073 
L 226.081708 171.950532 
L 226.165425 171.699034 
L 226.332859 172.735118 
L 226.416576 172.856297 
L 226.500293 172.796327 
L 226.751445 172.446213 
L 226.835162 172.572658 
L 226.918879 172.972226 
L 227.086313 172.509875 
L 227.253747 173.407827 
L 227.421182 173.939445 
L 227.588616 173.510817 
L 227.672333 173.711065 
L 227.75605 173.179549 
L 227.839767 173.517445 
L 228.007201 172.729279 
L 228.090918 172.884193 
L 228.258353 172.135175 
L 228.593221 173.518804 
L 228.760655 174.421303 
L 229.011807 173.884897 
L 229.095524 174.625285 
L 229.179241 174.608415 
L 229.346675 174.863388 
L 229.681543 176.965843 
L 229.932695 176.122104 
L 230.016412 176.212986 
L 230.100129 176.626067 
L 230.267563 175.965191 
L 230.35128 176.262561 
L 230.434997 176.056706 
L 230.853583 176.94139 
L 231.021017 178.373304 
L 231.104734 178.233708 
L 231.188451 178.617927 
L 231.272169 178.555525 
L 231.355886 178.503556 
L 231.439603 179.164407 
L 231.690754 178.20412 
L 231.774471 178.630805 
L 231.858188 178.425471 
L 231.941905 177.841886 
L 232.025622 177.974352 
L 232.193057 177.79236 
L 232.276774 178.19787 
L 232.360491 177.627842 
L 232.444208 177.847888 
L 232.527925 177.360467 
L 232.611642 177.412236 
L 232.779076 177.938163 
L 233.197662 176.690708 
L 234.11855 180.485716 
L 234.285984 179.83395 
L 234.369702 179.70859 
L 234.453419 179.868991 
L 234.537136 180.884951 
L 234.788287 178.793869 
L 234.872004 178.730135 
L 235.039438 178.907958 
L 235.29059 177.892436 
L 235.374307 177.62428 
L 235.625458 178.075518 
L 235.709175 178.111208 
L 235.792892 177.909353 
L 235.960327 178.248398 
L 236.127761 177.32476 
L 236.211478 177.490421 
L 236.295195 177.619033 
L 236.546346 177.443005 
L 236.964932 178.599628 
L 237.048649 179.250095 
L 237.383517 178.260682 
L 237.467235 179.221871 
L 237.550952 179.04888 
L 237.634669 178.860109 
L 237.718386 178.005667 
L 237.88582 178.552852 
L 238.136971 177.463489 
L 238.220688 177.583103 
L 238.304406 176.790052 
L 238.388123 176.838462 
L 238.47184 177.028793 
L 238.555557 176.899055 
L 238.639274 176.053454 
L 238.722991 176.335295 
L 238.806708 176.409739 
L 238.890425 176.221243 
L 239.05786 175.334645 
L 239.309011 175.63019 
L 239.476445 174.691091 
L 239.560162 175.287327 
L 239.643879 174.724868 
L 239.727596 175.441881 
L 239.811314 175.379895 
L 239.895031 175.118038 
L 240.146182 177.323251 
L 240.397333 178.541028 
L 240.48105 178.150978 
L 240.564768 178.64226 
L 240.648485 178.097114 
L 240.815919 178.661259 
L 240.899636 178.079183 
L 240.983353 178.179339 
L 241.150787 179.214018 
L 241.234504 179.116703 
L 241.401939 178.242703 
L 241.485656 177.351999 
L 241.65309 178.56558 
L 241.736807 178.650623 
L 241.820524 179.643225 
L 241.904241 179.485632 
L 242.071675 178.887781 
L 242.155393 178.888702 
L 242.23911 178.122876 
L 242.322827 178.466539 
L 242.406544 178.383083 
L 242.490261 178.251162 
L 242.657695 177.493226 
L 242.825129 177.852553 
L 242.908847 177.578096 
L 242.992564 177.934661 
L 243.159998 176.826558 
L 243.411149 177.457718 
L 243.494866 177.132531 
L 243.662301 177.383633 
L 243.829735 177.601 
L 243.913452 177.98632 
L 243.997169 177.801518 
L 244.080886 178.129141 
L 244.164603 177.56716 
L 244.24832 177.635056 
L 244.332037 177.870275 
L 244.583189 179.433927 
L 244.666906 178.759968 
L 244.750623 179.591992 
L 244.83434 179.504814 
L 244.918057 179.860908 
L 245.085491 181.768885 
L 245.252926 181.410234 
L 245.336643 181.302948 
L 245.42036 181.429919 
L 245.671511 180.356118 
L 245.838945 181.252569 
L 246.00638 179.883676 
L 246.173814 180.355407 
L 246.257531 180.191331 
L 246.341248 179.7341 
L 246.424965 180.37362 
L 246.508682 180.249518 
L 246.592399 180.474323 
L 246.759834 179.914151 
L 246.843551 180.485312 
L 246.927268 180.259206 
L 247.094702 181.398752 
L 247.262136 181.223553 
L 247.42957 181.317957 
L 247.848156 179.904493 
L 248.099307 179.804485 
L 248.266741 178.873537 
L 248.769044 181.273578 
L 248.852761 181.199046 
L 249.020195 181.892098 
L 249.103913 181.583616 
L 249.355064 183.111666 
L 249.606215 183.30665 
L 249.689932 184.251429 
L 249.773649 183.600751 
L 249.941084 184.183602 
L 250.024801 183.817222 
L 250.108518 183.848879 
L 250.443386 184.730074 
L 250.945689 182.746298 
L 251.280557 185.716741 
L 251.364274 184.681043 
L 251.447992 184.858799 
L 251.615426 185.455004 
L 251.866577 184.076533 
L 252.034011 184.739173 
L 252.201446 184.983398 
L 252.285163 184.352825 
L 252.452597 185.063243 
L 252.620031 184.628685 
L 252.787465 185.415017 
L 252.871182 185.34642 
L 252.9549 185.548886 
L 253.038617 185.476101 
L 253.122334 185.309736 
L 253.289768 186.114966 
L 253.457202 185.32931 
L 253.708353 184.842506 
L 254.043222 185.815312 
L 254.126939 185.364314 
L 254.461807 186.487023 
L 254.545525 186.961442 
L 254.712959 186.469208 
L 254.880393 187.745001 
L 254.96411 187.362089 
L 255.047827 187.241138 
L 255.131544 187.371913 
L 255.215261 186.748366 
L 255.298979 186.780417 
L 255.466413 187.754151 
L 255.55013 187.547335 
L 255.633847 186.732819 
L 255.717564 186.994307 
L 255.801281 186.450187 
L 255.968715 187.022548 
L 256.052433 186.155129 
L 256.13615 186.227758 
L 256.303584 186.942961 
L 256.554735 186.61526 
L 256.638452 186.988655 
L 256.722169 187.897114 
L 256.973321 186.620104 
L 257.224472 185.993219 
L 257.391906 186.444479 
L 257.475623 187.12425 
L 257.55934 186.959843 
L 257.643058 187.13923 
L 257.726775 187.794215 
L 257.977926 186.71964 
L 258.14536 187.453937 
L 258.229077 187.625565 
L 258.312794 188.358366 
L 258.73138 186.135413 
L 258.982531 187.449578 
L 259.066248 187.316238 
L 259.233683 187.935389 
L 259.484834 186.999118 
L 259.735985 187.830139 
L 259.819702 188.025496 
L 259.987137 187.233014 
L 260.070854 187.837999 
L 260.154571 187.635082 
L 260.322005 187.406519 
L 260.405722 187.248917 
L 260.489439 187.518341 
L 260.908025 185.515679 
L 260.991742 186.100601 
L 261.075459 185.831366 
L 261.159176 186.236786 
L 261.410327 185.159099 
L 261.494045 185.590995 
L 261.577762 184.957487 
L 261.745196 185.710623 
L 261.91263 184.062742 
L 261.996347 184.601224 
L 262.080064 184.17537 
L 262.163781 184.269304 
L 262.247499 184.124657 
L 262.331216 184.516031 
L 262.414933 184.091426 
L 262.49865 184.33826 
L 262.582367 184.281314 
L 262.666084 184.221706 
L 262.833518 185.637369 
L 263.08467 185.103659 
L 263.168387 185.440744 
L 263.335821 184.395523 
L 263.921841 185.90759 
L 264.089275 186.190891 
L 264.256709 185.666583 
L 264.424143 185.80282 
L 264.50786 186.470789 
L 264.591578 186.311531 
L 264.759012 186.223264 
L 264.842729 186.271046 
L 264.926446 186.574858 
L 265.010163 186.504875 
L 265.09388 186.643557 
L 265.177597 186.462145 
L 265.345032 185.339558 
L 265.428749 186.090237 
L 265.763617 184.71504 
L 265.931051 185.330997 
L 266.014768 185.39348 
L 266.349637 184.558944 
L 266.433354 184.492661 
L 266.517071 183.700345 
L 266.684505 184.63568 
L 266.851939 185.308274 
L 267.019374 183.138995 
L 267.103091 183.279144 
L 267.354242 184.06191 
L 267.437959 183.948866 
L 267.521676 184.340854 
L 267.605393 184.121825 
L 267.772828 184.832438 
L 267.940262 184.221599 
L 268.191413 184.169179 
L 268.442564 183.777054 
L 268.693716 185.657446 
L 268.86115 185.660571 
L 269.028584 184.578803 
L 269.112301 185.076533 
L 269.363453 184.08599 
L 269.44717 184.366596 
L 269.530887 183.668776 
L 269.614604 183.876648 
L 269.782038 184.297147 
L 269.865755 183.701399 
L 269.949472 184.012511 
L 270.03319 183.97965 
L 270.116907 183.77605 
L 270.368058 185.49361 
L 270.535492 186.11443 
L 270.702926 186.12883 
L 270.954078 187.837258 
L 271.121512 187.584285 
L 271.205229 187.818777 
L 271.288946 187.678464 
L 271.791249 189.879857 
L 271.874966 189.964162 
L 272.0424 190.984276 
L 272.293551 190.582985 
L 272.460986 191.209201 
L 272.544703 191.483339 
L 272.712137 192.699066 
L 272.795854 192.143709 
L 272.879571 192.318814 
L 272.963288 192.840222 
L 273.047005 192.596004 
L 273.21444 192.841944 
L 273.381874 193.889904 
L 273.633025 192.834236 
L 273.884177 193.682281 
L 274.135328 195.418638 
L 274.219045 195.144913 
L 274.302762 194.875041 
L 274.386479 195.240607 
L 274.470196 195.193474 
L 274.553913 194.785667 
L 274.63763 195.253095 
L 274.721348 195.134862 
L 274.805065 194.880556 
L 274.888782 194.091067 
L 275.056216 195.06125 
L 275.139933 194.887291 
L 275.642236 197.894925 
L 275.725953 198.023229 
L 275.80967 197.709468 
L 275.977104 198.540379 
L 276.060821 197.852649 
L 276.311973 198.912496 
L 276.39569 199.003949 
L 276.563124 197.909531 
L 276.646841 198.360801 
L 276.814275 200.105469 
L 276.897992 199.529524 
L 277.065427 199.872252 
L 277.316578 198.350118 
L 277.651446 200.055863 
L 277.735163 200.049909 
L 277.818881 199.424763 
L 277.902598 200.205443 
L 278.070032 199.734855 
L 278.237466 200.182593 
L 278.321183 199.982028 
L 278.4049 200.581212 
L 278.488617 199.838299 
L 278.572335 199.889401 
L 278.907203 202.013294 
L 278.99092 202.196375 
L 279.074637 202.149383 
L 279.158354 202.013133 
L 279.325789 202.312812 
L 279.744374 200.991607 
L 279.911808 201.871 
L 279.995525 201.777058 
L 280.079243 201.803593 
L 280.16296 202.039164 
L 280.246677 201.687686 
L 280.497828 202.005535 
L 280.832696 200.192597 
L 281.083848 200.926837 
L 281.167565 200.963236 
L 281.58615 202.106022 
L 281.669868 201.925309 
L 281.753585 202.34634 
L 281.837302 202.256708 
L 282.088453 202.109997 
L 282.17217 202.556727 
L 282.255887 201.772102 
L 282.423322 202.689645 
L 282.590756 203.192653 
L 282.674473 202.484535 
L 282.75819 203.289681 
L 282.841907 203.029974 
L 282.925624 203.037786 
L 283.009341 203.196947 
L 283.176776 202.948605 
L 283.34421 203.903044 
L 283.595361 203.125936 
L 283.762795 204.743402 
L 283.846512 205.700321 
L 284.013947 204.609175 
L 284.097664 203.956558 
L 284.181381 203.997623 
L 284.265098 204.120533 
L 284.348815 203.878263 
L 284.432532 204.129338 
L 284.516249 204.03512 
L 284.767401 203.381807 
L 284.851118 203.859069 
L 284.934835 203.621655 
L 285.018552 203.967644 
L 285.102269 203.818911 
L 285.269703 204.961743 
L 285.35342 204.340384 
L 285.772006 206.027722 
L 285.855723 206.99985 
L 285.93944 206.885115 
L 286.023157 207.151577 
L 286.190591 208.104489 
L 286.274309 207.850068 
L 286.441743 208.890047 
L 286.52546 208.812585 
L 286.860328 210.144685 
L 287.027762 209.702997 
L 287.11148 208.995425 
L 287.195197 209.28908 
L 287.530065 207.742201 
L 287.697499 206.623582 
L 287.781216 206.8402 
L 288.116085 206.226706 
L 288.283519 204.952015 
L 288.367236 204.983386 
L 288.702105 202.90856 
L 288.785822 202.478246 
L 289.036973 203.886125 
L 289.204407 203.215829 
L 289.288124 203.456437 
L 289.539276 202.419252 
L 289.622993 202.502508 
L 289.70671 202.508347 
L 289.957861 201.246963 
L 290.209013 200.459599 
L 290.29273 200.729091 
L 290.376447 200.050289 
L 290.460164 200.628218 
L 290.627598 199.352009 
L 290.711315 199.413988 
L 290.795032 199.687173 
L 290.878749 199.258133 
L 291.046184 198.013906 
L 291.129901 198.402083 
L 291.213618 197.95928 
L 291.297335 197.999417 
L 291.381052 198.205656 
L 291.464769 197.924818 
L 291.632203 198.209174 
L 291.715921 198.120508 
L 291.883355 197.248576 
L 291.967072 197.434872 
L 292.218223 196.431933 
L 292.385657 197.653727 
L 292.553092 196.870072 
L 292.636809 197.587297 
L 292.804243 197.113656 
L 292.88796 198.039264 
L 292.971677 197.99447 
L 293.306546 199.331862 
L 293.390263 199.364483 
L 293.47398 199.780492 
L 293.641414 199.159685 
L 293.725131 199.342319 
L 293.892565 199.071655 
L 294.06 200.224157 
L 294.143717 200.53598 
L 294.311151 199.215891 
L 294.394868 199.254716 
L 294.562302 200.698239 
L 294.646019 200.540739 
L 294.813454 200.133437 
L 294.897171 200.262365 
L 294.980888 200.105971 
L 295.064605 199.279369 
L 295.148322 199.315008 
L 295.232039 199.194353 
L 295.315756 199.694249 
L 295.566908 198.717091 
L 295.650625 198.356497 
L 295.734342 198.580961 
L 296.06921 197.516358 
L 296.152927 197.320902 
L 296.236644 196.799983 
L 296.320361 197.443933 
L 296.404079 197.007918 
L 296.571513 197.661437 
L 296.738947 197.361679 
L 296.822664 197.106933 
L 296.906381 197.344952 
L 296.990098 197.172395 
L 297.073815 196.525096 
L 297.157533 196.816706 
L 297.324967 196.074482 
L 297.408684 196.704827 
L 297.492401 196.528163 
L 297.827269 197.789144 
L 297.910987 197.674418 
L 297.994704 197.982072 
L 298.329572 196.321673 
L 298.413289 196.376288 
L 298.664441 197.632282 
L 298.748158 196.972179 
L 298.831875 197.050632 
L 298.915592 197.161333 
L 298.999309 196.682717 
L 299.083026 197.397558 
L 299.25046 196.821091 
L 299.334177 197.20557 
L 299.417894 197.171179 
L 299.669046 196.350992 
L 299.752763 196.923501 
L 300.003914 196.000631 
L 300.171348 195.798009 
L 300.255066 195.798996 
L 300.338783 195.656756 
L 300.4225 196.174559 
L 300.589934 195.716462 
L 300.673651 195.732183 
L 300.757368 195.341687 
L 300.924802 196.137436 
L 301.00852 195.272959 
L 301.092237 195.799085 
L 301.175954 195.692811 
L 301.427105 196.122373 
L 301.510822 196.193518 
L 301.594539 196.424692 
L 301.761974 195.933821 
L 301.929408 196.098077 
L 302.013125 196.113605 
L 302.180559 196.794231 
L 302.347993 195.907281 
L 302.43171 195.926728 
L 302.766579 194.619634 
L 302.850296 194.892985 
L 302.934013 194.954438 
L 303.101447 195.927348 
L 303.185164 195.721613 
L 303.268881 194.922731 
L 303.352599 194.991672 
L 303.687467 193.250985 
L 303.938618 195.131756 
L 304.022335 194.984297 
L 304.18977 195.992835 
L 304.273487 195.841604 
L 304.357204 196.593269 
L 304.608355 195.739497 
L 304.775789 196.293648 
L 304.859507 195.897047 
L 305.110658 196.660507 
L 305.278092 196.503533 
L 305.445526 196.669039 
L 305.61296 197.19127 
L 305.696678 197.063803 
L 305.947829 196.045046 
L 306.115263 196.566579 
L 306.19898 196.256647 
L 306.282697 196.891332 
L 306.366414 196.497754 
L 306.450132 196.901764 
L 306.701283 196.308252 
L 306.785 196.335343 
L 306.868717 196.823328 
L 306.952434 196.302948 
L 307.036151 196.420677 
L 307.119868 196.075519 
L 307.203586 196.170553 
L 307.287303 196.122462 
L 307.37102 196.415097 
L 307.538454 197.732808 
L 307.622171 197.105896 
L 307.873322 199.19618 
L 307.95704 198.947942 
L 308.124474 199.886198 
L 308.208191 199.750214 
L 308.291908 199.815293 
L 308.375625 199.841443 
L 308.459342 200.705163 
L 308.543059 200.371858 
L 308.877928 202.295674 
L 309.212796 200.969855 
L 309.463947 202.295082 
L 309.631382 202.164023 
L 309.715099 202.40551 
L 310.049967 201.400694 
L 310.217401 201.927701 
L 310.301119 200.89691 
L 310.384836 201.154605 
L 310.468553 201.192479 
L 310.803421 201.856939 
L 311.054573 203.414469 
L 311.13829 203.550821 
L 311.222007 204.036372 
L 311.389441 203.506268 
L 311.473158 203.615634 
L 311.556875 203.39195 
L 311.808026 204.055092 
L 311.975461 205.772735 
L 312.226612 204.884055 
L 312.310329 205.294039 
L 312.477763 204.78444 
L 312.56148 204.560206 
L 312.896349 206.260782 
L 312.980066 206.244376 
L 313.231217 206.688751 
L 313.398652 206.274253 
L 313.482369 205.604464 
L 313.566086 206.215186 
L 313.649803 206.192948 
L 313.73352 205.847212 
L 313.817237 206.075219 
L 314.068388 207.660027 
L 314.152106 207.662827 
L 314.235823 207.09213 
L 314.31954 207.95584 
L 314.403257 207.726275 
L 314.486974 207.628682 
L 314.654408 207.924676 
L 314.738125 208.498369 
L 314.821842 207.881772 
L 314.905559 208.591618 
L 315.072994 207.435955 
L 315.156711 207.493113 
L 315.240428 207.557903 
L 315.491579 206.619759 
L 315.575296 207.995021 
L 315.659013 207.973898 
L 315.742731 207.443107 
L 315.826448 207.630051 
L 316.161316 205.248117 
L 316.496185 206.012058 
L 316.579902 205.926961 
L 316.747336 207.249561 
L 316.91477 207.828738 
L 317.082204 207.189961 
L 317.165921 207.413687 
L 317.50079 206.547631 
L 317.584507 207.176642 
L 317.668224 207.093846 
L 317.751941 207.255811 
L 318.003092 208.854708 
L 318.421678 206.971706 
L 318.589112 207.633952 
L 318.840264 206.789074 
L 318.923981 206.802787 
L 319.091415 207.489965 
L 319.175132 207.37075 
L 319.258849 207.090212 
L 319.342566 207.202431 
L 319.51 208.573029 
L 319.593718 208.713562 
L 319.677435 208.484798 
L 320.012303 206.355505 
L 320.09602 207.063971 
L 320.179737 206.911594 
L 320.347172 207.437665 
L 320.514606 207.150179 
L 320.68204 205.712371 
L 320.765757 205.637799 
L 320.933191 206.149643 
L 321.016908 205.876723 
L 321.100625 206.702563 
L 321.184343 206.336541 
L 321.26806 206.602388 
L 321.351777 206.35725 
L 321.435494 206.740321 
L 321.602928 206.20365 
L 321.686645 206.858306 
L 321.770362 206.702423 
L 322.021514 204.859809 
L 322.188948 204.794258 
L 322.356382 205.581614 
L 322.440099 205.241061 
L 322.523816 205.584534 
L 322.607533 205.100429 
L 322.774968 205.697245 
L 322.942402 205.162493 
L 323.026119 205.423234 
L 323.109836 205.215588 
L 323.360987 206.446822 
L 323.444705 206.422089 
L 323.612139 207.32803 
L 323.86329 206.862408 
L 323.947007 206.986322 
L 324.114441 206.537832 
L 324.198158 206.906689 
L 324.281876 206.617196 
L 324.44931 206.831505 
L 324.616744 206.112246 
L 324.700461 206.334458 
L 324.951612 205.001692 
L 325.03533 205.154775 
L 325.286481 204.295845 
L 325.370198 204.714361 
L 325.705066 203.258234 
L 325.872501 204.438371 
L 325.956218 204.465765 
L 326.039935 204.066301 
L 326.123652 204.421474 
L 326.542238 203.307089 
L 326.625955 203.810641 
L 326.793389 203.448669 
L 326.960823 203.755281 
L 327.211974 202.502705 
L 327.295691 202.720598 
L 327.379409 202.458127 
L 327.463126 202.587908 
L 327.546843 202.51601 
L 327.63056 203.112981 
L 327.881711 201.831835 
L 327.965428 202.386742 
L 328.21658 201.484993 
L 328.384014 202.945355 
L 328.467731 202.195656 
L 328.551448 202.586863 
L 328.802599 201.942386 
L 328.886317 202.023119 
L 329.053751 203.109563 
L 329.137468 202.932878 
L 329.304902 203.737764 
L 329.388619 204.129456 
L 329.556053 203.762701 
L 329.639771 203.733508 
L 329.723488 203.946688 
L 329.807205 203.53747 
L 329.974639 204.062457 
L 330.058356 203.915966 
L 330.393224 202.772592 
L 330.476942 202.820962 
L 330.728093 204.203418 
L 330.895527 203.04205 
L 330.979244 203.076814 
L 331.314113 202.258305 
L 331.565264 200.865773 
L 331.648981 201.783112 
L 331.732698 201.01046 
L 331.816415 201.456435 
L 331.900132 201.078699 
L 332.067567 201.768161 
L 332.235001 201.570274 
L 332.486152 200.315476 
L 332.737304 201.877874 
L 332.821021 201.781083 
L 332.988455 203.240014 
L 333.072172 202.809982 
L 333.155889 202.921157 
L 333.239606 202.896926 
L 333.323323 203.525171 
L 333.490757 202.417644 
L 333.658192 202.264569 
L 333.741909 202.097054 
L 333.909343 203.273078 
L 333.99306 203.203944 
L 334.076777 202.447634 
L 334.327929 203.130942 
L 334.411646 202.899655 
L 334.495363 203.179507 
L 334.57908 203.029956 
L 334.830231 201.677476 
L 334.997665 201.577848 
L 335.081383 201.144201 
L 335.332534 202.215415 
L 335.332534 202.215415 
" clip-path="url(#pd4866dd1a6)" style="fill: none; stroke: #0066c0; stroke-width: 3; stroke-linecap: square"/>
   </g>
   <g id="line2d_11">
    <path d="M 62.92125 266.810876 
L 348.3045 266.810876 
" clip-path="url(#pd4866dd1a6)" style="fill: none; stroke-dasharray: 11.1,4.8; stroke-dashoffset: 0; stroke: #ff9640; stroke-opacity: 0.7; stroke-width: 3"/>
   </g>
   <g id="patch_3">
    <path d="M 62.92125 277.14101 
L 62.92125 49.878052 
" style="fill: none; stroke: #000000; stroke-width: 0.8; stroke-linejoin: miter; stroke-linecap: square"/>
   </g>
   <g id="patch_4">
    <path d="M 348.3045 277.14101 
L 348.3045 49.878052 
" style="fill: none; stroke: #000000; stroke-width: 0.8; stroke-linejoin: miter; stroke-linecap: square"/>
   </g>
   <g id="patch_5">
    <path d="M 62.92125 277.14101 
L 348.3045 277.14101 
" style="fill: none; stroke: #000000; stroke-width: 0.8; stroke-linejoin: miter; stroke-linecap: square"/>
   </g>
   <g id="patch_6">
    <path d="M 62.92125 49.878052 
L 348.3045 49.878052 
" style="fill: none; stroke: #000000; stroke-width: 0.8; stroke-linejoin: miter; stroke-linecap: square"/>
   </g>
   <g id="text_12">
    <!-- Training eval: forwards KL vs Qwen-32B -->
    <g transform="translate(66.851 43.878052) scale(0.14 -0.14)">
     <defs>
      <path id="DejaVuSans-54" d="M -19 4666 
L 3928 4666 
L 3928 4134 
L 2272 4134 
L 2272 0 
L 1638 0 
L 1638 4134 
L -19 4134 
L -19 4666 
z
" transform="scale(0.015625)"/>
      <path id="DejaVuSans-69" d="M 603 3500 
L 1178 3500 
L 1178 0 
L 603 0 
L 603 3500 
z
M 603 4863 
L 1178 4863 
L 1178 4134 
L 603 4134 
L 603 4863 
z
" transform="scale(0.015625)"/>
      <path id="DejaVuSans-6e" d="M 3513 2113 
L 3513 0 
L 2938 0 
L 2938 2094 
Q 2938 2591 2744 2837 
Q 2550 3084 2163 3084 
Q 1697 3084 1428 2787 
Q 1159 2491 1159 1978 
L 1159 0 
L 581 0 
L 581 3500 
L 1159 3500 
L 1159 2956 
Q 1366 3272 1645 3428 
Q 1925 3584 2291 3584 
Q 2894 3584 3203 3211 
Q 3513 2838 3513 2113 
z
" transform="scale(0.015625)"/>
      <path id="DejaVuSans-67" d="M 2906 1791 
Q 2906 2416 2648 2759 
Q 2391 3103 1925 3103 
Q 1463 3103 1205 2759 
Q 947 2416 947 1791 
Q 947 1169 1205 825 
Q 1463 481 1925 481 
Q 2391 481 2648 825 
Q 2906 1169 2906 1791 
z
M 3481 434 
Q 3481 -459 3084 -895 
Q 2688 -1331 1869 -1331 
Q 1566 -1331 1297 -1286 
Q 1028 -1241 775 -1147 
L 775 -588 
Q 1028 -725 1275 -790 
Q 1522 -856 1778 -856 
Q 2344 -856 2625 -561 
Q 2906 -266 2906 331 
L 2906 616 
Q 2728 306 2450 153 
Q 2172 0 1784 0 
Q 1141 0 747 490 
Q 353 981 353 1791 
Q 353 2603 747 3093 
Q 1141 3584 1784 3584 
Q 2172 3584 2450 3431 
Q 2728 3278 2906 2969 
L 2906 3500 
L 3481 3500 
L 3481 434 
z
" transform="scale(0.015625)"/>
      <path id="DejaVuSans-76" d="M 191 3500 
L 800 3500 
L 1894 563 
L 2988 3500 
L 3597 3500 
L 2284 0 
L 1503 0 
L 191 3500 
z
" transform="scale(0.015625)"/>
      <path id="DejaVuSans-6c" d="M 603 4863 
L 1178 4863 
L 1178 0 
L 603 0 
L 603 4863 
z
" transform="scale(0.015625)"/>
      <path id="DejaVuSans-3a" d="M 750 794 
L 1409 794 
L 1409 0 
L 750 0 
L 750 794 
z
M 750 3309 
L 1409 3309 
L 1409 2516 
L 750 2516 
L 750 3309 
z
" transform="scale(0.015625)"/>
      <path id="DejaVuSans-66" d="M 2375 4863 
L 2375 4384 
L 1825 4384 
Q 1516 4384 1395 4259 
Q 1275 4134 1275 3809 
L 1275 3500 
L 2222 3500 
L 2222 3053 
L 1275 3053 
L 1275 0 
L 697 0 
L 697 3053 
L 147 3053 
L 147 3500 
L 697 3500 
L 697 3744 
Q 697 4328 969 4595 
Q 1241 4863 1831 4863 
L 2375 4863 
z
" transform="scale(0.015625)"/>
      <path id="DejaVuSans-51" d="M 2522 4238 
Q 1834 4238 1429 3725 
Q 1025 3213 1025 2328 
Q 1025 1447 1429 934 
Q 1834 422 2522 422 
Q 3209 422 3611 934 
Q 4013 1447 4013 2328 
Q 4013 3213 3611 3725 
Q 3209 4238 2522 4238 
z
M 3406 84 
L 4238 -825 
L 3475 -825 
L 2784 -78 
Q 2681 -84 2626 -87 
Q 2572 -91 2522 -91 
Q 1538 -91 948 567 
Q 359 1225 359 2328 
Q 359 3434 948 4092 
Q 1538 4750 2522 4750 
Q 3503 4750 4090 4092 
Q 4678 3434 4678 2328 
Q 4678 1516 4351 937 
Q 4025 359 3406 84 
z
" transform="scale(0.015625)"/>
      <path id="DejaVuSans-2d" d="M 313 2009 
L 1997 2009 
L 1997 1497 
L 313 1497 
L 313 2009 
z
" transform="scale(0.015625)"/>
      <path id="DejaVuSans-42" d="M 1259 2228 
L 1259 519 
L 2272 519 
Q 2781 519 3026 730 
Q 3272 941 3272 1375 
Q 3272 1813 3026 2020 
Q 2781 2228 2272 2228 
L 1259 2228 
z
M 1259 4147 
L 1259 2741 
L 2194 2741 
Q 2656 2741 2882 2914 
Q 3109 3088 3109 3444 
Q 3109 3797 2882 3972 
Q 2656 4147 2194 4147 
L 1259 4147 
z
M 628 4666 
L 2241 4666 
Q 2963 4666 3353 4366 
Q 3744 4066 3744 3513 
Q 3744 3084 3544 2831 
Q 3344 2578 2956 2516 
Q 3422 2416 3680 2098 
Q 3938 1781 3938 1306 
Q 3938 681 3513 340 
Q 3088 0 2303 0 
L 628 0 
L 628 4666 
z
" transform="scale(0.015625)"/>
     </defs>
     <use xlink:href="#DejaVuSans-54"/>
     <use xlink:href="#DejaVuSans-72" transform="translate(46.333984 0)"/>
     <use xlink:href="#DejaVuSans-61" transform="translate(87.447266 0)"/>
     <use xlink:href="#DejaVuSans-69" transform="translate(148.726562 0)"/>
     <use xlink:href="#DejaVuSans-6e" transform="translate(176.509766 0)"/>
     <use xlink:href="#DejaVuSans-69" transform="translate(239.888672 0)"/>
     <use xlink:href="#DejaVuSans-6e" transform="translate(267.671875 0)"/>
     <use xlink:href="#DejaVuSans-67" transform="translate(331.050781 0)"/>
     <use xlink:href="#DejaVuSans-20" transform="translate(394.527344 0)"/>
     <use xlink:href="#DejaVuSans-65" transform="translate(426.314453 0)"/>
     <use xlink:href="#DejaVuSans-76" transform="translate(487.837891 0)"/>
     <use xlink:href="#DejaVuSans-61" transform="translate(547.017578 0)"/>
     <use xlink:href="#DejaVuSans-6c" transform="translate(608.296875 0)"/>
     <use xlink:href="#DejaVuSans-3a" transform="translate(636.080078 0)"/>
     <use xlink:href="#DejaVuSans-20" transform="translate(669.771484 0)"/>
     <use xlink:href="#DejaVuSans-66" transform="translate(701.558594 0)"/>
     <use xlink:href="#DejaVuSans-6f" transform="translate(736.763672 0)"/>
     <use xlink:href="#DejaVuSans-72" transform="translate(797.945312 0)"/>
     <use xlink:href="#DejaVuSans-77" transform="translate(839.058594 0)"/>
     <use xlink:href="#DejaVuSans-61" transform="translate(920.845703 0)"/>
     <use xlink:href="#DejaVuSans-72" transform="translate(982.125 0)"/>
     <use xlink:href="#DejaVuSans-64" transform="translate(1021.488281 0)"/>
     <use xlink:href="#DejaVuSans-73" transform="translate(1084.964844 0)"/>
     <use xlink:href="#DejaVuSans-20" transform="translate(1137.064453 0)"/>
     <use xlink:href="#DejaVuSans-4b" transform="translate(1168.851562 0)"/>
     <use xlink:href="#DejaVuSans-4c" transform="translate(1234.427734 0)"/>
     <use xlink:href="#DejaVuSans-20" transform="translate(1290.140625 0)"/>
     <use xlink:href="#DejaVuSans-76" transform="translate(1321.927734 0)"/>
     <use xlink:href="#DejaVuSans-73" transform="translate(1381.107422 0)"/>
     <use xlink:href="#DejaVuSans-20" transform="translate(1433.207031 0)"/>
     <use xlink:href="#DejaVuSans-51" transform="translate(1464.994141 0)"/>
     <use xlink:href="#DejaVuSans-77" transform="translate(1543.705078 0)"/>
     <use xlink:href="#DejaVuSans-65" transform="translate(1625.492188 0)"/>
     <use xlink:href="#DejaVuSans-6e" transform="translate(1687.015625 0)"/>
     <use xlink:href="#DejaVuSans-2d" transform="translate(1750.394531 0)"/>
     <use xlink:href="#DejaVuSans-33" transform="translate(1786.478516 0)"/>
     <use xlink:href="#DejaVuSans-32" transform="translate(1850.101562 0)"/>
     <use xlink:href="#DejaVuSans-42" transform="translate(1913.724609 0)"/>
    </g>
   </g>
   <g id="legend_1">
    <g id="line2d_12">
     <path d="M 148.093875 65.596177 
L 160.093875 65.596177 
L 172.093875 65.596177 
" style="fill: none; stroke: #0066c0; stroke-width: 3; stroke-linecap: square"/>
    </g>
    <g id="text_13">
     <!-- Full finetuning + linear LR -->
     <g transform="translate(181.693875 69.796177) scale(0.12 -0.12)">
      <defs>
       <path id="DejaVuSans-75" d="M 544 1381 
L 544 3500 
L 1119 3500 
L 1119 1403 
Q 1119 906 1312 657 
Q 1506 409 1894 409 
Q 2359 409 2629 706 
Q 2900 1003 2900 1516 
L 2900 3500 
L 3475 3500 
L 3475 0 
L 2900 0 
L 2900 538 
Q 2691 219 2414 64 
Q 2138 -91 1772 -91 
Q 1169 -91 856 284 
Q 544 659 544 1381 
z
M 1991 3584 
L 1991 3584 
z
" transform="scale(0.015625)"/>
       <path id="DejaVuSans-2b" d="M 2944 4013 
L 2944 2272 
L 4684 2272 
L 4684 1741 
L 2944 1741 
L 2944 0 
L 2419 0 
L 2419 1741 
L 678 1741 
L 678 2272 
L 2419 2272 
L 2419 4013 
L 2944 4013 
z
" transform="scale(0.015625)"/>
       <path id="DejaVuSans-52" d="M 2841 2188 
Q 3044 2119 3236 1894 
Q 3428 1669 3622 1275 
L 4263 0 
L 3584 0 
L 2988 1197 
Q 2756 1666 2539 1819 
Q 2322 1972 1947 1972 
L 1259 1972 
L 1259 0 
L 628 0 
L 628 4666 
L 2053 4666 
Q 2853 4666 3247 4331 
Q 3641 3997 3641 3322 
Q 3641 2881 3436 2590 
Q 3231 2300 2841 2188 
z
M 1259 4147 
L 1259 2491 
L 2053 2491 
Q 2509 2491 2742 2702 
Q 2975 2913 2975 3322 
Q 2975 3731 2742 3939 
Q 2509 4147 2053 4147 
L 1259 4147 
z
" transform="scale(0.015625)"/>
      </defs>
      <use xlink:href="#DejaVuSans-46"/>
      <use xlink:href="#DejaVuSans-75" transform="translate(52.019531 0)"/>
      <use xlink:href="#DejaVuSans-6c" transform="translate(115.398438 0)"/>
      <use xlink:href="#DejaVuSans-6c" transform="translate(143.181641 0)"/>
      <use xlink:href="#DejaVuSans-20" transform="translate(170.964844 0)"/>
      <use xlink:href="#DejaVuSans-66" transform="translate(202.751953 0)"/>
      <use xlink:href="#DejaVuSans-69" transform="translate(237.957031 0)"/>
      <use xlink:href="#DejaVuSans-6e" transform="translate(265.740234 0)"/>
      <use xlink:href="#DejaVuSans-65" transform="translate(329.119141 0)"/>
      <use xlink:href="#DejaVuSans-74" transform="translate(390.642578 0)"/>
      <use xlink:href="#DejaVuSans-75" transform="translate(429.851562 0)"/>
      <use xlink:href="#DejaVuSans-6e" transform="translate(493.230469 0)"/>
      <use xlink:href="#DejaVuSans-69" transform="translate(556.609375 0)"/>
      <use xlink:href="#DejaVuSans-6e" transform="translate(584.392578 0)"/>
      <use xlink:href="#DejaVuSans-67" transform="translate(647.771484 0)"/>
      <use xlink:href="#DejaVuSans-20" transform="translate(711.248047 0)"/>
      <use xlink:href="#DejaVuSans-2b" transform="translate(743.035156 0)"/>
      <use xlink:href="#DejaVuSans-20" transform="translate(826.824219 0)"/>
      <use xlink:href="#DejaVuSans-6c" transform="translate(858.611328 0)"/>
      <use xlink:href="#DejaVuSans-69" transform="translate(886.394531 0)"/>
      <use xlink:href="#DejaVuSans-6e" transform="translate(914.177734 0)"/>
      <use xlink:href="#DejaVuSans-65" transform="translate(977.556641 0)"/>
      <use xlink:href="#DejaVuSans-61" transform="translate(1039.080078 0)"/>
      <use xlink:href="#DejaVuSans-72" transform="translate(1100.359375 0)"/>
      <use xlink:href="#DejaVuSans-20" transform="translate(1141.472656 0)"/>
      <use xlink:href="#DejaVuSans-4c" transform="translate(1173.259766 0)"/>
      <use xlink:href="#DejaVuSans-52" transform="translate(1228.972656 0)"/>
     </g>
    </g>
    <g id="line2d_13">
     <path d="M 148.093875 83.209927 
L 160.093875 83.209927 
L 172.093875 83.209927 
" style="fill: none; stroke-dasharray: 11.1,4.8; stroke-dashoffset: 0; stroke: #ff9640; stroke-opacity: 0.7; stroke-width: 3"/>
    </g>
    <g id="text_14">
     <!-- Qwen-32B -->
     <g transform="translate(181.693875 87.409927) scale(0.12 -0.12)">
      <use xlink:href="#DejaVuSans-51"/>
      <use xlink:href="#DejaVuSans-77" transform="translate(78.710938 0)"/>
      <use xlink:href="#DejaVuSans-65" transform="translate(160.498047 0)"/>
      <use xlink:href="#DejaVuSans-6e" transform="translate(222.021484 0)"/>
      <use xlink:href="#DejaVuSans-2d" transform="translate(285.400391 0)"/>
      <use xlink:href="#DejaVuSans-33" transform="translate(321.484375 0)"/>
      <use xlink:href="#DejaVuSans-32" transform="translate(385.107422 0)"/>
      <use xlink:href="#DejaVuSans-42" transform="translate(448.730469 0)"/>
     </g>
    </g>
   </g>
  </g>
  <g id="axes_2">
   <g id="patch_7">
    <path d="M 422.02575 277.14101 
L 707.409 277.14101 
L 707.409 49.878052 
L 422.02575 49.878052 
z
" style="fill: #ffffff"/>
   </g>
   <g id="matplotlib.axis_3">
    <g id="xtick_5">
     <g id="line2d_14">
      <g>
       <use xlink:href="#m5154dde1bd" x="434.997716" y="277.14101" style="stroke: #000000; stroke-width: 0.8"/>
      </g>
     </g>
     <g id="text_15">
      <!-- 0 -->
      <g transform="translate(430.543966 294.778822) scale(0.14 -0.14)">
       <use xlink:href="#DejaVuSans-30"/>
      </g>
     </g>
    </g>
    <g id="xtick_6">
     <g id="line2d_15">
      <g>
       <use xlink:href="#m5154dde1bd" x="524.459549" y="277.14101" style="stroke: #000000; stroke-width: 0.8"/>
      </g>
     </g>
     <g id="text_16">
      <!-- 1000 -->
      <g transform="translate(506.644549 294.778822) scale(0.14 -0.14)">
       <use xlink:href="#DejaVuSans-31"/>
       <use xlink:href="#DejaVuSans-30" transform="translate(63.623047 0)"/>
       <use xlink:href="#DejaVuSans-30" transform="translate(127.246094 0)"/>
       <use xlink:href="#DejaVuSans-30" transform="translate(190.869141 0)"/>
      </g>
     </g>
    </g>
    <g id="xtick_7">
     <g id="line2d_16">
      <g>
       <use xlink:href="#m5154dde1bd" x="613.921383" y="277.14101" style="stroke: #000000; stroke-width: 0.8"/>
      </g>
     </g>
     <g id="text_17">
      <!-- 2000 -->
      <g transform="translate(596.106383 294.778822) scale(0.14 -0.14)">
       <use xlink:href="#DejaVuSans-32"/>
       <use xlink:href="#DejaVuSans-30" transform="translate(63.623047 0)"/>
       <use xlink:href="#DejaVuSans-30" transform="translate(127.246094 0)"/>
       <use xlink:href="#DejaVuSans-30" transform="translate(190.869141 0)"/>
      </g>
     </g>
    </g>
    <g id="xtick_8">
     <g id="line2d_17">
      <g>
       <use xlink:href="#m5154dde1bd" x="703.383217" y="277.14101" style="stroke: #000000; stroke-width: 0.8"/>
      </g>
     </g>
     <g id="text_18">
      <!-- 3000 -->
      <g transform="translate(685.568217 294.778822) scale(0.14 -0.14)">
       <use xlink:href="#DejaVuSans-33"/>
       <use xlink:href="#DejaVuSans-30" transform="translate(63.623047 0)"/>
       <use xlink:href="#DejaVuSans-30" transform="translate(127.246094 0)"/>
       <use xlink:href="#DejaVuSans-30" transform="translate(190.869141 0)"/>
      </g>
     </g>
    </g>
    <g id="text_19">
     <!-- Step -->
     <g transform="translate(548.778156 312.328197) scale(0.14 -0.14)">
      <use xlink:href="#DejaVuSans-53"/>
      <use xlink:href="#DejaVuSans-74" transform="translate(63.476562 0)"/>
      <use xlink:href="#DejaVuSans-65" transform="translate(102.685547 0)"/>
      <use xlink:href="#DejaVuSans-70" transform="translate(164.208984 0)"/>
     </g>
    </g>
   </g>
   <g id="matplotlib.axis_4">
    <g id="ytick_6">
     <g id="line2d_18">
      <g>
       <use xlink:href="#m3c258b8c06" x="422.02575" y="254.970721" style="stroke: #000000; stroke-width: 0.8"/>
      </g>
     </g>
     <g id="text_20">
      <!-- 0.76 -->
      <g transform="translate(383.853875 260.289628) scale(0.14 -0.14)">
       <defs>
        <path id="DejaVuSans-37" d="M 525 4666 
L 3525 4666 
L 3525 4397 
L 1831 0 
L 1172 0 
L 2766 4134 
L 525 4134 
L 525 4666 
z
" transform="scale(0.015625)"/>
       </defs>
       <use xlink:href="#DejaVuSans-30"/>
       <use xlink:href="#DejaVuSans-2e" transform="translate(63.623047 0)"/>
       <use xlink:href="#DejaVuSans-37" transform="translate(95.410156 0)"/>
       <use xlink:href="#DejaVuSans-36" transform="translate(159.033203 0)"/>
      </g>
     </g>
    </g>
    <g id="ytick_7">
     <g id="line2d_19">
      <g>
       <use xlink:href="#m3c258b8c06" x="422.02575" y="211.690158" style="stroke: #000000; stroke-width: 0.8"/>
      </g>
     </g>
     <g id="text_21">
      <!-- 0.78 -->
      <g transform="translate(383.853875 217.009065) scale(0.14 -0.14)">
       <use xlink:href="#DejaVuSans-30"/>
       <use xlink:href="#DejaVuSans-2e" transform="translate(63.623047 0)"/>
       <use xlink:href="#DejaVuSans-37" transform="translate(95.410156 0)"/>
       <use xlink:href="#DejaVuSans-38" transform="translate(159.033203 0)"/>
      </g>
     </g>
    </g>
    <g id="ytick_8">
     <g id="line2d_20">
      <g>
       <use xlink:href="#m3c258b8c06" x="422.02575" y="168.409595" style="stroke: #000000; stroke-width: 0.8"/>
      </g>
     </g>
     <g id="text_22">
      <!-- 0.80 -->
      <g transform="translate(383.853875 173.728501) scale(0.14 -0.14)">
       <use xlink:href="#DejaVuSans-30"/>
       <use xlink:href="#DejaVuSans-2e" transform="translate(63.623047 0)"/>
       <use xlink:href="#DejaVuSans-38" transform="translate(95.410156 0)"/>
       <use xlink:href="#DejaVuSans-30" transform="translate(159.033203 0)"/>
      </g>
     </g>
    </g>
    <g id="ytick_9">
     <g id="line2d_21">
      <g>
       <use xlink:href="#m3c258b8c06" x="422.02575" y="125.129032" style="stroke: #000000; stroke-width: 0.8"/>
      </g>
     </g>
     <g id="text_23">
      <!-- 0.82 -->
      <g transform="translate(383.853875 130.447938) scale(0.14 -0.14)">
       <use xlink:href="#DejaVuSans-30"/>
       <use xlink:href="#DejaVuSans-2e" transform="translate(63.623047 0)"/>
       <use xlink:href="#DejaVuSans-38" transform="translate(95.410156 0)"/>
       <use xlink:href="#DejaVuSans-32" transform="translate(159.033203 0)"/>
      </g>
     </g>
    </g>
    <g id="ytick_10">
     <g id="line2d_22">
      <g>
       <use xlink:href="#m3c258b8c06" x="422.02575" y="81.848469" style="stroke: #000000; stroke-width: 0.8"/>
      </g>
     </g>
     <g id="text_24">
      <!-- 0.84 -->
      <g transform="translate(383.853875 87.167375) scale(0.14 -0.14)">
       <use xlink:href="#DejaVuSans-30"/>
       <use xlink:href="#DejaVuSans-2e" transform="translate(63.623047 0)"/>
       <use xlink:href="#DejaVuSans-38" transform="translate(95.410156 0)"/>
       <use xlink:href="#DejaVuSans-34" transform="translate(159.033203 0)"/>
      </g>
     </g>
    </g>
    <g id="text_25">
     <!-- Accuracy (strict prompt) -->
     <g transform="translate(376.942312 248.640469) rotate(-90) scale(0.14 -0.14)">
      <defs>
       <path id="DejaVuSans-41" d="M 2188 4044 
L 1331 1722 
L 3047 1722 
L 2188 4044 
z
M 1831 4666 
L 2547 4666 
L 4325 0 
L 3669 0 
L 3244 1197 
L 1141 1197 
L 716 0 
L 50 0 
L 1831 4666 
z
" transform="scale(0.015625)"/>
       <path id="DejaVuSans-63" d="M 3122 3366 
L 3122 2828 
Q 2878 2963 2633 3030 
Q 2388 3097 2138 3097 
Q 1578 3097 1268 2742 
Q 959 2388 959 1747 
Q 959 1106 1268 751 
Q 1578 397 2138 397 
Q 2388 397 2633 464 
Q 2878 531 3122 666 
L 3122 134 
Q 2881 22 2623 -34 
Q 2366 -91 2075 -91 
Q 1284 -91 818 406 
Q 353 903 353 1747 
Q 353 2603 823 3093 
Q 1294 3584 2113 3584 
Q 2378 3584 2631 3529 
Q 2884 3475 3122 3366 
z
" transform="scale(0.015625)"/>
       <path id="DejaVuSans-79" d="M 2059 -325 
Q 1816 -950 1584 -1140 
Q 1353 -1331 966 -1331 
L 506 -1331 
L 506 -850 
L 844 -850 
Q 1081 -850 1212 -737 
Q 1344 -625 1503 -206 
L 1606 56 
L 191 3500 
L 800 3500 
L 1894 763 
L 2988 3500 
L 3597 3500 
L 2059 -325 
z
" transform="scale(0.015625)"/>
       <path id="DejaVuSans-28" d="M 1984 4856 
Q 1566 4138 1362 3434 
Q 1159 2731 1159 2009 
Q 1159 1288 1364 580 
Q 1569 -128 1984 -844 
L 1484 -844 
Q 1016 -109 783 600 
Q 550 1309 550 2009 
Q 550 2706 781 3412 
Q 1013 4119 1484 4856 
L 1984 4856 
z
" transform="scale(0.015625)"/>
       <path id="DejaVuSans-6d" d="M 3328 2828 
Q 3544 3216 3844 3400 
Q 4144 3584 4550 3584 
Q 5097 3584 5394 3201 
Q 5691 2819 5691 2113 
L 5691 0 
L 5113 0 
L 5113 2094 
Q 5113 2597 4934 2840 
Q 4756 3084 4391 3084 
Q 3944 3084 3684 2787 
Q 3425 2491 3425 1978 
L 3425 0 
L 2847 0 
L 2847 2094 
Q 2847 2600 2669 2842 
Q 2491 3084 2119 3084 
Q 1678 3084 1418 2786 
Q 1159 2488 1159 1978 
L 1159 0 
L 581 0 
L 581 3500 
L 1159 3500 
L 1159 2956 
Q 1356 3278 1631 3431 
Q 1906 3584 2284 3584 
Q 2666 3584 2933 3390 
Q 3200 3197 3328 2828 
z
" transform="scale(0.015625)"/>
       <path id="DejaVuSans-29" d="M 513 4856 
L 1013 4856 
Q 1481 4119 1714 3412 
Q 1947 2706 1947 2009 
Q 1947 1309 1714 600 
Q 1481 -109 1013 -844 
L 513 -844 
Q 928 -128 1133 580 
Q 1338 1288 1338 2009 
Q 1338 2731 1133 3434 
Q 928 4138 513 4856 
z
" transform="scale(0.015625)"/>
      </defs>
      <use xlink:href="#DejaVuSans-41"/>
      <use xlink:href="#DejaVuSans-63" transform="translate(66.658203 0)"/>
      <use xlink:href="#DejaVuSans-63" transform="translate(121.638672 0)"/>
      <use xlink:href="#DejaVuSans-75" transform="translate(176.619141 0)"/>
      <use xlink:href="#DejaVuSans-72" transform="translate(239.998047 0)"/>
      <use xlink:href="#DejaVuSans-61" transform="translate(281.111328 0)"/>
      <use xlink:href="#DejaVuSans-63" transform="translate(342.390625 0)"/>
      <use xlink:href="#DejaVuSans-79" transform="translate(397.371094 0)"/>
      <use xlink:href="#DejaVuSans-20" transform="translate(456.550781 0)"/>
      <use xlink:href="#DejaVuSans-28" transform="translate(488.337891 0)"/>
      <use xlink:href="#DejaVuSans-73" transform="translate(527.351562 0)"/>
      <use xlink:href="#DejaVuSans-74" transform="translate(579.451172 0)"/>
      <use xlink:href="#DejaVuSans-72" transform="translate(618.660156 0)"/>
      <use xlink:href="#DejaVuSans-69" transform="translate(659.773438 0)"/>
      <use xlink:href="#DejaVuSans-63" transform="translate(687.556641 0)"/>
      <use xlink:href="#DejaVuSans-74" transform="translate(742.537109 0)"/>
      <use xlink:href="#DejaVuSans-20" transform="translate(781.746094 0)"/>
      <use xlink:href="#DejaVuSans-70" transform="translate(813.533203 0)"/>
      <use xlink:href="#DejaVuSans-72" transform="translate(877.009766 0)"/>
      <use xlink:href="#DejaVuSans-6f" transform="translate(915.873047 0)"/>
      <use xlink:href="#DejaVuSans-6d" transform="translate(977.054688 0)"/>
      <use xlink:href="#DejaVuSans-70" transform="translate(1074.466797 0)"/>
      <use xlink:href="#DejaVuSans-74" transform="translate(1137.943359 0)"/>
      <use xlink:href="#DejaVuSans-29" transform="translate(1177.152344 0)"/>
     </g>
    </g>
   </g>
   <g id="line2d_23">
    <path d="M 434.997716 60.208187 
L 461.836266 258.810771 
L 470.782449 257.210751 
L 479.728633 263.610834 
L 488.674816 260.410792 
L 497.620999 266.810876 
L 506.567183 258.810771 
L 515.513366 249.210647 
L 524.459549 239.610522 
L 533.405733 222.810303 
L 542.351916 227.610365 
L 551.2981 230.010397 
L 560.244283 220.410272 
L 569.190466 222.810303 
L 578.13665 228.410376 
L 587.082833 211.610157 
L 596.029016 202.810043 
L 604.9752 211.610157 
L 613.921383 210.810147 
L 622.867567 204.410064 
L 631.81375 203.610053 
L 640.759933 192.409907 
L 649.706117 179.609741 
L 658.6523 175.609689 
L 667.598483 174.809678 
L 676.544667 169.209605 
L 685.49085 173.209657 
L 694.437034 184.409803 
" clip-path="url(#pbb70bcf001)" style="fill: none; stroke: #0066c0; stroke-width: 3; stroke-linecap: square"/>
   </g>
   <g id="line2d_24">
    <path d="M 422.02575 60.208187 
L 707.409 60.208187 
" clip-path="url(#pbb70bcf001)" style="fill: none; stroke-dasharray: 11.1,4.8; stroke-dashoffset: 0; stroke: #ff9640; stroke-opacity: 0.7; stroke-width: 3"/>
   </g>
   <g id="patch_8">
    <path d="M 422.02575 277.14101 
L 422.02575 49.878052 
" style="fill: none; stroke: #000000; stroke-width: 0.8; stroke-linejoin: miter; stroke-linecap: square"/>
   </g>
   <g id="patch_9">
    <path d="M 707.409 277.14101 
L 707.409 49.878052 
" style="fill: none; stroke: #000000; stroke-width: 0.8; stroke-linejoin: miter; stroke-linecap: square"/>
   </g>
   <g id="patch_10">
    <path d="M 422.02575 277.14101 
L 707.409 277.14101 
" style="fill: none; stroke: #000000; stroke-width: 0.8; stroke-linejoin: miter; stroke-linecap: square"/>
   </g>
   <g id="patch_11">
    <path d="M 422.02575 49.878052 
L 707.409 49.878052 
" style="fill: none; stroke: #000000; stroke-width: 0.8; stroke-linejoin: miter; stroke-linecap: square"/>
   </g>
   <g id="text_26">
    <!-- Sampling eval: IF-eval -->
    <g transform="translate(487.158468 43.878052) scale(0.14 -0.14)">
     <defs>
      <path id="DejaVuSans-49" d="M 628 4666 
L 1259 4666 
L 1259 0 
L 628 0 
L 628 4666 
z
" transform="scale(0.015625)"/>
     </defs>
     <use xlink:href="#DejaVuSans-53"/>
     <use xlink:href="#DejaVuSans-61" transform="translate(63.476562 0)"/>
     <use xlink:href="#DejaVuSans-6d" transform="translate(124.755859 0)"/>
     <use xlink:href="#DejaVuSans-70" transform="translate(222.167969 0)"/>
     <use xlink:href="#DejaVuSans-6c" transform="translate(285.644531 0)"/>
     <use xlink:href="#DejaVuSans-69" transform="translate(313.427734 0)"/>
     <use xlink:href="#DejaVuSans-6e" transform="translate(341.210938 0)"/>
     <use xlink:href="#DejaVuSans-67" transform="translate(404.589844 0)"/>
     <use xlink:href="#DejaVuSans-20" transform="translate(468.066406 0)"/>
     <use xlink:href="#DejaVuSans-65" transform="translate(499.853516 0)"/>
     <use xlink:href="#DejaVuSans-76" transform="translate(561.376953 0)"/>
     <use xlink:href="#DejaVuSans-61" transform="translate(620.556641 0)"/>
     <use xlink:href="#DejaVuSans-6c" transform="translate(681.835938 0)"/>
     <use xlink:href="#DejaVuSans-3a" transform="translate(709.619141 0)"/>
     <use xlink:href="#DejaVuSans-20" transform="translate(743.310547 0)"/>
     <use xlink:href="#DejaVuSans-49" transform="translate(775.097656 0)"/>
     <use xlink:href="#DejaVuSans-46" transform="translate(804.589844 0)"/>
     <use xlink:href="#DejaVuSans-2d" transform="translate(862.109375 0)"/>
     <use xlink:href="#DejaVuSans-65" transform="translate(898.193359 0)"/>
     <use xlink:href="#DejaVuSans-76" transform="translate(959.716797 0)"/>
     <use xlink:href="#DejaVuSans-61" transform="translate(1018.896484 0)"/>
     <use xlink:href="#DejaVuSans-6c" transform="translate(1080.175781 0)"/>
    </g>
   </g>
  </g>
  <g id="text_27">
   <!-- Running SFT on "on-policy" samples (Qwen-32B) -->
   <g transform="translate(193.984916 17.837812) scale(0.14 -0.14)">
    <defs>
     <path id="DejaVuSans-22" d="M 1147 4666 
L 1147 2931 
L 616 2931 
L 616 4666 
L 1147 4666 
z
M 2328 4666 
L 2328 2931 
L 1797 2931 
L 1797 4666 
L 2328 4666 
z
" transform="scale(0.015625)"/>
    </defs>
    <use xlink:href="#DejaVuSans-52"/>
    <use xlink:href="#DejaVuSans-75" transform="translate(64.982422 0)"/>
    <use xlink:href="#DejaVuSans-6e" transform="translate(128.361328 0)"/>
    <use xlink:href="#DejaVuSans-6e" transform="translate(191.740234 0)"/>
    <use xlink:href="#DejaVuSans-69" transform="translate(255.119141 0)"/>
    <use xlink:href="#DejaVuSans-6e" transform="translate(282.902344 0)"/>
    <use xlink:href="#DejaVuSans-67" transform="translate(346.28125 0)"/>
    <use xlink:href="#DejaVuSans-20" transform="translate(409.757812 0)"/>
    <use xlink:href="#DejaVuSans-53" transform="translate(441.544922 0)"/>
    <use xlink:href="#DejaVuSans-46" transform="translate(505.021484 0)"/>
    <use xlink:href="#DejaVuSans-54" transform="translate(560.791016 0)"/>
    <use xlink:href="#DejaVuSans-20" transform="translate(621.875 0)"/>
    <use xlink:href="#DejaVuSans-6f" transform="translate(653.662109 0)"/>
    <use xlink:href="#DejaVuSans-6e" transform="translate(714.84375 0)"/>
    <use xlink:href="#DejaVuSans-20" transform="translate(778.222656 0)"/>
    <use xlink:href="#DejaVuSans-22" transform="translate(810.009766 0)"/>
    <use xlink:href="#DejaVuSans-6f" transform="translate(856.005859 0)"/>
    <use xlink:href="#DejaVuSans-6e" transform="translate(917.1875 0)"/>
    <use xlink:href="#DejaVuSans-2d" transform="translate(980.566406 0)"/>
    <use xlink:href="#DejaVuSans-70" transform="translate(1016.650391 0)"/>
    <use xlink:href="#DejaVuSans-6f" transform="translate(1080.126953 0)"/>
    <use xlink:href="#DejaVuSans-6c" transform="translate(1141.308594 0)"/>
    <use xlink:href="#DejaVuSans-69" transform="translate(1169.091797 0)"/>
    <use xlink:href="#DejaVuSans-63" transform="translate(1196.875 0)"/>
    <use xlink:href="#DejaVuSans-79" transform="translate(1251.855469 0)"/>
    <use xlink:href="#DejaVuSans-22" transform="translate(1311.035156 0)"/>
    <use xlink:href="#DejaVuSans-20" transform="translate(1357.03125 0)"/>
    <use xlink:href="#DejaVuSans-73" transform="translate(1388.818359 0)"/>
    <use xlink:href="#DejaVuSans-61" transform="translate(1440.917969 0)"/>
    <use xlink:href="#DejaVuSans-6d" transform="translate(1502.197266 0)"/>
    <use xlink:href="#DejaVuSans-70" transform="translate(1599.609375 0)"/>
    <use xlink:href="#DejaVuSans-6c" transform="translate(1663.085938 0)"/>
    <use xlink:href="#DejaVuSans-65" transform="translate(1690.869141 0)"/>
    <use xlink:href="#DejaVuSans-73" transform="translate(1752.392578 0)"/>
    <use xlink:href="#DejaVuSans-20" transform="translate(1804.492188 0)"/>
    <use xlink:href="#DejaVuSans-28" transform="translate(1836.279297 0)"/>
    <use xlink:href="#DejaVuSans-51" transform="translate(1875.292969 0)"/>
    <use xlink:href="#DejaVuSans-77" transform="translate(1954.003906 0)"/>
    <use xlink:href="#DejaVuSans-65" transform="translate(2035.791016 0)"/>
    <use xlink:href="#DejaVuSans-6e" transform="translate(2097.314453 0)"/>
    <use xlink:href="#DejaVuSans-2d" transform="translate(2160.693359 0)"/>
    <use xlink:href="#DejaVuSans-33" transform="translate(2196.777344 0)"/>
    <use xlink:href="#DejaVuSans-32" transform="translate(2260.400391 0)"/>
    <use xlink:href="#DejaVuSans-42" transform="translate(2324.023438 0)"/>
    <use xlink:href="#DejaVuSans-29" transform="translate(2392.626953 0)"/>
   </g>
  </g>
 </g>
 <defs>
  <clipPath id="pd4866dd1a6">
   <rect x="62.92125" y="49.878052" width="285.38325" height="227.262958"/>
  </clipPath>
  <clipPath id="pbb70bcf001">
   <rect x="422.02575" y="49.878052" width="285.38325" height="227.262958"/>
  </clipPath>
 </defs>
</svg>
