<svg width="660" height="150" viewBox="0 0 660 150" fill="none" xmlns="http://www.w3.org/2000/svg">
<rect width="660" height="150" fill="#F5F5F5"/>
<rect width="660" height="150" fill="white"/>
<g filter="url(#filter0_d_861_19346)">
<path d="M165.8 33.8C165.8 31.149 167.949 29 170.6 29H186.4C189.051 29 191.2 31.149 191.2 33.8V60.2C191.2 62.851 189.051 65 186.4 65H170.6C167.949 65 165.8 62.851 165.8 60.2V33.8Z" fill="#FF6340" fill-opacity="0.8" shape-rendering="crispEdges"/>
<path d="M170.6 29.5996H186.4C188.719 29.5996 190.6 31.4803 190.6 33.7998V60.2002C190.6 62.5197 188.719 64.4004 186.4 64.4004H170.6C168.28 64.4003 166.4 62.5196 166.4 60.2002V33.7998C166.4 31.4804 168.28 29.5997 170.6 29.5996Z" stroke="black" stroke-opacity="0.1" stroke-width="1.2" shape-rendering="crispEdges"/>
<text fill="black" xml:space="preserve" style="white-space: pre" font-family="Iowan Old Style BT" font-size="18" letter-spacing="0em"><tspan x="173" y="52.859">5</tspan></text>
</g>
<g filter="url(#filter1_d_861_19346)">
<path d="M198.2 33.8C198.2 31.149 200.349 29 203 29H222.8C225.451 29 227.6 31.149 227.6 33.8V60.2C227.6 62.851 225.451 65 222.8 65H203C200.349 65 198.2 62.851 198.2 60.2V33.8Z" fill="#FFCBBF" fill-opacity="0.8" shape-rendering="crispEdges"/>
<path d="M203 29.5996H222.8C225.119 29.5996 227 31.4803 227 33.7998V60.2002C227 62.5197 225.119 64.4004 222.8 64.4004H203C200.68 64.4003 198.8 62.5196 198.8 60.2002V33.7998C198.8 31.4804 200.68 29.5997 203 29.5996Z" stroke="black" stroke-opacity="0.1" stroke-width="1.2" shape-rendering="crispEdges"/>
<text fill="black" xml:space="preserve" style="white-space: pre" font-family="Iowan Old Style BT" font-size="18" letter-spacing="0em"><tspan x="205.4" y="52.859">+</tspan></text>
</g>
<g filter="url(#filter2_d_861_19346)">
<path d="M235.4 33.8C235.4 31.149 237.549 29 240.2 29H256C258.651 29 260.8 31.149 260.8 33.8V60.2C260.8 62.851 258.651 65 256 65H240.2C237.549 65 235.4 62.851 235.4 60.2V33.8Z" fill="#EA2B00" fill-opacity="0.9" shape-rendering="crispEdges"/>
<path d="M240.2 29.5996H256C258.319 29.5996 260.2 31.4803 260.2 33.7998V60.2002C260.2 62.5197 258.319 64.4004 256 64.4004H240.2C237.88 64.4003 236 62.5196 236 60.2002V33.7998C236 31.4804 237.88 29.5997 240.2 29.5996Z" stroke="black" stroke-opacity="0.1" stroke-width="1.2" shape-rendering="crispEdges"/>
<text fill="black" xml:space="preserve" style="white-space: pre" font-family="Iowan Old Style BT" font-size="18" letter-spacing="0em"><tspan x="242.6" y="52.859">2</tspan></text>
</g>
<g filter="url(#filter3_d_861_19346)">
<path d="M267.8 33.8C267.8 31.149 269.949 29 272.6 29H291.4C294.051 29 296.2 31.149 296.2 33.8V60.2C296.2 62.851 294.051 65 291.4 65H272.6C269.949 65 267.8 62.851 267.8 60.2V33.8Z" fill="#EA2B00" fill-opacity="0.8" shape-rendering="crispEdges"/>
<path d="M272.6 29.5996H291.4C293.719 29.5996 295.6 31.4803 295.6 33.7998V60.2002C295.6 62.5197 293.719 64.4004 291.4 64.4004H272.6C270.28 64.4003 268.4 62.5196 268.4 60.2002V33.7998C268.4 31.4804 270.28 29.5997 272.6 29.5996Z" stroke="black" stroke-opacity="0.1" stroke-width="1.2" shape-rendering="crispEdges"/>
<text fill="black" xml:space="preserve" style="white-space: pre" font-family="Iowan Old Style BT" font-size="18" letter-spacing="0em"><tspan x="275" y="52.859">is</tspan></text>
</g>
<g filter="url(#filter4_d_861_19346)">
<rect x="302.6" y="29" width="25.4" height="36" rx="4.8" fill="white" shape-rendering="crispEdges"/>
<rect x="303.2" y="29.6" width="24.2" height="34.8" rx="4.2" stroke="black" stroke-opacity="0.16" stroke-width="1.2" shape-rendering="crispEdges"/>
<text fill="black" xml:space="preserve" style="white-space: pre" font-family="Iowan Old Style BT" font-size="18" letter-spacing="0em"><tspan x="309.8" y="52.859">7</tspan></text>
</g>
<g filter="url(#filter5_d_861_19346)">
<rect x="335" y="29" width="28.8" height="36" rx="4.8" fill="white" shape-rendering="crispEdges"/>
<rect x="335.6" y="29.6" width="27.6" height="34.8" rx="4.2" stroke="black" stroke-opacity="0.16" stroke-width="1.2" shape-rendering="crispEdges"/>
<text fill="black" xml:space="preserve" style="white-space: pre" font-family="Iowan Old Style BT" font-size="18" letter-spacing="0em"><tspan x="346.4" y="52.859">,</tspan></text>
</g>
<g filter="url(#filter6_d_861_19346)">
<path d="M371 33.8C371 31.149 373.149 29 375.8 29H410.6C413.251 29 415.4 31.149 415.4 33.8V60.2C415.4 62.851 413.251 65 410.6 65H375.8C373.149 65 371 62.851 371 60.2V33.8Z" fill="#FF6340" fill-opacity="0.8" shape-rendering="crispEdges"/>
<path d="M375.8 29.5996H410.6C412.919 29.5996 414.8 31.4803 414.8 33.7998V60.2002C414.8 62.5197 412.919 64.4004 410.6 64.4004H375.8C373.48 64.4003 371.6 62.5196 371.6 60.2002V33.7998C371.6 31.4804 373.48 29.5997 375.8 29.5996Z" stroke="black" stroke-opacity="0.1" stroke-width="1.2" shape-rendering="crispEdges"/>
<text fill="black" xml:space="preserve" style="white-space: pre" font-family="Iowan Old Style BT" font-size="18" letter-spacing="0em"><tspan x="378.2" y="52.859">and</tspan></text>
</g>
<g filter="url(#filter7_d_861_19346)">
<path d="M422.6 33.8C422.6 31.149 424.749 29 427.4 29H443.2C445.851 29 448 31.149 448 33.8V60.2C448 62.851 445.851 65 443.2 65H427.4C424.749 65 422.6 62.851 422.6 60.2V33.8Z" fill="#FFCBBF" fill-opacity="0.8" shape-rendering="crispEdges"/>
<path d="M427.4 29.5996H443.2C445.519 29.5996 447.4 31.4803 447.4 33.7998V60.2002C447.4 62.5197 445.519 64.4004 443.2 64.4004H427.4C425.08 64.4003 423.2 62.5196 423.2 60.2002V33.7998C423.2 31.4804 425.08 29.5997 427.4 29.5996Z" stroke="black" stroke-opacity="0.1" stroke-width="1.2" shape-rendering="crispEdges"/>
<text fill="black" xml:space="preserve" style="white-space: pre" font-family="Iowan Old Style BT" font-size="18" letter-spacing="0em"><tspan x="429.8" y="52.859">7</tspan></text>
</g>
<g filter="url(#filter8_d_861_19346)">
<path d="M455 33.8C455 31.149 457.149 29 459.8 29H479.6C482.251 29 484.4 31.149 484.4 33.8V60.2C484.4 62.851 482.251 65 479.6 65H459.8C457.149 65 455 62.851 455 60.2V33.8Z" fill="#FFF1ED" shape-rendering="crispEdges"/>
<path d="M459.8 29.5996H479.6C481.919 29.5996 483.8 31.4803 483.8 33.7998V60.2002C483.8 62.5197 481.919 64.4004 479.6 64.4004H459.8C457.48 64.4003 455.6 62.5196 455.6 60.2002V33.7998C455.6 31.4804 457.48 29.5997 459.8 29.5996Z" stroke="black" stroke-opacity="0.16" stroke-width="1.2" shape-rendering="crispEdges"/>
<text fill="black" xml:space="preserve" style="white-space: pre" font-family="Iowan Old Style BT" font-size="18" letter-spacing="0em"><tspan x="462.2" y="52.859">&#xd7;</tspan></text>
</g>
<g filter="url(#filter9_d_861_19346)">
<rect x="492.2" y="29" width="25.4" height="36" rx="4.8" fill="white" shape-rendering="crispEdges"/>
<rect x="492.8" y="29.6" width="24.2" height="34.8" rx="4.2" stroke="black" stroke-opacity="0.16" stroke-width="1.2" shape-rendering="crispEdges"/>
<text fill="black" xml:space="preserve" style="white-space: pre" font-family="Iowan Old Style BT" font-size="18" letter-spacing="0em"><tspan x="499.4" y="52.859">3</tspan></text>
</g>
<g filter="url(#filter10_d_861_19346)">
<path d="M524.6 33.8C524.6 31.149 526.749 29 529.4 29H548.2C550.851 29 553 31.149 553 33.8V60.2C553 62.851 550.851 65 548.2 65H529.4C526.749 65 524.6 62.851 524.6 60.2V33.8Z" fill="#FFCBBF" shape-rendering="crispEdges"/>
<path d="M529.4 29.5996H548.2C550.519 29.5996 552.4 31.4803 552.4 33.7998V60.2002C552.4 62.5197 550.519 64.4004 548.2 64.4004H529.4C527.08 64.4003 525.2 62.5196 525.2 60.2002V33.7998C525.2 31.4804 527.08 29.5997 529.4 29.5996Z" stroke="black" stroke-opacity="0.1" stroke-width="1.2" shape-rendering="crispEdges"/>
<text fill="black" xml:space="preserve" style="white-space: pre" font-family="Iowan Old Style BT" font-size="18" letter-spacing="0em"><tspan x="531.8" y="52.859">is</tspan></text>
</g>
<g filter="url(#filter11_d_861_19346)">
<rect x="559.4" y="29" width="35.4" height="36" rx="4.8" fill="white" shape-rendering="crispEdges"/>
<rect x="560" y="29.6" width="34.2" height="34.8" rx="4.2" stroke="black" stroke-opacity="0.16" stroke-width="1.2" shape-rendering="crispEdges"/>
<text fill="black" xml:space="preserve" style="white-space: pre" font-family="Iowan Old Style BT" font-size="18" letter-spacing="0em"><tspan x="566.6" y="52.859">21</tspan></text>
</g>
<g filter="url(#filter12_d_861_19346)">
<rect x="601.4" y="29" width="28.8" height="36" rx="4.8" fill="white" shape-rendering="crispEdges"/>
<rect x="602" y="29.6" width="27.6" height="34.8" rx="4.2" stroke="black" stroke-opacity="0.16" stroke-width="1.2" shape-rendering="crispEdges"/>
<text fill="black" xml:space="preserve" style="white-space: pre" font-family="Iowan Old Style BT" font-size="18" letter-spacing="0em"><tspan x="612.8" y="52.859">.</tspan></text>
</g>
<text fill="#FF5731" xml:space="preserve" style="white-space: pre" font-family="SF Mono" font-size="10.8" font-weight="600" letter-spacing="0em"><tspan x="168.686" y="77.7395">40%</tspan></text>
<text fill="#FF7757" xml:space="preserve" style="white-space: pre" font-family="SF Mono" font-size="10.8" font-weight="600" letter-spacing="0em"><tspan x="203.486" y="77.7395">80%</tspan></text>
<text fill="#EC401A" xml:space="preserve" style="white-space: pre" font-family="SF Mono" font-size="10.8" font-weight="600" letter-spacing="0em"><tspan x="241.724" y="77.7395">5%</tspan></text>
<text fill="#EC401A" xml:space="preserve" style="white-space: pre" font-family="SF Mono" font-size="10.8" font-weight="600" letter-spacing="0em"><tspan x="271.886" y="77.7395">15%</tspan></text>
<text fill="black" xml:space="preserve" style="white-space: pre" font-family="SF Mono" font-size="10.8" font-weight="600" letter-spacing="0em"><tspan x="305.486" y="77.7395">99%</tspan></text>
<text fill="black" xml:space="preserve" style="white-space: pre" font-family="SF Mono" font-size="10.8" font-weight="600" letter-spacing="0em"><tspan x="340.286" y="77.7395">99%</tspan></text>
<text fill="#FF5731" xml:space="preserve" style="white-space: pre" font-family="SF Mono" font-size="10.8" font-weight="600" letter-spacing="0em"><tspan x="383.486" y="77.7395">40%</tspan></text>
<text fill="#FF7757" xml:space="preserve" style="white-space: pre" font-family="SF Mono" font-size="10.8" font-weight="600" letter-spacing="0em"><tspan x="425.486" y="77.7395">80%</tspan></text>
<text fill="#600000" xml:space="preserve" style="white-space: pre" font-family="SF Mono" font-size="10.8" font-weight="600" letter-spacing="0em"><tspan x="460.286" y="77.7395">90%</tspan></text>
<text fill="black" xml:space="preserve" style="white-space: pre" font-family="SF Mono" font-size="10.8" font-weight="600" letter-spacing="0em"><tspan x="495.086" y="77.7395">99%</tspan></text>
<text fill="black" xml:space="preserve" style="white-space: pre" font-family="SF Mono" font-size="10.8" font-weight="600" letter-spacing="0em"><tspan x="528.686" y="77.7395">70%</tspan></text>
<text fill="black" xml:space="preserve" style="white-space: pre" font-family="SF Mono" font-size="10.8" font-weight="600" letter-spacing="0em"><tspan x="567.086" y="77.7395">99%</tspan></text>
<text fill="black" xml:space="preserve" style="white-space: pre" font-family="SF Mono" font-size="10.8" font-weight="600" letter-spacing="0em"><tspan x="606.686" y="77.7395">99%</tspan></text>
<text fill="#878787" xml:space="preserve" style="white-space: pre" font-family="Iowan Old Style BT" font-size="15.6" font-style="italic" letter-spacing="0em"><tspan x="29.6312" y="51.778">student trajectory</tspan></text>
<text fill="#878787" xml:space="preserve" style="white-space: pre" font-family="Iowan Old Style BT" font-size="15.6" letter-spacing="0em"><tspan x="257.125" y="115.378">teacher&#x2019;s conditional per-token probability</tspan></text>
<path d="M175.4 84.8003V94.4003H617.6V84.8003" stroke="black" stroke-opacity="0.1" stroke-width="1.2"/>
<defs>
<filter id="filter0_d_861_19346" x="163.4" y="27.8" width="30.2" height="40.8" filterUnits="userSpaceOnUse" color-interpolation-filters="sRGB">
<feFlood flood-opacity="0" result="BackgroundImageFix"/>
<feColorMatrix in="SourceAlpha" type="matrix" values="0 0 0 0 0 0 0 0 0 0 0 0 0 0 0 0 0 0 127 0" result="hardAlpha"/>
<feOffset dy="1.2"/>
<feGaussianBlur stdDeviation="1.2"/>
<feComposite in2="hardAlpha" operator="out"/>
<feColorMatrix type="matrix" values="0 0 0 0 0 0 0 0 0 0 0 0 0 0 0 0 0 0 0.04 0"/>
<feBlend mode="normal" in2="BackgroundImageFix" result="effect1_dropShadow_861_19346"/>
<feBlend mode="normal" in="SourceGraphic" in2="effect1_dropShadow_861_19346" result="shape"/>
</filter>
<filter id="filter1_d_861_19346" x="195.8" y="27.8" width="34.2" height="40.8" filterUnits="userSpaceOnUse" color-interpolation-filters="sRGB">
<feFlood flood-opacity="0" result="BackgroundImageFix"/>
<feColorMatrix in="SourceAlpha" type="matrix" values="0 0 0 0 0 0 0 0 0 0 0 0 0 0 0 0 0 0 127 0" result="hardAlpha"/>
<feOffset dy="1.2"/>
<feGaussianBlur stdDeviation="1.2"/>
<feComposite in2="hardAlpha" operator="out"/>
<feColorMatrix type="matrix" values="0 0 0 0 0 0 0 0 0 0 0 0 0 0 0 0 0 0 0.04 0"/>
<feBlend mode="normal" in2="BackgroundImageFix" result="effect1_dropShadow_861_19346"/>
<feBlend mode="normal" in="SourceGraphic" in2="effect1_dropShadow_861_19346" result="shape"/>
</filter>
<filter id="filter2_d_861_19346" x="233" y="27.8" width="30.2" height="40.8" filterUnits="userSpaceOnUse" color-interpolation-filters="sRGB">
<feFlood flood-opacity="0" result="BackgroundImageFix"/>
<feColorMatrix in="SourceAlpha" type="matrix" values="0 0 0 0 0 0 0 0 0 0 0 0 0 0 0 0 0 0 127 0" result="hardAlpha"/>
<feOffset dy="1.2"/>
<feGaussianBlur stdDeviation="1.2"/>
<feComposite in2="hardAlpha" operator="out"/>
<feColorMatrix type="matrix" values="0 0 0 0 0 0 0 0 0 0 0 0 0 0 0 0 0 0 0.04 0"/>
<feBlend mode="normal" in2="BackgroundImageFix" result="effect1_dropShadow_861_19346"/>
<feBlend mode="normal" in="SourceGraphic" in2="effect1_dropShadow_861_19346" result="shape"/>
</filter>
<filter id="filter3_d_861_19346" x="265.4" y="27.8" width="33.2" height="40.8" filterUnits="userSpaceOnUse" color-interpolation-filters="sRGB">
<feFlood flood-opacity="0" result="BackgroundImageFix"/>
<feColorMatrix in="SourceAlpha" type="matrix" values="0 0 0 0 0 0 0 0 0 0 0 0 0 0 0 0 0 0 127 0" result="hardAlpha"/>
<feOffset dy="1.2"/>
<feGaussianBlur stdDeviation="1.2"/>
<feComposite in2="hardAlpha" operator="out"/>
<feColorMatrix type="matrix" values="0 0 0 0 0 0 0 0 0 0 0 0 0 0 0 0 0 0 0.04 0"/>
<feBlend mode="normal" in2="BackgroundImageFix" result="effect1_dropShadow_861_19346"/>
<feBlend mode="normal" in="SourceGraphic" in2="effect1_dropShadow_861_19346" result="shape"/>
</filter>
<filter id="filter4_d_861_19346" x="300.2" y="27.8" width="30.2" height="40.8" filterUnits="userSpaceOnUse" color-interpolation-filters="sRGB">
<feFlood flood-opacity="0" result="BackgroundImageFix"/>
<feColorMatrix in="SourceAlpha" type="matrix" values="0 0 0 0 0 0 0 0 0 0 0 0 0 0 0 0 0 0 127 0" result="hardAlpha"/>
<feOffset dy="1.2"/>
<feGaussianBlur stdDeviation="1.2"/>
<feComposite in2="hardAlpha" operator="out"/>
<feColorMatrix type="matrix" values="0 0 0 0 0 0 0 0 0 0 0 0 0 0 0 0 0 0 0.04 0"/>
<feBlend mode="normal" in2="BackgroundImageFix" result="effect1_dropShadow_861_19346"/>
<feBlend mode="normal" in="SourceGraphic" in2="effect1_dropShadow_861_19346" result="shape"/>
</filter>
<filter id="filter5_d_861_19346" x="332.6" y="27.8" width="33.6" height="40.8" filterUnits="userSpaceOnUse" color-interpolation-filters="sRGB">
<feFlood flood-opacity="0" result="BackgroundImageFix"/>
<feColorMatrix in="SourceAlpha" type="matrix" values="0 0 0 0 0 0 0 0 0 0 0 0 0 0 0 0 0 0 127 0" result="hardAlpha"/>
<feOffset dy="1.2"/>
<feGaussianBlur stdDeviation="1.2"/>
<feComposite in2="hardAlpha" operator="out"/>
<feColorMatrix type="matrix" values="0 0 0 0 0 0 0 0 0 0 0 0 0 0 0 0 0 0 0.04 0"/>
<feBlend mode="normal" in2="BackgroundImageFix" result="effect1_dropShadow_861_19346"/>
<feBlend mode="normal" in="SourceGraphic" in2="effect1_dropShadow_861_19346" result="shape"/>
</filter>
<filter id="filter6_d_861_19346" x="368.6" y="27.8" width="49.2" height="40.8" filterUnits="userSpaceOnUse" color-interpolation-filters="sRGB">
<feFlood flood-opacity="0" result="BackgroundImageFix"/>
<feColorMatrix in="SourceAlpha" type="matrix" values="0 0 0 0 0 0 0 0 0 0 0 0 0 0 0 0 0 0 127 0" result="hardAlpha"/>
<feOffset dy="1.2"/>
<feGaussianBlur stdDeviation="1.2"/>
<feComposite in2="hardAlpha" operator="out"/>
<feColorMatrix type="matrix" values="0 0 0 0 0 0 0 0 0 0 0 0 0 0 0 0 0 0 0.04 0"/>
<feBlend mode="normal" in2="BackgroundImageFix" result="effect1_dropShadow_861_19346"/>
<feBlend mode="normal" in="SourceGraphic" in2="effect1_dropShadow_861_19346" result="shape"/>
</filter>
<filter id="filter7_d_861_19346" x="420.2" y="27.8" width="30.2" height="40.8" filterUnits="userSpaceOnUse" color-interpolation-filters="sRGB">
<feFlood flood-opacity="0" result="BackgroundImageFix"/>
<feColorMatrix in="SourceAlpha" type="matrix" values="0 0 0 0 0 0 0 0 0 0 0 0 0 0 0 0 0 0 127 0" result="hardAlpha"/>
<feOffset dy="1.2"/>
<feGaussianBlur stdDeviation="1.2"/>
<feComposite in2="hardAlpha" operator="out"/>
<feColorMatrix type="matrix" values="0 0 0 0 0 0 0 0 0 0 0 0 0 0 0 0 0 0 0.04 0"/>
<feBlend mode="normal" in2="BackgroundImageFix" result="effect1_dropShadow_861_19346"/>
<feBlend mode="normal" in="SourceGraphic" in2="effect1_dropShadow_861_19346" result="shape"/>
</filter>
<filter id="filter8_d_861_19346" x="452.6" y="27.8" width="34.2" height="40.8" filterUnits="userSpaceOnUse" color-interpolation-filters="sRGB">
<feFlood flood-opacity="0" result="BackgroundImageFix"/>
<feColorMatrix in="SourceAlpha" type="matrix" values="0 0 0 0 0 0 0 0 0 0 0 0 0 0 0 0 0 0 127 0" result="hardAlpha"/>
<feOffset dy="1.2"/>
<feGaussianBlur stdDeviation="1.2"/>
<feComposite in2="hardAlpha" operator="out"/>
<feColorMatrix type="matrix" values="0 0 0 0 0 0 0 0 0 0 0 0 0 0 0 0 0 0 0.04 0"/>
<feBlend mode="normal" in2="BackgroundImageFix" result="effect1_dropShadow_861_19346"/>
<feBlend mode="normal" in="SourceGraphic" in2="effect1_dropShadow_861_19346" result="shape"/>
</filter>
<filter id="filter9_d_861_19346" x="489.8" y="27.8" width="30.2" height="40.8" filterUnits="userSpaceOnUse" color-interpolation-filters="sRGB">
<feFlood flood-opacity="0" result="BackgroundImageFix"/>
<feColorMatrix in="SourceAlpha" type="matrix" values="0 0 0 0 0 0 0 0 0 0 0 0 0 0 0 0 0 0 127 0" result="hardAlpha"/>
<feOffset dy="1.2"/>
<feGaussianBlur stdDeviation="1.2"/>
<feComposite in2="hardAlpha" operator="out"/>
<feColorMatrix type="matrix" values="0 0 0 0 0 0 0 0 0 0 0 0 0 0 0 0 0 0 0.04 0"/>
<feBlend mode="normal" in2="BackgroundImageFix" result="effect1_dropShadow_861_19346"/>
<feBlend mode="normal" in="SourceGraphic" in2="effect1_dropShadow_861_19346" result="shape"/>
</filter>
<filter id="filter10_d_861_19346" x="522.2" y="27.8" width="33.2" height="40.8" filterUnits="userSpaceOnUse" color-interpolation-filters="sRGB">
<feFlood flood-opacity="0" result="BackgroundImageFix"/>
<feColorMatrix in="SourceAlpha" type="matrix" values="0 0 0 0 0 0 0 0 0 0 0 0 0 0 0 0 0 0 127 0" result="hardAlpha"/>
<feOffset dy="1.2"/>
<feGaussianBlur stdDeviation="1.2"/>
<feComposite in2="hardAlpha" operator="out"/>
<feColorMatrix type="matrix" values="0 0 0 0 0 0 0 0 0 0 0 0 0 0 0 0 0 0 0.04 0"/>
<feBlend mode="normal" in2="BackgroundImageFix" result="effect1_dropShadow_861_19346"/>
<feBlend mode="normal" in="SourceGraphic" in2="effect1_dropShadow_861_19346" result="shape"/>
</filter>
<filter id="filter11_d_861_19346" x="557" y="27.8" width="40.2" height="40.8" filterUnits="userSpaceOnUse" color-interpolation-filters="sRGB">
<feFlood flood-opacity="0" result="BackgroundImageFix"/>
<feColorMatrix in="SourceAlpha" type="matrix" values="0 0 0 0 0 0 0 0 0 0 0 0 0 0 0 0 0 0 127 0" result="hardAlpha"/>
<feOffset dy="1.2"/>
<feGaussianBlur stdDeviation="1.2"/>
<feComposite in2="hardAlpha" operator="out"/>
<feColorMatrix type="matrix" values="0 0 0 0 0 0 0 0 0 0 0 0 0 0 0 0 0 0 0.04 0"/>
<feBlend mode="normal" in2="BackgroundImageFix" result="effect1_dropShadow_861_19346"/>
<feBlend mode="normal" in="SourceGraphic" in2="effect1_dropShadow_861_19346" result="shape"/>
</filter>
<filter id="filter12_d_861_19346" x="599" y="27.8" width="33.6" height="40.8" filterUnits="userSpaceOnUse" color-interpolation-filters="sRGB">
<feFlood flood-opacity="0" result="BackgroundImageFix"/>
<feColorMatrix in="SourceAlpha" type="matrix" values="0 0 0 0 0 0 0 0 0 0 0 0 0 0 0 0 0 0 127 0" result="hardAlpha"/>
<feOffset dy="1.2"/>
<feGaussianBlur stdDeviation="1.2"/>
<feComposite in2="hardAlpha" operator="out"/>
<feColorMatrix type="matrix" values="0 0 0 0 0 0 0 0 0 0 0 0 0 0 0 0 0 0 0.04 0"/>
<feBlend mode="normal" in2="BackgroundImageFix" result="effect1_dropShadow_861_19346"/>
<feBlend mode="normal" in="SourceGraphic" in2="effect1_dropShadow_861_19346" result="shape"/>
</filter>
</defs>
</svg>
