<svg xmlns="http://www.w3.org/2000/svg" width="32" height="32" viewBox="0 0 32 32">
  <path d="m5 27 3-10L22 3a3 3 0 0 1 4 0l3 3a3 3 0 0 1 0 4L15 24Z" fill="#faf8ef" stroke="#faf8ef" stroke-width="3" stroke-linejoin="round"/>
  <path d="m8 17 14-14a3 3 0 0 1 4 0l3 3a3 3 0 0 1 0 4L15 24Z" fill="#294b40"/>
  <path d="m11 19 14-14" stroke="#719383" stroke-width="2" stroke-linecap="round"/>
  <path d="m8 17 7 7-10 3Z" fill="#d9bc8b"/>
  <path d="m6.5 22 3.5 3.5L5 27Z" fill="#294b40"/>
  <path d="m21 5 6 6" stroke="#d9bc8b" stroke-width="2"/>
</svg>
